G04*
G04 #@! TF.GenerationSoftware,Altium Limited,Altium Designer,20.0.9 (164)*
G04*
G04 Layer_Color=8421504*
%FSLAX25Y25*%
%MOIN*%
G70*
G01*
G75*
%ADD17R,0.08661X0.07874*%
%ADD18R,0.01181X0.04724*%
%ADD19R,0.03543X0.03150*%
%ADD20R,0.02362X0.05118*%
%ADD21R,0.02362X0.06299*%
%ADD22R,0.03937X0.02362*%
%ADD23R,0.03500X0.05000*%
%ADD24O,0.01433X0.06858*%
G04:AMPARAMS|DCode=25|XSize=55mil|YSize=50mil|CornerRadius=0mil|HoleSize=0mil|Usage=FLASHONLY|Rotation=270.000|XOffset=0mil|YOffset=0mil|HoleType=Round|Shape=Octagon|*
%AMOCTAGOND25*
4,1,8,-0.01250,-0.02750,0.01250,-0.02750,0.02500,-0.01500,0.02500,0.01500,0.01250,0.02750,-0.01250,0.02750,-0.02500,0.01500,-0.02500,-0.01500,-0.01250,-0.02750,0.0*
%
%ADD25OCTAGOND25*%

%ADD26R,0.05000X0.05500*%
%ADD27R,0.05000X0.03500*%
D17*
X364102Y454599D02*
D03*
X302291D02*
D03*
D18*
X357803Y467006D02*
D03*
X355834D02*
D03*
X353866D02*
D03*
X351897D02*
D03*
X349929D02*
D03*
X347960D02*
D03*
X346000Y467000D02*
D03*
X344039Y466994D02*
D03*
X342063Y467000D02*
D03*
X340094D02*
D03*
X338126D02*
D03*
X336157D02*
D03*
X334189D02*
D03*
X332220D02*
D03*
X330252D02*
D03*
X328283D02*
D03*
X326315D02*
D03*
X324346D02*
D03*
X322378D02*
D03*
X320409D02*
D03*
X318441D02*
D03*
X316472D02*
D03*
X314504D02*
D03*
X312535D02*
D03*
X310567D02*
D03*
X308590D02*
D03*
D19*
X301500Y404882D02*
D03*
Y410000D02*
D03*
X295201Y407441D02*
D03*
D20*
X319500Y433134D02*
D03*
X323240Y424866D02*
D03*
X315760D02*
D03*
D21*
X316260Y402839D02*
D03*
X323740D02*
D03*
X320000Y411500D02*
D03*
D22*
X304736Y432239D02*
D03*
X304736Y424759D02*
D03*
X294500Y424760D02*
D03*
X294500Y428500D02*
D03*
X294500Y432240D02*
D03*
D23*
X338740Y386000D02*
D03*
X331260D02*
D03*
X338740Y375500D02*
D03*
X331260D02*
D03*
X269519Y440250D02*
D03*
X276999D02*
D03*
X277000Y420500D02*
D03*
X269520D02*
D03*
X269519Y410625D02*
D03*
X276999D02*
D03*
X269519Y400750D02*
D03*
X276999D02*
D03*
X269519Y390875D02*
D03*
X276999D02*
D03*
X277000Y381000D02*
D03*
X269520D02*
D03*
X269519Y371125D02*
D03*
X276999D02*
D03*
X277000Y361250D02*
D03*
X269520D02*
D03*
X277000Y352000D02*
D03*
X269520D02*
D03*
X355500Y375500D02*
D03*
X348020D02*
D03*
X355500Y386000D02*
D03*
X348020D02*
D03*
X371480D02*
D03*
X364000D02*
D03*
X276707Y430175D02*
D03*
X269227D02*
D03*
X364000Y375500D02*
D03*
X371480D02*
D03*
D24*
X346941Y406394D02*
D03*
X349500D02*
D03*
X352059D02*
D03*
X354618D02*
D03*
X357177D02*
D03*
X359736D02*
D03*
X362295D02*
D03*
X364854D02*
D03*
X367413D02*
D03*
X369972D02*
D03*
X346941Y429000D02*
D03*
X349500D02*
D03*
X352059D02*
D03*
X354618D02*
D03*
X357177D02*
D03*
X359736D02*
D03*
X362295D02*
D03*
X364854D02*
D03*
X367413D02*
D03*
X369972D02*
D03*
D25*
X319000Y375750D02*
D03*
X308000Y389500D02*
D03*
X297500Y376250D02*
D03*
D26*
X319000Y389250D02*
D03*
X308000Y376000D02*
D03*
X297500Y389750D02*
D03*
D27*
X289444Y487980D02*
D03*
Y480500D02*
D03*
X299333Y487980D02*
D03*
Y480500D02*
D03*
X309222Y487980D02*
D03*
Y480500D02*
D03*
X319111Y487980D02*
D03*
Y480500D02*
D03*
X329000Y487980D02*
D03*
Y480500D02*
D03*
X338889Y487980D02*
D03*
Y480500D02*
D03*
X348778Y487980D02*
D03*
Y480500D02*
D03*
X358667Y487980D02*
D03*
Y480500D02*
D03*
X368555Y487980D02*
D03*
Y480500D02*
D03*
X378444Y487980D02*
D03*
Y480500D02*
D03*
M02*
