M48
;Layer_Color=9474304
;FILE_FORMAT=2:5
INCH,LZ
;TYPE=PLATED
T1F00S00C0.02800
T2F00S00C0.03543
%
T01
X0277Y0352
Y03615
Y0381
X02855Y03835
X0284Y039
X02895Y0377
X02905Y0371
X03025Y03675
X03015Y042
X02935Y0417
X0277Y04205
X0269
X02755Y04105
X0277Y043
X0276999Y0441
X02695Y0449
X0288Y0435
X0321Y0441
Y0458
X03465Y04565
X0353
X0375
X0367Y04365
X03665Y04215
X03635Y0415
X03555
X0357Y04215
X03495Y0421
X0347Y04155
X0341Y0413
X03325Y0405
X03305Y03965
X033126Y0386
X037148Y0386
X03795Y0388
X03745Y04195
X03395Y04295
X0348778Y04805
X0368555
X0322Y0473
X0309222Y04805
T02
X0304Y0352
X0273Y04645
X0314Y0352
X0324
X0334
X0344
X0354
X0364
X0374
X0273Y04745
Y04845
M30
