G04*
G04 #@! TF.GenerationSoftware,Altium Limited,Altium Designer,20.0.9 (164)*
G04*
G04 Layer_Color=8388736*
%FSLAX25Y25*%
%MOIN*%
G70*
G01*
G75*
%ADD28R,0.09461X0.08674*%
%ADD29R,0.01981X0.05524*%
%ADD30R,0.04343X0.03950*%
%ADD31R,0.03162X0.05918*%
%ADD32R,0.03162X0.07099*%
%ADD33R,0.04737X0.03162*%
%ADD34R,0.04300X0.05800*%
%ADD35O,0.02233X0.07658*%
G04:AMPARAMS|DCode=36|XSize=63mil|YSize=58mil|CornerRadius=0mil|HoleSize=0mil|Usage=FLASHONLY|Rotation=270.000|XOffset=0mil|YOffset=0mil|HoleType=Round|Shape=Octagon|*
%AMOCTAGOND36*
4,1,8,-0.01450,-0.03150,0.01450,-0.03150,0.02900,-0.01700,0.02900,0.01700,0.01450,0.03150,-0.01450,0.03150,-0.02900,0.01700,-0.02900,-0.01700,-0.01450,-0.03150,0.0*
%
%ADD36OCTAGOND36*%

%ADD37R,0.05800X0.06300*%
%ADD38R,0.05800X0.04300*%
%ADD39R,0.07493X0.07493*%
%ADD40C,0.07493*%
%ADD41R,0.07493X0.07493*%
%ADD42C,0.05800*%
D28*
X364102Y454599D02*
D03*
X302291D02*
D03*
D29*
X357803Y467006D02*
D03*
X355834D02*
D03*
X353866D02*
D03*
X351897D02*
D03*
X349929D02*
D03*
X347960D02*
D03*
X346000Y467000D02*
D03*
X344039Y466994D02*
D03*
X342063Y467000D02*
D03*
X340094D02*
D03*
X338126D02*
D03*
X336157D02*
D03*
X334189D02*
D03*
X332220D02*
D03*
X330252D02*
D03*
X328283D02*
D03*
X326315D02*
D03*
X324346D02*
D03*
X322378D02*
D03*
X320409D02*
D03*
X318441D02*
D03*
X316472D02*
D03*
X314504D02*
D03*
X312535D02*
D03*
X310567D02*
D03*
X308590D02*
D03*
D30*
X301500Y404882D02*
D03*
Y410000D02*
D03*
X295201Y407441D02*
D03*
D31*
X319500Y433134D02*
D03*
X323240Y424866D02*
D03*
X315760D02*
D03*
D32*
X316260Y402839D02*
D03*
X323740D02*
D03*
X320000Y411500D02*
D03*
D33*
X304736Y432239D02*
D03*
X304736Y424759D02*
D03*
X294500Y424760D02*
D03*
X294500Y428500D02*
D03*
X294500Y432240D02*
D03*
D34*
X338740Y386000D02*
D03*
X331260D02*
D03*
X338740Y375500D02*
D03*
X331260D02*
D03*
X269519Y440250D02*
D03*
X276999D02*
D03*
X277000Y420500D02*
D03*
X269520D02*
D03*
X269519Y410625D02*
D03*
X276999D02*
D03*
X269519Y400750D02*
D03*
X276999D02*
D03*
X269519Y390875D02*
D03*
X276999D02*
D03*
X277000Y381000D02*
D03*
X269520D02*
D03*
X269519Y371125D02*
D03*
X276999D02*
D03*
X277000Y361250D02*
D03*
X269520D02*
D03*
X277000Y352000D02*
D03*
X269520D02*
D03*
X355500Y375500D02*
D03*
X348020D02*
D03*
X355500Y386000D02*
D03*
X348020D02*
D03*
X371480D02*
D03*
X364000D02*
D03*
X276707Y430175D02*
D03*
X269227D02*
D03*
X364000Y375500D02*
D03*
X371480D02*
D03*
D35*
X346941Y406394D02*
D03*
X349500D02*
D03*
X352059D02*
D03*
X354618D02*
D03*
X357177D02*
D03*
X359736D02*
D03*
X362295D02*
D03*
X364854D02*
D03*
X367413D02*
D03*
X369972D02*
D03*
X346941Y429000D02*
D03*
X349500D02*
D03*
X352059D02*
D03*
X354618D02*
D03*
X357177D02*
D03*
X359736D02*
D03*
X362295D02*
D03*
X364854D02*
D03*
X367413D02*
D03*
X369972D02*
D03*
D36*
X319000Y375750D02*
D03*
X308000Y389500D02*
D03*
X297500Y376250D02*
D03*
D37*
X319000Y389250D02*
D03*
X308000Y376000D02*
D03*
X297500Y389750D02*
D03*
D38*
X289444Y487980D02*
D03*
Y480500D02*
D03*
X299333Y487980D02*
D03*
Y480500D02*
D03*
X309222Y487980D02*
D03*
Y480500D02*
D03*
X319111Y487980D02*
D03*
Y480500D02*
D03*
X329000Y487980D02*
D03*
Y480500D02*
D03*
X338889Y487980D02*
D03*
Y480500D02*
D03*
X348778Y487980D02*
D03*
Y480500D02*
D03*
X358667Y487980D02*
D03*
Y480500D02*
D03*
X368555Y487980D02*
D03*
Y480500D02*
D03*
X378444Y487980D02*
D03*
Y480500D02*
D03*
D39*
X273000Y464500D02*
D03*
D40*
Y474500D02*
D03*
Y484500D02*
D03*
X374000Y352000D02*
D03*
X364000D02*
D03*
X354000D02*
D03*
X344000D02*
D03*
X334000D02*
D03*
X324000D02*
D03*
X314000D02*
D03*
D41*
X304000D02*
D03*
D42*
X269500Y449000D02*
D03*
X371480Y386000D02*
D03*
X293500Y417000D02*
D03*
X301500Y420000D02*
D03*
X290500Y371000D02*
D03*
X322000Y473000D02*
D03*
X366500Y421500D02*
D03*
X321000Y441000D02*
D03*
X374500Y419500D02*
D03*
X379500Y388000D02*
D03*
X288000Y435000D02*
D03*
X321000Y458000D02*
D03*
X275500Y410500D02*
D03*
X277000Y352000D02*
D03*
Y381000D02*
D03*
Y420500D02*
D03*
X285500Y383500D02*
D03*
X269000Y420500D02*
D03*
X284000Y390000D02*
D03*
X367000Y436500D02*
D03*
X309222Y480500D02*
D03*
X277000Y430000D02*
D03*
X276999Y441000D02*
D03*
X332500Y405000D02*
D03*
X330500Y396500D02*
D03*
X341000Y413000D02*
D03*
X277000Y361500D02*
D03*
X331260Y386000D02*
D03*
X348778Y480500D02*
D03*
X368555D02*
D03*
X302500Y367500D02*
D03*
X289500Y377000D02*
D03*
X363500Y415000D02*
D03*
X357000Y421500D02*
D03*
X355500Y415000D02*
D03*
X349500Y421000D02*
D03*
X347000Y415500D02*
D03*
X375000Y456500D02*
D03*
X353000D02*
D03*
X339500Y429500D02*
D03*
X346500Y456500D02*
D03*
M02*
