G04*
G04 #@! TF.GenerationSoftware,Altium Limited,Altium Designer,20.0.9 (164)*
G04*
G04 Layer_Physical_Order=1*
G04 Layer_Color=255*
%FSLAX25Y25*%
%MOIN*%
G70*
G01*
G75*
%ADD10C,0.01000*%
%ADD17R,0.08661X0.07874*%
%ADD18R,0.01181X0.04724*%
%ADD19R,0.03543X0.03150*%
%ADD20R,0.02362X0.05118*%
%ADD21R,0.02362X0.06299*%
%ADD22R,0.03937X0.02362*%
%ADD23R,0.03500X0.05000*%
%ADD24O,0.01433X0.06858*%
G04:AMPARAMS|DCode=25|XSize=55mil|YSize=50mil|CornerRadius=0mil|HoleSize=0mil|Usage=FLASHONLY|Rotation=270.000|XOffset=0mil|YOffset=0mil|HoleType=Round|Shape=Octagon|*
%AMOCTAGOND25*
4,1,8,-0.01250,-0.02750,0.01250,-0.02750,0.02500,-0.01500,0.02500,0.01500,0.01250,0.02750,-0.01250,0.02750,-0.02500,0.01500,-0.02500,-0.01500,-0.01250,-0.02750,0.0*
%
%ADD25OCTAGOND25*%

%ADD26R,0.05000X0.05500*%
%ADD27R,0.05000X0.03500*%
%ADD43C,0.02000*%
%ADD44R,0.06693X0.06693*%
%ADD45C,0.06693*%
%ADD46R,0.06693X0.06693*%
%ADD47C,0.05000*%
G36*
X391480Y492578D02*
Y342500D01*
Y342422D01*
X383578Y334520D01*
X267422D01*
X259520Y342422D01*
Y492078D01*
X266922Y499480D01*
X384578D01*
X391480Y492578D01*
D02*
G37*
%LPC*%
G36*
X377944Y490730D02*
X374944D01*
Y489510D01*
X372055D01*
Y490730D01*
X369055D01*
Y487980D01*
Y485230D01*
X372055D01*
Y486451D01*
X374944D01*
Y485230D01*
X377944D01*
Y487980D01*
Y490730D01*
D02*
G37*
G36*
X368055D02*
X365055D01*
Y489510D01*
X362167D01*
Y490730D01*
X359167D01*
Y487980D01*
Y485230D01*
X362167D01*
Y486451D01*
X365055D01*
Y485230D01*
X368055D01*
Y487980D01*
Y490730D01*
D02*
G37*
G36*
X358167D02*
X355167D01*
Y489510D01*
X352278D01*
Y490730D01*
X349278D01*
Y487980D01*
Y485230D01*
X352278D01*
Y486451D01*
X355167D01*
Y485230D01*
X358167D01*
Y487980D01*
Y490730D01*
D02*
G37*
G36*
X348278D02*
X345278D01*
Y489510D01*
X342389D01*
Y490730D01*
X339389D01*
Y487980D01*
Y485230D01*
X342389D01*
Y486451D01*
X345278D01*
Y485230D01*
X348278D01*
Y487980D01*
Y490730D01*
D02*
G37*
G36*
X338389D02*
X335389D01*
Y489510D01*
X332500D01*
Y490730D01*
X329500D01*
Y487980D01*
Y485230D01*
X332500D01*
Y486451D01*
X335389D01*
Y485230D01*
X338389D01*
Y487980D01*
Y490730D01*
D02*
G37*
G36*
X328500D02*
X325500D01*
Y489510D01*
X322611D01*
Y490730D01*
X319611D01*
Y487980D01*
Y485230D01*
X322611D01*
Y486451D01*
X325500D01*
Y485230D01*
X328500D01*
Y487980D01*
Y490730D01*
D02*
G37*
G36*
X318611D02*
X315611D01*
Y489510D01*
X312722D01*
Y490730D01*
X309722D01*
Y487980D01*
Y485230D01*
X312722D01*
Y486451D01*
X315611D01*
Y485230D01*
X318611D01*
Y487980D01*
Y490730D01*
D02*
G37*
G36*
X308722D02*
X305722D01*
Y489510D01*
X302833D01*
Y490730D01*
X299833D01*
Y487980D01*
Y485230D01*
X302833D01*
Y486451D01*
X305722D01*
Y485230D01*
X308722D01*
Y487980D01*
Y490730D01*
D02*
G37*
G36*
X298833D02*
X295833D01*
Y489510D01*
X292944D01*
Y490730D01*
X289944D01*
Y487980D01*
Y485230D01*
X292944D01*
Y486451D01*
X295833D01*
Y485230D01*
X298833D01*
Y487980D01*
Y490730D01*
D02*
G37*
G36*
X381944D02*
X378944D01*
Y488480D01*
X381944D01*
Y490730D01*
D02*
G37*
G36*
X288944D02*
X285944D01*
Y488480D01*
X288944D01*
Y490730D01*
D02*
G37*
G36*
X272500Y488818D02*
X271865Y488735D01*
X270808Y488297D01*
X269900Y487600D01*
X269203Y486692D01*
X268765Y485635D01*
X268682Y485000D01*
X272500D01*
Y488818D01*
D02*
G37*
G36*
X273500D02*
Y484500D01*
Y480182D01*
X274135Y480265D01*
X275192Y480703D01*
X276100Y481400D01*
X276797Y482308D01*
X277071Y482971D01*
X285214D01*
X285799Y483087D01*
X286295Y483419D01*
X288107Y485230D01*
X288944D01*
Y487480D01*
X285944D01*
Y487393D01*
X284580Y486029D01*
X277071D01*
X276797Y486692D01*
X276100Y487600D01*
X275192Y488297D01*
X274135Y488735D01*
X273500Y488818D01*
D02*
G37*
G36*
X381944Y487480D02*
X378944D01*
Y485230D01*
X380101D01*
X380925Y484406D01*
Y482750D01*
X375444D01*
Y480556D01*
X375037D01*
X374646Y480478D01*
X374316Y480258D01*
X365578Y471520D01*
X357943D01*
X357685Y472020D01*
X357782Y472156D01*
X361230D01*
X361621Y472233D01*
X361951Y472454D01*
X367276Y477779D01*
X367278Y477782D01*
X367772Y477577D01*
X368555Y477474D01*
X369339Y477577D01*
X370068Y477879D01*
X370551Y478250D01*
X371555D01*
Y480303D01*
X371581Y480500D01*
X371555Y480697D01*
Y482750D01*
X370551D01*
X370068Y483120D01*
X369575Y483325D01*
Y483349D01*
X369497Y483740D01*
X369276Y484070D01*
X368946Y484291D01*
X368555Y484369D01*
X367522D01*
X367132Y484291D01*
X366801Y484070D01*
X366580Y483740D01*
X366503Y483349D01*
X366523Y483250D01*
X366172Y482760D01*
X366151Y482750D01*
X365555D01*
Y480697D01*
X365529Y480500D01*
X365555Y480303D01*
Y479349D01*
X365536Y479250D01*
Y478922D01*
X360808Y474195D01*
X357821D01*
X357554Y474695D01*
X357609Y474776D01*
X357686Y475167D01*
Y478250D01*
X361667D01*
Y482750D01*
X355667D01*
Y479349D01*
X355647Y479250D01*
Y475589D01*
X351449Y471390D01*
X350949Y471598D01*
Y478250D01*
X351778D01*
Y480303D01*
X351803Y480500D01*
X351778Y480697D01*
Y482750D01*
X350773D01*
X350290Y483120D01*
X349561Y483423D01*
X348778Y483526D01*
X347994Y483423D01*
X347501Y483218D01*
X347499Y483221D01*
X347168Y483442D01*
X346778Y483520D01*
X346387Y483442D01*
X346057Y483221D01*
X345836Y482890D01*
X345808Y482750D01*
X345778D01*
Y482598D01*
X345758Y482500D01*
Y481750D01*
X345778Y481651D01*
Y480697D01*
X345752Y480500D01*
X345778Y480303D01*
Y478250D01*
X346782D01*
X347265Y477879D01*
X347994Y477577D01*
X348778Y477474D01*
X348909Y477358D01*
Y470912D01*
X348409Y470705D01*
X341326Y477788D01*
X341518Y478250D01*
X341889D01*
Y482750D01*
X335889D01*
Y478530D01*
X333162D01*
X332000Y479692D01*
Y482750D01*
X326000D01*
Y479931D01*
X325538Y479740D01*
X324057Y481221D01*
X323726Y481442D01*
X323336Y481520D01*
X322111D01*
Y482750D01*
X316111D01*
Y478250D01*
X322111D01*
Y479480D01*
X322914D01*
X324412Y477982D01*
X324221Y477520D01*
X314394D01*
X312222Y479692D01*
Y480303D01*
X312248Y480500D01*
X312222Y480697D01*
Y482750D01*
X311218D01*
X310735Y483120D01*
X310005Y483423D01*
X309222Y483526D01*
X308439Y483423D01*
X307709Y483120D01*
X307226Y482750D01*
X306222D01*
Y480697D01*
X306196Y480500D01*
X306222Y480303D01*
Y478250D01*
X307226D01*
X307709Y477879D01*
X308439Y477577D01*
X309222Y477474D01*
X310005Y477577D01*
X310735Y477879D01*
X310970Y478060D01*
X312372Y476658D01*
X312165Y476158D01*
X305117D01*
X302353Y478922D01*
Y479250D01*
X302333Y479349D01*
Y482750D01*
X296333D01*
Y478250D01*
X300363D01*
X300391Y478110D01*
X300612Y477779D01*
X303272Y475120D01*
X303080Y474658D01*
X296728D01*
X292464Y478922D01*
Y479250D01*
X292444Y479349D01*
Y482750D01*
X286444D01*
Y478250D01*
X290475D01*
X290502Y478110D01*
X290723Y477779D01*
X295585Y472917D01*
X295916Y472696D01*
X296306Y472619D01*
X309841D01*
X312136Y470324D01*
X311945Y469862D01*
X307499D01*
Y464138D01*
X310124D01*
X310495Y463638D01*
X310480Y463566D01*
Y423966D01*
X300109Y413594D01*
X299314D01*
X298924Y413517D01*
X298593Y413296D01*
X298007Y412710D01*
X297786Y412379D01*
X297709Y411989D01*
Y411194D01*
X296030Y409516D01*
X294949D01*
Y414353D01*
X295013Y414380D01*
X295640Y414860D01*
X296121Y415487D01*
X296423Y416217D01*
X296526Y417000D01*
X296423Y417783D01*
X296121Y418513D01*
X295640Y419140D01*
X295013Y419621D01*
X294283Y419923D01*
X293500Y420026D01*
X292717Y419923D01*
X291987Y419621D01*
X291360Y419140D01*
X290880Y418513D01*
X290577Y417783D01*
X290474Y417000D01*
X290577Y416217D01*
X290880Y415487D01*
X291360Y414860D01*
X291987Y414380D01*
X292717Y414077D01*
X292910Y414052D01*
Y408516D01*
X292929Y408417D01*
Y405366D01*
X295791D01*
X295983Y404904D01*
X293505Y402426D01*
X292304D01*
X279885Y414846D01*
X279554Y415067D01*
X279164Y415145D01*
X273019D01*
X272629Y415067D01*
X272298Y414846D01*
X271097Y413645D01*
X270769D01*
X270671Y413625D01*
X268950D01*
X268759Y414087D01*
X270652Y415980D01*
X285952D01*
X286343Y416058D01*
X286673Y416279D01*
X293473Y423079D01*
X296968D01*
Y426319D01*
X297468D01*
Y428000D01*
X294500D01*
Y429000D01*
X297468D01*
Y430681D01*
X296969D01*
Y433921D01*
X294195D01*
X292608Y435507D01*
X292112Y435839D01*
X291527Y435955D01*
X290851D01*
X290620Y436513D01*
X290140Y437140D01*
X289513Y437620D01*
X288783Y437923D01*
X288000Y438026D01*
X287217Y437923D01*
X286487Y437620D01*
X285860Y437140D01*
X285380Y436513D01*
X285077Y435783D01*
X284974Y435000D01*
X285077Y434217D01*
X285380Y433487D01*
X285860Y432860D01*
X286487Y432379D01*
X287217Y432077D01*
X288000Y431974D01*
X288783Y432077D01*
X289513Y432379D01*
X290140Y432860D01*
X290167Y432897D01*
X290893D01*
X292032Y431758D01*
Y430681D01*
X291531D01*
Y430029D01*
X285387D01*
X280160Y435257D01*
X279664Y435588D01*
X279078Y435705D01*
X275477D01*
X272269Y438913D01*
Y439750D01*
X270019D01*
Y436750D01*
X270106D01*
X273762Y433094D01*
X274258Y432762D01*
X274457Y432723D01*
Y431614D01*
X274379Y431513D01*
X274077Y430783D01*
X273974Y430000D01*
X274077Y429217D01*
X274379Y428487D01*
X274457Y428386D01*
Y427175D01*
X275980D01*
X276217Y427077D01*
X277000Y426974D01*
X277783Y427077D01*
X278020Y427175D01*
X278957D01*
Y427720D01*
X279140Y427860D01*
X279621Y428487D01*
X279923Y429217D01*
X280026Y430000D01*
X279972Y430412D01*
X280445Y430646D01*
X283672Y427419D01*
X284168Y427087D01*
X284754Y426971D01*
X291531D01*
Y426319D01*
X292031D01*
Y424521D01*
X285530Y418020D01*
X279334D01*
X279262Y418520D01*
X279621Y418987D01*
X279923Y419717D01*
X280026Y420500D01*
X279923Y421283D01*
X279621Y422013D01*
X279250Y422496D01*
Y423500D01*
X277197D01*
X277000Y423526D01*
X276803Y423500D01*
X274750D01*
Y422496D01*
X274379Y422013D01*
X274077Y421283D01*
X273974Y420500D01*
X274077Y419717D01*
X274379Y418987D01*
X274738Y418520D01*
X274665Y418020D01*
X271770D01*
Y419347D01*
X271923Y419717D01*
X272026Y420500D01*
X271923Y421283D01*
X271770Y421653D01*
Y423500D01*
X270246D01*
Y427175D01*
X271477D01*
Y433175D01*
X266977D01*
Y427175D01*
X268207D01*
Y423500D01*
X267270D01*
Y422954D01*
X266860Y422640D01*
X266798Y422559D01*
X266298Y422729D01*
Y436679D01*
X266769Y436750D01*
Y436750D01*
X269019D01*
Y440250D01*
X269519D01*
Y440750D01*
X272269D01*
Y440837D01*
X273762Y442330D01*
X274186Y442047D01*
X274077Y441783D01*
X273973Y441000D01*
X274077Y440217D01*
X274379Y439487D01*
X274749Y439004D01*
Y437250D01*
X279249D01*
Y438721D01*
X295305D01*
X302268Y431758D01*
Y430558D01*
X307205D01*
Y433920D01*
X304431D01*
X297020Y441331D01*
X296524Y441663D01*
X295938Y441779D01*
X279923D01*
X279922Y441783D01*
X279620Y442513D01*
X279249Y442996D01*
Y443250D01*
X278995D01*
X278529Y443608D01*
Y460501D01*
X278412Y461086D01*
X278081Y461582D01*
X276847Y462816D01*
Y468347D01*
X269683D01*
Y471727D01*
X270156Y471887D01*
X270257Y471757D01*
X271060Y471140D01*
X271996Y470753D01*
X273000Y470620D01*
X274004Y470753D01*
X274940Y471140D01*
X275743Y471757D01*
X276360Y472560D01*
X276747Y473496D01*
X276880Y474500D01*
X276747Y475504D01*
X276360Y476440D01*
X275743Y477243D01*
X274940Y477860D01*
X274004Y478247D01*
X273000Y478380D01*
X271996Y478247D01*
X271060Y477860D01*
X270257Y477243D01*
X270156Y477113D01*
X269683Y477273D01*
Y479020D01*
X271203Y480540D01*
X271865Y480265D01*
X272500Y480182D01*
Y484000D01*
X268682D01*
X268765Y483365D01*
X269040Y482703D01*
X267072Y480735D01*
X266741Y480239D01*
X266624Y479654D01*
Y460532D01*
X266741Y459947D01*
X267072Y459451D01*
X272471Y454052D01*
Y450878D01*
X271971Y450708D01*
X271640Y451140D01*
X271013Y451620D01*
X270283Y451923D01*
X269500Y452026D01*
X268717Y451923D01*
X267987Y451620D01*
X267360Y451140D01*
X266880Y450513D01*
X266577Y449783D01*
X266474Y449000D01*
X266575Y448237D01*
X263688Y445350D01*
X263356Y444854D01*
X263240Y444269D01*
Y406250D01*
X263356Y405665D01*
X263688Y405169D01*
X267269Y401587D01*
Y397750D01*
X271769D01*
X271980Y397338D01*
Y395528D01*
X270327Y393875D01*
X267269D01*
Y387875D01*
X268499D01*
Y384000D01*
X267270D01*
Y379442D01*
X266048Y378220D01*
X265827Y377890D01*
X265749Y377499D01*
Y368211D01*
X265827Y367821D01*
X266048Y367490D01*
X266480Y367057D01*
Y363270D01*
X266558Y362879D01*
X266779Y362549D01*
X267270Y362058D01*
Y358250D01*
X271770D01*
Y364250D01*
X268520D01*
Y367480D01*
X268639Y367625D01*
X269019D01*
Y371125D01*
X269519D01*
Y371625D01*
X272269D01*
Y374625D01*
X271048D01*
Y375195D01*
X271324Y375471D01*
X271891D01*
X272476Y375587D01*
X272972Y375919D01*
X274081Y377028D01*
X274413Y377524D01*
X274434Y377631D01*
X274750Y378000D01*
X276803D01*
X277000Y377974D01*
X277197Y378000D01*
X279250D01*
Y379004D01*
X279621Y379487D01*
X279923Y380217D01*
X280026Y381000D01*
X279923Y381783D01*
X279621Y382513D01*
X279250Y382996D01*
Y384000D01*
X277197D01*
X277000Y384026D01*
X276803Y384000D01*
X274750D01*
X274529Y384409D01*
Y385492D01*
X276412Y387375D01*
X276499D01*
Y390875D01*
X276999D01*
Y391375D01*
X279749D01*
Y394375D01*
X278529D01*
Y397250D01*
X279749D01*
Y400250D01*
X276999D01*
Y401250D01*
X279749D01*
Y404250D01*
X278529D01*
Y407125D01*
X279749D01*
Y410125D01*
X276999D01*
Y411125D01*
X279749D01*
Y411444D01*
X280211Y411635D01*
X291161Y400686D01*
X291492Y400465D01*
X291882Y400387D01*
X293927D01*
X294318Y400465D01*
X294648Y400686D01*
X298570Y404608D01*
X299014Y404505D01*
X299098Y404446D01*
X299138Y404159D01*
X296779Y401800D01*
X296558Y401469D01*
X296480Y401079D01*
Y393000D01*
X294500D01*
Y391020D01*
X286825D01*
X286620Y391513D01*
X286140Y392140D01*
X285513Y392620D01*
X284783Y392923D01*
X284000Y393026D01*
X283217Y392923D01*
X282487Y392620D01*
X281860Y392140D01*
X281380Y391513D01*
X281077Y390783D01*
X280974Y390000D01*
X281077Y389217D01*
X281380Y388487D01*
X281860Y387860D01*
X282487Y387380D01*
X283217Y387077D01*
X284000Y386974D01*
X284783Y387077D01*
X285513Y387380D01*
X286140Y387860D01*
X286620Y388487D01*
X286825Y388980D01*
X294500D01*
Y386500D01*
X300500D01*
Y393000D01*
X298520D01*
Y400656D01*
X300670Y402807D01*
X303772D01*
Y406957D01*
X300355D01*
X300164Y407418D01*
X300670Y407925D01*
X303772D01*
Y410633D01*
X313721Y420582D01*
X313942Y420913D01*
X314020Y421303D01*
Y421332D01*
X314079Y421807D01*
X314740D01*
Y417709D01*
X314818Y417318D01*
X315039Y416988D01*
X318319Y413708D01*
Y407850D01*
X321681D01*
Y410480D01*
X334151D01*
X344888Y399744D01*
X345218Y399523D01*
X345609Y399445D01*
X349113D01*
X361279Y387279D01*
X361610Y387058D01*
X361750Y387030D01*
Y384821D01*
X361250Y384771D01*
X361235Y384847D01*
X361014Y385178D01*
X359471Y386721D01*
X359140Y386942D01*
X358750Y387020D01*
X357750D01*
Y389000D01*
X353250D01*
Y383000D01*
X357750D01*
Y384980D01*
X358328D01*
X359275Y384033D01*
X359351Y383653D01*
X359572Y383322D01*
X361115Y381779D01*
X361446Y381558D01*
X361836Y381480D01*
X368813D01*
X368863Y380980D01*
X368524Y380913D01*
X368027Y380581D01*
X367149Y379703D01*
X366817Y379207D01*
X366730Y378768D01*
X366666Y378704D01*
X366250Y378500D01*
X361750D01*
Y377029D01*
X357750D01*
Y378500D01*
X353250D01*
Y372500D01*
X357750D01*
Y373971D01*
X361750D01*
Y372500D01*
X366250D01*
Y375405D01*
X367059D01*
X367644Y375521D01*
X368140Y375853D01*
X368268Y375981D01*
X368730Y375789D01*
Y374824D01*
X368577Y374595D01*
X368461Y374010D01*
Y373893D01*
X362919Y368351D01*
X362587Y367855D01*
X362522Y367529D01*
X357403D01*
X350770Y374163D01*
Y375000D01*
X348520D01*
Y372000D01*
X348607D01*
X355688Y364919D01*
X356184Y364587D01*
X356770Y364471D01*
X362471D01*
Y356071D01*
X361808Y355797D01*
X360900Y355100D01*
X360203Y354192D01*
X359765Y353135D01*
X359682Y352500D01*
X368318D01*
X368235Y353135D01*
X367797Y354192D01*
X367100Y355100D01*
X366192Y355797D01*
X365529Y356071D01*
Y366000D01*
Y366636D01*
X370893Y372000D01*
X370980D01*
Y375500D01*
X371980D01*
Y372000D01*
X374230D01*
Y374529D01*
X375059D01*
X375644Y374646D01*
X376140Y374977D01*
X384581Y383419D01*
X384913Y383915D01*
X385029Y384500D01*
Y448000D01*
X384913Y448585D01*
X384581Y449081D01*
X378312Y455351D01*
X378410Y455586D01*
X378464Y456000D01*
X375500D01*
Y453036D01*
X375914Y453090D01*
X376149Y453188D01*
X381971Y447367D01*
Y390490D01*
X381471Y390269D01*
X381013Y390620D01*
X380283Y390923D01*
X379500Y391026D01*
X378717Y390923D01*
X377987Y390620D01*
X377360Y390140D01*
X377020Y389696D01*
X376520Y389865D01*
Y395595D01*
X376442Y395985D01*
X376221Y396316D01*
X370468Y402068D01*
X370604Y402640D01*
X370849Y402804D01*
X371118Y403206D01*
X371213Y403681D01*
Y409106D01*
X371118Y409581D01*
X370849Y409983D01*
X370604Y410148D01*
X370468Y410719D01*
X374528Y414779D01*
X374749Y415110D01*
X374827Y415500D01*
Y416517D01*
X375283Y416577D01*
X376013Y416880D01*
X376640Y417360D01*
X377120Y417987D01*
X377423Y418717D01*
X377526Y419500D01*
X377423Y420283D01*
X377120Y421013D01*
X376640Y421640D01*
X376013Y422121D01*
X375283Y422423D01*
X374500Y422526D01*
X373717Y422423D01*
X372987Y422121D01*
X372360Y421640D01*
X371880Y421013D01*
X371577Y420283D01*
X371474Y419500D01*
X371577Y418717D01*
X371880Y417987D01*
X372360Y417360D01*
X372787Y417033D01*
Y415922D01*
X368520Y411655D01*
X368020Y411862D01*
Y418885D01*
X368640Y419360D01*
X369121Y419987D01*
X369423Y420717D01*
X369526Y421500D01*
X369423Y422283D01*
X369121Y423013D01*
X368640Y423640D01*
X368013Y424121D01*
X367283Y424423D01*
X366500Y424526D01*
X365717Y424423D01*
X364987Y424121D01*
X364360Y423640D01*
X363879Y423013D01*
X363577Y422283D01*
X363474Y421500D01*
X363577Y420717D01*
X363879Y419987D01*
X364360Y419360D01*
X364987Y418880D01*
X365717Y418577D01*
X365980Y418542D01*
Y417473D01*
X365480Y417262D01*
X365013Y417621D01*
X364283Y417923D01*
X363500Y418026D01*
X362717Y417923D01*
X361987Y417621D01*
X361360Y417140D01*
X361256Y417003D01*
X360756Y417173D01*
Y418579D01*
X360678Y418969D01*
X360457Y419300D01*
X359664Y420093D01*
X359923Y420717D01*
X360026Y421500D01*
X359923Y422283D01*
X359620Y423013D01*
X359140Y423640D01*
X358513Y424121D01*
X357783Y424423D01*
X357000Y424526D01*
X356217Y424423D01*
X355487Y424121D01*
X354860Y423640D01*
X354380Y423013D01*
X354077Y422283D01*
X353974Y421500D01*
X354077Y420717D01*
X354380Y419987D01*
X354860Y419360D01*
X355487Y418880D01*
X356217Y418577D01*
X357000Y418474D01*
X357783Y418577D01*
X358146Y418727D01*
X358717Y418157D01*
Y416380D01*
X358217Y416281D01*
X358120Y416513D01*
X357640Y417140D01*
X357013Y417621D01*
X356283Y417923D01*
X355500Y418026D01*
X354717Y417923D01*
X353987Y417621D01*
X353520Y417262D01*
X353020Y417473D01*
Y418500D01*
X352942Y418890D01*
X352721Y419221D01*
X352218Y419724D01*
X352423Y420217D01*
X352526Y421000D01*
X352423Y421783D01*
X352120Y422513D01*
X351640Y423140D01*
X351013Y423621D01*
X350283Y423923D01*
X349500Y424026D01*
X348717Y423923D01*
X347987Y423621D01*
X347360Y423140D01*
X346880Y422513D01*
X346577Y421783D01*
X346474Y421000D01*
X346577Y420217D01*
X346880Y419487D01*
X347256Y418996D01*
X347021Y418523D01*
X347000Y418526D01*
X346217Y418423D01*
X345487Y418120D01*
X344860Y417640D01*
X344379Y417013D01*
X344077Y416283D01*
X343996Y415666D01*
X343504Y415497D01*
X343495Y415497D01*
X342765Y416057D01*
X341914Y416410D01*
X341500Y416464D01*
Y413000D01*
X340500D01*
Y416464D01*
X340086Y416410D01*
X339235Y416057D01*
X338504Y415496D01*
X337943Y414765D01*
X337590Y413914D01*
X337470Y413000D01*
X337489Y412855D01*
X337015Y412621D01*
X325936Y423701D01*
X325605Y423922D01*
X325215Y423999D01*
X324921D01*
Y427925D01*
X321559D01*
Y421807D01*
X324921D01*
X324921Y421807D01*
Y421807D01*
X325266Y421486D01*
X333771Y412982D01*
X333580Y412520D01*
X321681D01*
Y415150D01*
X319761D01*
X316779Y418131D01*
Y421807D01*
X317441D01*
Y427925D01*
X314079D01*
X314020Y428401D01*
Y453078D01*
X317193Y456251D01*
X317414Y456582D01*
X317492Y456972D01*
Y457834D01*
X317992Y457867D01*
X318020Y457654D01*
X318077Y457217D01*
X318379Y456487D01*
X318860Y455860D01*
X319471Y455392D01*
Y443608D01*
X318860Y443140D01*
X318379Y442513D01*
X318077Y441783D01*
X317974Y441000D01*
X318077Y440217D01*
X318370Y439509D01*
X318087Y439085D01*
X317971Y438500D01*
Y436193D01*
X317819D01*
Y430075D01*
X321181D01*
Y436193D01*
X321029D01*
Y437978D01*
X321783Y438077D01*
X322513Y438379D01*
X323140Y438860D01*
X323621Y439487D01*
X323923Y440217D01*
X324026Y441000D01*
X323923Y441783D01*
X323621Y442513D01*
X323140Y443140D01*
X322529Y443608D01*
Y455392D01*
X323140Y455860D01*
X323621Y456487D01*
X323923Y457217D01*
X324026Y458000D01*
X323923Y458783D01*
X323621Y459513D01*
X323140Y460140D01*
X322513Y460620D01*
X321783Y460923D01*
X321000Y461026D01*
X320217Y460923D01*
X319487Y460620D01*
X318860Y460140D01*
X318379Y459513D01*
X318077Y458783D01*
X318020Y458346D01*
X317992Y458133D01*
X317492Y458166D01*
Y464138D01*
X325295D01*
Y457457D01*
X325373Y457066D01*
X325594Y456736D01*
X349004Y433325D01*
X348869Y432754D01*
X348623Y432590D01*
X348511Y432422D01*
X347930D01*
X347818Y432590D01*
X347416Y432859D01*
X346941Y432953D01*
X346466Y432859D01*
X346064Y432590D01*
X345795Y432187D01*
X345701Y431713D01*
Y430520D01*
X342325D01*
X342121Y431013D01*
X341640Y431640D01*
X341013Y432121D01*
X340283Y432423D01*
X339500Y432526D01*
X338717Y432423D01*
X337987Y432121D01*
X337360Y431640D01*
X336879Y431013D01*
X336577Y430283D01*
X336474Y429500D01*
X336577Y428717D01*
X336879Y427987D01*
X337360Y427360D01*
X337987Y426880D01*
X338717Y426577D01*
X339500Y426474D01*
X340283Y426577D01*
X341013Y426880D01*
X341640Y427360D01*
X342121Y427987D01*
X342325Y428480D01*
X345701D01*
Y426287D01*
X345795Y425813D01*
X346064Y425410D01*
X346466Y425141D01*
X346941Y425047D01*
X347416Y425141D01*
X347818Y425410D01*
X347930Y425578D01*
X348511D01*
X348623Y425410D01*
X349025Y425141D01*
X349500Y425047D01*
X349975Y425141D01*
X350377Y425410D01*
X350489Y425578D01*
X351070D01*
X351182Y425410D01*
X351584Y425141D01*
X352059Y425047D01*
X352534Y425141D01*
X352936Y425410D01*
X353048Y425578D01*
X353629D01*
X353741Y425410D01*
X354143Y425141D01*
X354618Y425047D01*
X355093Y425141D01*
X355495Y425410D01*
X355607Y425578D01*
X356188D01*
X356300Y425410D01*
X356702Y425141D01*
X357177Y425047D01*
X357652Y425141D01*
X358054Y425410D01*
X358166Y425578D01*
X358747D01*
X358859Y425410D01*
X359261Y425141D01*
X359736Y425047D01*
X360211Y425141D01*
X360613Y425410D01*
X360725Y425578D01*
X361306D01*
X361418Y425410D01*
X361821Y425141D01*
X362295Y425047D01*
X362770Y425141D01*
X363172Y425410D01*
X363284Y425578D01*
X363865D01*
X363977Y425410D01*
X364380Y425141D01*
X364854Y425047D01*
X365329Y425141D01*
X365731Y425410D01*
X365843Y425578D01*
X366424D01*
X366536Y425410D01*
X366939Y425141D01*
X367413Y425047D01*
X367888Y425141D01*
X368290Y425410D01*
X368402Y425578D01*
X368984D01*
X369095Y425410D01*
X369498Y425141D01*
X369972Y425047D01*
X370447Y425141D01*
X370849Y425410D01*
X371118Y425813D01*
X371213Y426287D01*
Y431713D01*
X371118Y432187D01*
X370849Y432590D01*
X370447Y432859D01*
X369972Y432953D01*
X369498Y432859D01*
X369236Y432684D01*
X368781Y432865D01*
X368736Y432905D01*
Y434051D01*
X369140Y434360D01*
X369620Y434987D01*
X369923Y435717D01*
X370026Y436500D01*
X369923Y437283D01*
X369620Y438013D01*
X369140Y438640D01*
X368513Y439120D01*
X367783Y439423D01*
X367000Y439526D01*
X366217Y439423D01*
X365487Y439120D01*
X364860Y438640D01*
X364380Y438013D01*
X364077Y437283D01*
X363974Y436500D01*
X364077Y435717D01*
X364380Y434987D01*
X364860Y434360D01*
X365487Y433880D01*
X365677Y433801D01*
Y433181D01*
X365177Y432889D01*
X365106Y432903D01*
X337177Y460832D01*
Y464138D01*
X339074D01*
Y462906D01*
X339152Y462516D01*
X339373Y462185D01*
X343782Y457776D01*
X343577Y457283D01*
X343474Y456500D01*
X343577Y455717D01*
X343880Y454987D01*
X344360Y454360D01*
X344987Y453879D01*
X345717Y453577D01*
X346500Y453474D01*
X347283Y453577D01*
X348013Y453879D01*
X348640Y454360D01*
X349120Y454987D01*
X349209Y455200D01*
X349750Y455200D01*
X349943Y454735D01*
X350504Y454004D01*
X351235Y453443D01*
X352086Y453090D01*
X352500Y453036D01*
Y456500D01*
Y459964D01*
X352086Y459910D01*
X351341Y459601D01*
X349332Y461610D01*
X349001Y461831D01*
X348611Y461908D01*
X346199D01*
X344438Y463670D01*
X344629Y464132D01*
X345130D01*
Y464138D01*
X347091D01*
Y464144D01*
X358894D01*
Y469480D01*
X366000D01*
X366390Y469558D01*
X366721Y469779D01*
X375009Y478068D01*
X375444Y478250D01*
Y478250D01*
X375444Y478250D01*
X380925D01*
Y463867D01*
X376659Y459601D01*
X375914Y459910D01*
X375500Y459964D01*
Y457000D01*
X378464D01*
X378410Y457414D01*
X378101Y458159D01*
X382665Y462723D01*
X382886Y463054D01*
X382964Y463444D01*
Y484829D01*
X382886Y485219D01*
X382665Y485550D01*
X381944Y486271D01*
Y487480D01*
D02*
G37*
G36*
X374500Y459964D02*
X374086Y459910D01*
X373235Y459557D01*
X372504Y458996D01*
X371943Y458265D01*
X371590Y457414D01*
X371536Y457000D01*
X374500D01*
Y459964D01*
D02*
G37*
G36*
X353500D02*
Y457000D01*
X356464D01*
X356410Y457414D01*
X356057Y458265D01*
X355496Y458996D01*
X354765Y459557D01*
X353914Y459910D01*
X353500Y459964D01*
D02*
G37*
G36*
X374500Y456000D02*
X371536D01*
X371590Y455586D01*
X371943Y454735D01*
X372504Y454004D01*
X373235Y453443D01*
X374086Y453090D01*
X374500Y453036D01*
Y456000D01*
D02*
G37*
G36*
X356464D02*
X353500D01*
Y453036D01*
X353914Y453090D01*
X354765Y453443D01*
X355496Y454004D01*
X356057Y454735D01*
X356410Y455586D01*
X356464Y456000D01*
D02*
G37*
G36*
X368933Y459036D02*
X359272D01*
Y450162D01*
X368933D01*
Y459036D01*
D02*
G37*
G36*
X307122D02*
X297460D01*
Y450162D01*
X307122D01*
Y459036D01*
D02*
G37*
G36*
X307205Y426440D02*
X302268D01*
Y424520D01*
X301547Y423799D01*
X301325Y423468D01*
X301248Y423078D01*
Y422993D01*
X300717Y422923D01*
X299987Y422620D01*
X299360Y422140D01*
X298880Y421513D01*
X298577Y420783D01*
X298474Y420000D01*
X298577Y419217D01*
X298880Y418487D01*
X299360Y417860D01*
X299987Y417380D01*
X300717Y417077D01*
X301500Y416974D01*
X302283Y417077D01*
X303013Y417380D01*
X303640Y417860D01*
X304120Y418487D01*
X304423Y419217D01*
X304526Y420000D01*
X304423Y420783D01*
X304120Y421513D01*
X303640Y422140D01*
X303557Y422203D01*
X303522Y422718D01*
X303868Y423078D01*
X307205D01*
Y426440D01*
D02*
G37*
G36*
X325921Y406988D02*
X324240D01*
Y403339D01*
X325921D01*
Y406988D01*
D02*
G37*
G36*
X323240D02*
X321559D01*
Y403339D01*
X323240D01*
Y406988D01*
D02*
G37*
G36*
Y402339D02*
X321559D01*
Y398689D01*
X323240D01*
Y402339D01*
D02*
G37*
G36*
X331000Y399964D02*
Y397000D01*
X333964D01*
X333910Y397414D01*
X333557Y398265D01*
X332996Y398996D01*
X332265Y399557D01*
X331414Y399910D01*
X331000Y399964D01*
D02*
G37*
G36*
X333964Y396000D02*
X331000D01*
Y393036D01*
X331414Y393090D01*
X332265Y393443D01*
X332996Y394004D01*
X333557Y394735D01*
X333910Y395586D01*
X333964Y396000D01*
D02*
G37*
G36*
X325921Y402339D02*
X324240D01*
Y398207D01*
X325455Y396993D01*
X325951Y396661D01*
X326536Y396545D01*
X326931D01*
X326970Y396500D01*
X327090Y395586D01*
X327443Y394735D01*
X328004Y394004D01*
X328735Y393443D01*
X329586Y393090D01*
X330000Y393036D01*
Y396500D01*
Y399964D01*
X329586Y399910D01*
X328846Y399603D01*
X327170D01*
X325921Y400852D01*
Y402339D01*
D02*
G37*
G36*
X332500Y408026D02*
X331717Y407923D01*
X330987Y407620D01*
X330360Y407140D01*
X329879Y406513D01*
X329577Y405783D01*
X329474Y405000D01*
X329577Y404217D01*
X329879Y403487D01*
X330360Y402860D01*
X330987Y402380D01*
X331717Y402077D01*
X332500Y401974D01*
X332501Y401974D01*
X337480Y396995D01*
Y389000D01*
X336491D01*
Y388529D01*
X336029Y388338D01*
X332748Y391618D01*
X332417Y391839D01*
X332027Y391917D01*
X326655D01*
X317941Y400631D01*
Y406488D01*
X314579D01*
Y399189D01*
X316499D01*
X325512Y390176D01*
X325842Y389955D01*
X326233Y389878D01*
X328214D01*
X328510Y389500D01*
Y388166D01*
X328203Y387765D01*
X327850Y386914D01*
X327796Y386500D01*
X331260D01*
Y385500D01*
X327796D01*
X327850Y385087D01*
X328203Y384235D01*
X328510Y383835D01*
Y382500D01*
X329731D01*
Y379000D01*
X328510D01*
Y377155D01*
X322500D01*
Y377750D01*
X320750Y379500D01*
X319500D01*
Y375750D01*
Y372000D01*
X320750D01*
X322500Y373750D01*
Y374096D01*
X328510D01*
Y372000D01*
X331329D01*
X331520Y371538D01*
X318752Y358770D01*
X279750D01*
Y359334D01*
X280046Y359721D01*
X304750D01*
X305335Y359837D01*
X305831Y360169D01*
X317663Y372000D01*
X318500D01*
Y375250D01*
X315500D01*
Y374163D01*
X304117Y362779D01*
X280258D01*
X280057Y363265D01*
X279750Y363666D01*
Y364750D01*
X278300D01*
X277914Y364910D01*
X277031Y365026D01*
X272269Y369788D01*
Y370625D01*
X270019D01*
Y367625D01*
X270106D01*
X274170Y363561D01*
X273943Y363265D01*
X273590Y362414D01*
X273536Y362000D01*
X277000D01*
Y361000D01*
X273536D01*
X273590Y360586D01*
X273943Y359735D01*
X274250Y359334D01*
Y357750D01*
X274991D01*
X275182Y357288D01*
X272914Y355020D01*
X270770D01*
X270671Y355000D01*
X267270D01*
Y349000D01*
X271770D01*
Y352980D01*
X273336D01*
X273643Y353042D01*
X273854Y352916D01*
X274064Y352682D01*
X273974Y352000D01*
X274077Y351217D01*
X274379Y350487D01*
X274750Y350004D01*
Y349000D01*
X276803D01*
X277000Y348974D01*
X277197Y349000D01*
X279250D01*
Y350004D01*
X279621Y350487D01*
X279825Y350980D01*
X290410D01*
X294458Y346933D01*
X294788Y346712D01*
X295179Y346634D01*
X309653D01*
X310044Y346712D01*
X310374Y346933D01*
X312076Y348634D01*
X312996Y348253D01*
X314000Y348120D01*
X315004Y348253D01*
X315940Y348640D01*
X316743Y349257D01*
X317360Y350060D01*
X317747Y350996D01*
X317880Y352000D01*
X317747Y353004D01*
X317360Y353940D01*
X316743Y354743D01*
X315940Y355360D01*
X315004Y355747D01*
X314000Y355880D01*
X312996Y355747D01*
X312060Y355360D01*
X311257Y354743D01*
X310640Y353940D01*
X310253Y353004D01*
X310120Y352000D01*
X310253Y350996D01*
X310634Y350076D01*
X309231Y348673D01*
X307846D01*
Y355847D01*
X300153D01*
Y348673D01*
X295601D01*
X291553Y352721D01*
X291222Y352942D01*
X290832Y353020D01*
X279825D01*
X279621Y353513D01*
X279250Y353996D01*
Y355000D01*
X277197D01*
X277000Y355026D01*
X276803Y355000D01*
X276431D01*
X276240Y355462D01*
X277508Y356730D01*
X319174D01*
X319564Y356808D01*
X319895Y357029D01*
X334731Y371865D01*
X334952Y372196D01*
X335030Y372586D01*
Y373598D01*
X335913Y374481D01*
X336491D01*
Y372500D01*
X340990D01*
Y378500D01*
X339760D01*
Y380336D01*
X339683Y380726D01*
X339461Y381057D01*
X337980Y382538D01*
X338172Y383000D01*
X340990D01*
Y389000D01*
X339520D01*
Y397418D01*
X339442Y397808D01*
X339221Y398139D01*
X334631Y402729D01*
X334640Y402860D01*
X335121Y403487D01*
X335423Y404217D01*
X335526Y405000D01*
X335423Y405783D01*
X335121Y406513D01*
X334640Y407140D01*
X334013Y407620D01*
X333283Y407923D01*
X332500Y408026D01*
D02*
G37*
G36*
X279749Y390375D02*
X277499D01*
Y387375D01*
X279749D01*
Y390375D01*
D02*
G37*
G36*
X350770Y389500D02*
X348520D01*
Y386500D01*
X350770D01*
Y389500D01*
D02*
G37*
G36*
X347520D02*
X345270D01*
Y386500D01*
X347520D01*
Y389500D01*
D02*
G37*
G36*
X309500Y392750D02*
X306500D01*
X305000Y391250D01*
Y387750D01*
X305029Y387721D01*
X301828Y384520D01*
X288325D01*
X288121Y385013D01*
X287640Y385640D01*
X287013Y386121D01*
X286283Y386423D01*
X285500Y386526D01*
X284717Y386423D01*
X283987Y386121D01*
X283360Y385640D01*
X282879Y385013D01*
X282577Y384283D01*
X282474Y383500D01*
X282577Y382717D01*
X282879Y381987D01*
X283360Y381360D01*
X283987Y380879D01*
X284717Y380577D01*
X285500Y380474D01*
X286283Y380577D01*
X287013Y380879D01*
X287640Y381360D01*
X288121Y381987D01*
X288325Y382480D01*
X302250D01*
X302640Y382558D01*
X302971Y382779D01*
X306471Y386279D01*
X306500Y386250D01*
X309500D01*
X311000Y387750D01*
Y388480D01*
X316000D01*
Y386000D01*
X322000D01*
Y392500D01*
X316000D01*
Y390520D01*
X311000D01*
Y391250D01*
X309500Y392750D01*
D02*
G37*
G36*
X318500Y379500D02*
X317250D01*
X315500Y377750D01*
Y376250D01*
X318500D01*
Y379500D01*
D02*
G37*
G36*
X348020Y386000D02*
D01*
Y385500D01*
X345270D01*
Y382500D01*
X346490D01*
Y379000D01*
X345270D01*
Y376000D01*
X348020D01*
X350770D01*
Y379000D01*
X349549D01*
Y382500D01*
X350770D01*
Y385500D01*
X348020D01*
Y386000D01*
D02*
G37*
G36*
X289500Y380026D02*
X288717Y379923D01*
X287987Y379621D01*
X287360Y379140D01*
X286879Y378513D01*
X286577Y377783D01*
X286474Y377000D01*
X286577Y376217D01*
X286879Y375487D01*
X287360Y374860D01*
X287987Y374379D01*
X288717Y374077D01*
X288782Y374069D01*
X288860Y373898D01*
X288895Y373550D01*
X288360Y373140D01*
X287879Y372513D01*
X287675Y372020D01*
X279249D01*
Y374125D01*
X274749D01*
Y368125D01*
X279249D01*
Y369980D01*
X287675D01*
X287879Y369487D01*
X288360Y368860D01*
X288987Y368379D01*
X289717Y368077D01*
X290500Y367974D01*
X291283Y368077D01*
X292013Y368379D01*
X292640Y368860D01*
X293121Y369487D01*
X293423Y370217D01*
X293526Y371000D01*
X293423Y371783D01*
X293121Y372513D01*
X292640Y373140D01*
X292013Y373621D01*
X291283Y373923D01*
X291218Y373931D01*
X291140Y374102D01*
X291106Y374450D01*
X291640Y374860D01*
X292121Y375487D01*
X292325Y375980D01*
X294500D01*
Y374500D01*
X296000Y373000D01*
X299000D01*
X300500Y374500D01*
Y378000D01*
X299000Y379500D01*
X296000D01*
X294520Y378020D01*
X292325D01*
X292121Y378513D01*
X291640Y379140D01*
X291013Y379621D01*
X290283Y379923D01*
X289500Y380026D01*
D02*
G37*
G36*
X347520Y375000D02*
X345270D01*
Y372000D01*
X347520D01*
Y375000D01*
D02*
G37*
G36*
X311000Y379250D02*
X305000D01*
Y374192D01*
X302544Y371736D01*
X302323Y371406D01*
X302246Y371015D01*
Y370492D01*
X301717Y370423D01*
X300987Y370121D01*
X300360Y369640D01*
X299880Y369013D01*
X299577Y368283D01*
X299474Y367500D01*
X299577Y366717D01*
X299880Y365987D01*
X300360Y365360D01*
X300987Y364879D01*
X301717Y364577D01*
X302500Y364474D01*
X303283Y364577D01*
X304013Y364879D01*
X304640Y365360D01*
X305120Y365987D01*
X305423Y366717D01*
X305526Y367500D01*
X305423Y368283D01*
X305120Y369013D01*
X304640Y369640D01*
X304285Y369912D01*
Y370593D01*
X306442Y372750D01*
X311000D01*
Y379250D01*
D02*
G37*
G36*
X374000Y355880D02*
X372996Y355747D01*
X372060Y355360D01*
X371257Y354743D01*
X370640Y353940D01*
X370253Y353004D01*
X370120Y352000D01*
X370253Y350996D01*
X370640Y350060D01*
X371257Y349257D01*
X372060Y348640D01*
X372996Y348253D01*
X374000Y348120D01*
X375004Y348253D01*
X375940Y348640D01*
X376743Y349257D01*
X377360Y350060D01*
X377747Y350996D01*
X377880Y352000D01*
X377747Y353004D01*
X377360Y353940D01*
X376743Y354743D01*
X375940Y355360D01*
X375004Y355747D01*
X374000Y355880D01*
D02*
G37*
G36*
X354000D02*
X352996Y355747D01*
X352060Y355360D01*
X351257Y354743D01*
X350640Y353940D01*
X350253Y353004D01*
X350120Y352000D01*
X350253Y350996D01*
X350640Y350060D01*
X351257Y349257D01*
X352060Y348640D01*
X352996Y348253D01*
X354000Y348120D01*
X355004Y348253D01*
X355940Y348640D01*
X356743Y349257D01*
X357360Y350060D01*
X357747Y350996D01*
X357880Y352000D01*
X357747Y353004D01*
X357360Y353940D01*
X356743Y354743D01*
X355940Y355360D01*
X355004Y355747D01*
X354000Y355880D01*
D02*
G37*
G36*
X344000D02*
X342996Y355747D01*
X342060Y355360D01*
X341257Y354743D01*
X340640Y353940D01*
X340253Y353004D01*
X340120Y352000D01*
X340253Y350996D01*
X340640Y350060D01*
X341257Y349257D01*
X342060Y348640D01*
X342996Y348253D01*
X344000Y348120D01*
X345004Y348253D01*
X345940Y348640D01*
X346743Y349257D01*
X347360Y350060D01*
X347747Y350996D01*
X347880Y352000D01*
X347747Y353004D01*
X347360Y353940D01*
X346743Y354743D01*
X345940Y355360D01*
X345004Y355747D01*
X344000Y355880D01*
D02*
G37*
G36*
X334000D02*
X332996Y355747D01*
X332060Y355360D01*
X331257Y354743D01*
X330640Y353940D01*
X330253Y353004D01*
X330121Y352000D01*
X330253Y350996D01*
X330640Y350060D01*
X331257Y349257D01*
X332060Y348640D01*
X332996Y348253D01*
X334000Y348120D01*
X335004Y348253D01*
X335940Y348640D01*
X336743Y349257D01*
X337360Y350060D01*
X337748Y350996D01*
X337880Y352000D01*
X337748Y353004D01*
X337360Y353940D01*
X336743Y354743D01*
X335940Y355360D01*
X335004Y355747D01*
X334000Y355880D01*
D02*
G37*
G36*
X324000D02*
X322996Y355747D01*
X322060Y355360D01*
X321257Y354743D01*
X320640Y353940D01*
X320253Y353004D01*
X320120Y352000D01*
X320253Y350996D01*
X320640Y350060D01*
X321257Y349257D01*
X322060Y348640D01*
X322996Y348253D01*
X324000Y348120D01*
X325004Y348253D01*
X325940Y348640D01*
X326743Y349257D01*
X327360Y350060D01*
X327747Y350996D01*
X327880Y352000D01*
X327747Y353004D01*
X327360Y353940D01*
X326743Y354743D01*
X325940Y355360D01*
X325004Y355747D01*
X324000Y355880D01*
D02*
G37*
G36*
X368318Y351500D02*
X364500D01*
Y347682D01*
X365135Y347765D01*
X366192Y348203D01*
X367100Y348900D01*
X367797Y349808D01*
X368235Y350865D01*
X368318Y351500D01*
D02*
G37*
G36*
X363500D02*
X359682D01*
X359765Y350865D01*
X360203Y349808D01*
X360900Y348900D01*
X361808Y348203D01*
X362865Y347765D01*
X363500Y347682D01*
Y351500D01*
D02*
G37*
%LPD*%
D10*
X269519Y381001D02*
Y390875D01*
Y381001D02*
X269520Y381000D01*
X266769Y413539D02*
X270230Y417000D01*
X266769Y407711D02*
X267999Y406481D01*
X271519D01*
X266769Y407711D02*
Y413539D01*
X271519Y406481D02*
X273000Y405000D01*
X270230Y417000D02*
X285952D01*
X269519Y390875D02*
Y391625D01*
X273000Y395106D01*
Y405000D01*
X295004Y407441D02*
X295201D01*
X293929Y408516D02*
X295004Y407441D01*
X293929Y408516D02*
Y416571D01*
X293500Y417000D02*
X293929Y416571D01*
X301500Y420000D02*
X302268Y420767D01*
Y423078D01*
X303949Y424759D01*
X293927Y401407D02*
X297972Y405452D01*
X291882Y401407D02*
X293927D01*
X279164Y414125D02*
X291882Y401407D01*
X273019Y414125D02*
X279164D01*
X276999Y371125D02*
X277124Y371000D01*
X290500D01*
X324346Y467000D02*
Y470654D01*
X322000Y473000D02*
X324346Y470654D01*
X366500Y421500D02*
X367000Y421000D01*
X367413Y406394D02*
Y409106D01*
X373807Y415500D01*
Y418807D01*
X374500Y419500D01*
X367000Y411252D02*
Y421000D01*
X364854Y409106D02*
X367000Y411252D01*
X364854Y406394D02*
Y409106D01*
X361836Y382500D02*
X374914D01*
X367413Y403681D02*
Y406394D01*
Y403681D02*
X375500Y395595D01*
Y383086D02*
Y395595D01*
X374914Y382500D02*
X375500Y383086D01*
X358750Y386000D02*
X360293Y384457D01*
X355500Y386000D02*
X358750D01*
X360293Y384043D02*
Y384457D01*
Y384043D02*
X361836Y382500D01*
X346230Y401965D02*
X355516D01*
X369480Y388000D02*
X370230D01*
X355516Y401965D02*
X369480Y388000D01*
X364000Y386000D02*
Y386750D01*
X362000Y388000D02*
X362750D01*
X364000Y386750D01*
X349535Y400465D02*
X362000Y388000D01*
X345609Y400465D02*
X349535D01*
X313000Y453500D02*
X316472Y456972D01*
Y467000D01*
X300531Y412575D02*
X311500Y423543D01*
X313000Y421303D02*
Y453500D01*
X311500Y423543D02*
Y463566D01*
X312444Y465138D02*
Y466910D01*
X312158Y464851D02*
X312444Y465138D01*
Y466910D02*
X312535Y467000D01*
X311500Y463566D02*
X312158Y464224D01*
X302772Y411075D02*
X313000Y421303D01*
X312158Y464224D02*
Y464851D01*
X308000Y389250D02*
Y389500D01*
X302250Y383500D02*
X308000Y389250D01*
X285500Y383500D02*
X302250D01*
X297250Y390000D02*
X297500Y389750D01*
X284000Y390000D02*
X297250D01*
X332500Y403418D02*
X338500Y397418D01*
X332500Y403418D02*
Y405000D01*
X338500Y386241D02*
Y397418D01*
Y386241D02*
X338740Y386000D01*
X332027Y390897D02*
X335991Y386934D01*
Y383086D02*
Y386934D01*
Y383086D02*
X338740Y380336D01*
X346941Y406394D02*
Y409106D01*
X343813Y412235D02*
X346941Y409106D01*
X341765Y412235D02*
X343813D01*
X341000Y413000D02*
X341765Y412235D01*
X341153Y407042D02*
Y407042D01*
X323240Y423661D02*
Y424866D01*
X267500Y363270D02*
X269520Y361250D01*
X267500Y363270D02*
Y367480D01*
X269520Y380250D02*
Y381000D01*
X266769Y377499D02*
X269520Y380250D01*
X266769Y368211D02*
Y377499D01*
Y368211D02*
X267500Y367480D01*
X270769Y412625D02*
X271519D01*
X273019Y414125D01*
X269519Y410625D02*
Y411375D01*
X346778Y482500D02*
X348778Y480500D01*
X346778Y481750D02*
Y482500D01*
Y481750D02*
X348028Y480500D01*
X367522Y483349D02*
X368555D01*
Y480500D02*
Y483349D01*
X367522D02*
X368555Y482316D01*
Y480500D02*
Y482316D01*
X308000Y375750D02*
Y376000D01*
X303265Y371015D02*
X308000Y375750D01*
X303265Y368265D02*
Y371015D01*
X302500Y367500D02*
X303265Y368265D01*
X355925Y469914D02*
X356510Y470500D01*
X355925Y467097D02*
Y469914D01*
X356510Y470500D02*
X366000D01*
X296750Y377000D02*
X297500Y376250D01*
X289500Y377000D02*
X296750D01*
X348028Y480500D02*
X348778D01*
X359736Y406394D02*
Y418579D01*
X357000Y421315D02*
X359736Y418579D01*
X357000Y421315D02*
Y421500D01*
X362295Y406394D02*
Y412713D01*
X363500Y413918D01*
Y415000D01*
X357260Y406477D02*
Y413240D01*
X355500Y415000D02*
Y415000D01*
Y415000D02*
X357260Y413240D01*
X352000Y413550D02*
Y418500D01*
Y413550D02*
X354618Y410932D01*
Y406394D02*
Y410932D01*
X349500Y421000D02*
X352000Y418500D01*
X347000Y415500D02*
X352029Y410470D01*
Y406423D02*
Y410470D01*
X357177Y406394D02*
X357260Y406477D01*
X352029Y406423D02*
X352059Y406394D01*
X320000Y411500D02*
X334573D01*
X345609Y400465D01*
X341153Y407042D02*
X346230Y401965D01*
X316260Y400870D02*
X326233Y390897D01*
X332027D01*
X338740Y375500D02*
Y380336D01*
X316260Y400870D02*
Y402839D01*
X293712Y424760D02*
X294500D01*
X285952Y417000D02*
X293712Y424760D01*
X269519Y411375D02*
X270769Y412625D01*
X303949Y424759D02*
X304736D01*
X315760Y417709D02*
Y424866D01*
Y417709D02*
X320000Y413469D01*
Y411500D02*
Y413469D01*
X325215Y422980D02*
X341153Y407042D01*
X323240Y423661D02*
X323921Y422980D01*
X325215D01*
X308000Y389500D02*
X318750D01*
X319000Y389250D01*
X297500Y389750D02*
Y401079D01*
X301303Y404882D01*
X301500D01*
X297972Y405452D02*
Y406669D01*
X277000Y352000D02*
X290832D01*
X295179Y347654D01*
X309653D01*
X314000Y352000D01*
X277086Y357750D02*
X319174D01*
X334010Y372586D01*
X335490Y375500D02*
X338740D01*
X273336Y354000D02*
X277086Y357750D01*
X334010Y372586D02*
Y374020D01*
X270770Y354000D02*
X273336D01*
X334010Y374020D02*
X335490Y375500D01*
X269520Y352000D02*
Y352750D01*
X270770Y354000D01*
X301303Y410000D02*
X301500D01*
X297972Y406669D02*
X301303Y410000D01*
X269227Y420793D02*
Y430175D01*
X380444Y486329D02*
Y486730D01*
X381944Y463444D02*
Y484829D01*
X379194Y487980D02*
X380444Y486730D01*
X378444Y487980D02*
X379194D01*
X380444Y486329D02*
X381944Y484829D01*
X375000Y456500D02*
X381944Y463444D01*
X342063Y467000D02*
X342154Y466910D01*
Y464512D02*
Y466910D01*
Y464512D02*
X345777Y460889D01*
X348611D01*
X353000Y456500D01*
X346941Y429000D02*
Y429300D01*
X346741Y429500D02*
X346941Y429300D01*
X339500Y429500D02*
X346741D01*
X340094Y462906D02*
Y467000D01*
Y462906D02*
X346500Y456500D01*
X296472Y408516D02*
Y408516D01*
X298728Y410772D01*
Y411989D02*
X299314Y412575D01*
X298728Y410772D02*
Y411989D01*
X299314Y412575D02*
X300531D01*
X295398Y407441D02*
X296472Y408516D01*
X302772Y411075D02*
Y411075D01*
X301697Y410000D02*
X302772Y411075D01*
X301500Y410000D02*
X301697D01*
X326315Y457457D02*
X352059Y431713D01*
X326315Y457457D02*
Y467000D01*
X352059Y429000D02*
Y431713D01*
X328283Y458048D02*
X354618Y431713D01*
Y429000D02*
Y431713D01*
X328283Y458048D02*
Y467000D01*
X330252Y458638D02*
Y467000D01*
X357177Y429000D02*
Y431713D01*
X330252Y458638D02*
X357177Y431713D01*
X332220Y459229D02*
X359736Y431713D01*
X332220Y459229D02*
Y467000D01*
X359736Y429000D02*
Y431713D01*
X362295Y429000D02*
Y431713D01*
X334189Y459819D02*
Y467000D01*
Y459819D02*
X362295Y431713D01*
X364854Y429000D02*
Y431713D01*
X336157Y460410D02*
X364854Y431713D01*
X336157Y460410D02*
Y467000D01*
X296306Y473638D02*
X310264D01*
X289444Y480500D02*
X290194D01*
X304695Y475138D02*
X312701D01*
X299333Y480500D02*
X300083D01*
X310264Y473638D02*
X314413Y469488D01*
Y467091D02*
X314504Y467000D01*
X290194Y480500D02*
X291444Y479250D01*
Y478500D02*
X296306Y473638D01*
X314413Y467091D02*
Y469488D01*
X291444Y478500D02*
Y479250D01*
X318351Y467091D02*
Y469488D01*
X301333Y478500D02*
Y479250D01*
X300083Y480500D02*
X301333Y479250D01*
X312701Y475138D02*
X318351Y469488D01*
X301333Y478500D02*
X304695Y475138D01*
X318351Y467091D02*
X318441Y467000D01*
X309222Y480500D02*
X309972D01*
X313972Y476500D01*
X325000D02*
X326989Y474511D01*
X338126Y467000D02*
X340094D01*
X326989Y474511D02*
X336489D01*
X313972Y476500D02*
X325000D01*
X338035Y467091D02*
Y472964D01*
Y467091D02*
X338126Y467000D01*
X336489Y474511D02*
X338035Y472964D01*
X327825Y476011D02*
X337419D01*
X323336Y480500D02*
X327825Y476011D01*
X343653Y469151D02*
X343949Y468856D01*
X338041Y477511D02*
X345910Y469642D01*
X329000Y480500D02*
X329750D01*
X356667Y475167D02*
Y479250D01*
X351897Y470397D02*
X356667Y475167D01*
X357064Y473175D02*
X361230D01*
X353957Y470068D02*
X357064Y473175D01*
X353866Y467006D02*
X353957Y467097D01*
Y470068D01*
X319111Y480500D02*
X323336D01*
X343949Y467085D02*
X344039Y466994D01*
X337419Y476011D02*
X342979Y470451D01*
X342979D01*
X343653Y469151D02*
Y469776D01*
X342979Y470451D02*
X343653Y469776D01*
X343949Y467085D02*
Y468856D01*
X339837Y477836D02*
Y479552D01*
Y477836D02*
X347869Y469803D01*
Y467097D02*
Y469803D01*
X345910Y467091D02*
Y469642D01*
X329750Y480500D02*
X332739Y477511D01*
X338041D01*
X345910Y467091D02*
X346000Y467000D01*
X338889Y480500D02*
X339837Y479552D01*
X347869Y467097D02*
X347960Y467006D01*
X348778Y480500D02*
X349929Y479349D01*
Y467006D02*
Y479349D01*
X357917Y480500D02*
X358667D01*
X356667Y479250D02*
X357917Y480500D01*
X351897Y467006D02*
Y470397D01*
X366555Y478500D02*
Y479250D01*
X367805Y480500D01*
X361230Y473175D02*
X366555Y478500D01*
X367805Y480500D02*
X368555D01*
X366000Y470500D02*
X375037Y479536D01*
X355834Y467006D02*
X355925Y467097D01*
X375037Y479536D02*
X377481D01*
X378444Y480500D01*
D17*
X364102Y454599D02*
D03*
X302291D02*
D03*
D18*
X357803Y467006D02*
D03*
X355834D02*
D03*
X353866D02*
D03*
X351897D02*
D03*
X349929D02*
D03*
X347960D02*
D03*
X346000Y467000D02*
D03*
X344039Y466994D02*
D03*
X342063Y467000D02*
D03*
X340094D02*
D03*
X338126D02*
D03*
X336157D02*
D03*
X334189D02*
D03*
X332220D02*
D03*
X330252D02*
D03*
X328283D02*
D03*
X326315D02*
D03*
X324346D02*
D03*
X322378D02*
D03*
X320409D02*
D03*
X318441D02*
D03*
X316472D02*
D03*
X314504D02*
D03*
X312535D02*
D03*
X310567D02*
D03*
X308590D02*
D03*
D19*
X301500Y404882D02*
D03*
Y410000D02*
D03*
X295201Y407441D02*
D03*
D20*
X319500Y433134D02*
D03*
X323240Y424866D02*
D03*
X315760D02*
D03*
D21*
X316260Y402839D02*
D03*
X323740D02*
D03*
X320000Y411500D02*
D03*
D22*
X304736Y432239D02*
D03*
X304736Y424759D02*
D03*
X294500Y424760D02*
D03*
X294500Y428500D02*
D03*
X294500Y432240D02*
D03*
D23*
X338740Y386000D02*
D03*
X331260D02*
D03*
X338740Y375500D02*
D03*
X331260D02*
D03*
X269519Y440250D02*
D03*
X276999D02*
D03*
X277000Y420500D02*
D03*
X269520D02*
D03*
X269519Y410625D02*
D03*
X276999D02*
D03*
X269519Y400750D02*
D03*
X276999D02*
D03*
X269519Y390875D02*
D03*
X276999D02*
D03*
X277000Y381000D02*
D03*
X269520D02*
D03*
X269519Y371125D02*
D03*
X276999D02*
D03*
X277000Y361250D02*
D03*
X269520D02*
D03*
X277000Y352000D02*
D03*
X269520D02*
D03*
X355500Y375500D02*
D03*
X348020D02*
D03*
X355500Y386000D02*
D03*
X348020D02*
D03*
X371480D02*
D03*
X364000D02*
D03*
X276707Y430175D02*
D03*
X269227D02*
D03*
X364000Y375500D02*
D03*
X371480D02*
D03*
D24*
X346941Y406394D02*
D03*
X349500D02*
D03*
X352059D02*
D03*
X354618D02*
D03*
X357177D02*
D03*
X359736D02*
D03*
X362295D02*
D03*
X364854D02*
D03*
X367413D02*
D03*
X369972D02*
D03*
X346941Y429000D02*
D03*
X349500D02*
D03*
X352059D02*
D03*
X354618D02*
D03*
X357177D02*
D03*
X359736D02*
D03*
X362295D02*
D03*
X364854D02*
D03*
X367413D02*
D03*
X369972D02*
D03*
D25*
X319000Y375750D02*
D03*
X308000Y389500D02*
D03*
X297500Y376250D02*
D03*
D26*
X319000Y389250D02*
D03*
X308000Y376000D02*
D03*
X297500Y389750D02*
D03*
D27*
X289444Y487980D02*
D03*
Y480500D02*
D03*
X299333Y487980D02*
D03*
Y480500D02*
D03*
X309222Y487980D02*
D03*
Y480500D02*
D03*
X319111Y487980D02*
D03*
Y480500D02*
D03*
X329000Y487980D02*
D03*
Y480500D02*
D03*
X338889Y487980D02*
D03*
Y480500D02*
D03*
X348778Y487980D02*
D03*
Y480500D02*
D03*
X358667Y487980D02*
D03*
Y480500D02*
D03*
X368555Y487980D02*
D03*
Y480500D02*
D03*
X378444Y487980D02*
D03*
Y480500D02*
D03*
D43*
X264769Y406250D02*
X269519Y401500D01*
X264769Y406250D02*
Y444269D01*
X269500Y449000D01*
X269519Y400750D02*
Y401500D01*
Y440250D02*
X274000Y444731D01*
X321000Y441000D02*
Y458000D01*
X383500Y384500D02*
Y448000D01*
X379500Y384257D02*
Y388000D01*
X374743Y379500D02*
X379500Y384257D01*
X369109Y379500D02*
X374743D01*
X375000Y456500D02*
X383500Y448000D01*
X371480Y375500D02*
X372039Y376059D01*
X368230Y378621D02*
X369109Y379500D01*
X364000Y375500D02*
Y376184D01*
X367059Y376934D02*
X368230Y378106D01*
X364750Y376934D02*
X367059D01*
X375059Y376059D02*
X383500Y384500D01*
X368230Y378106D02*
Y378621D01*
X372039Y376059D02*
X375059D01*
X293713Y432240D02*
X294500D01*
X291527Y434426D02*
X293713Y432240D01*
X288574Y434426D02*
X291527D01*
X288000Y435000D02*
X288574Y434426D01*
X276999Y440250D02*
X295938D01*
X303949Y432239D01*
X319500Y433134D02*
Y438500D01*
X276999Y400750D02*
Y410625D01*
X276874Y410500D02*
X276999Y410625D01*
X275500Y410500D02*
X276874D01*
X271891Y377000D02*
X273000Y378109D01*
Y386126D01*
X269519Y371125D02*
Y375828D01*
X273000Y386126D02*
X276999Y390125D01*
X269519Y375828D02*
X270691Y377000D01*
X276999Y390125D02*
Y390875D01*
X270691Y377000D02*
X271891D01*
X367207Y429207D02*
X367413Y429000D01*
X367207Y429207D02*
Y436293D01*
X367000Y436500D02*
X367207Y436293D01*
X303949Y432239D02*
X304736D01*
X364000Y376184D02*
X364750Y376934D01*
X277000Y361250D02*
X304750D01*
X369990Y374010D02*
X371480Y375500D01*
X369990Y373260D02*
Y374010D01*
X364000Y367270D02*
X369990Y373260D01*
X355500Y375500D02*
X364000D01*
X273000Y464500D02*
X276999Y460501D01*
Y440250D02*
Y460501D01*
X328926Y398074D02*
X330500Y396500D01*
X323740Y400870D02*
Y402839D01*
X326536Y398074D02*
X328926D01*
X323740Y400870D02*
X326536Y398074D01*
X279078Y434175D02*
X284754Y428500D01*
X269519Y439500D02*
X274844Y434175D01*
X269519Y439500D02*
Y440250D01*
X284754Y428500D02*
X294500D01*
X274844Y434175D02*
X279078D01*
X319000Y375500D02*
Y375750D01*
X304750Y361250D02*
X319000Y375500D01*
X364000Y366000D02*
Y367270D01*
Y352000D02*
Y366000D01*
X348020Y374750D02*
Y375500D01*
Y374750D02*
X356770Y366000D01*
X364000D01*
X348020Y375500D02*
Y386000D01*
X331260Y375500D02*
Y386000D01*
X319000Y375750D02*
X319125Y375625D01*
X331135D01*
X331260Y375500D01*
X269519Y370375D02*
Y371125D01*
Y370375D02*
X276250Y363644D01*
X276999Y390875D02*
Y400750D01*
X268154Y460532D02*
X274000Y454686D01*
X268154Y460532D02*
Y479654D01*
X274000Y444731D02*
Y454686D01*
X268154Y479654D02*
X273000Y484500D01*
X285214D01*
X288694Y487980D01*
X289444D01*
X368555D02*
X378444D01*
X358667D02*
X368555D01*
X348778D02*
X358667D01*
X338889D02*
X348778D01*
X329000D02*
X338889D01*
X319111D02*
X329000D01*
X309222D02*
X319111D01*
X299333D02*
X309222D01*
X289444D02*
X299333D01*
D44*
X273000Y464500D02*
D03*
D45*
Y474500D02*
D03*
Y484500D02*
D03*
X374000Y352000D02*
D03*
X364000D02*
D03*
X354000D02*
D03*
X344000D02*
D03*
X334000D02*
D03*
X324000D02*
D03*
X314000D02*
D03*
D46*
X304000D02*
D03*
D47*
X269500Y449000D02*
D03*
X371480Y386000D02*
D03*
X293500Y417000D02*
D03*
X301500Y420000D02*
D03*
X290500Y371000D02*
D03*
X322000Y473000D02*
D03*
X366500Y421500D02*
D03*
X321000Y441000D02*
D03*
X374500Y419500D02*
D03*
X379500Y388000D02*
D03*
X288000Y435000D02*
D03*
X321000Y458000D02*
D03*
X275500Y410500D02*
D03*
X277000Y352000D02*
D03*
Y381000D02*
D03*
Y420500D02*
D03*
X285500Y383500D02*
D03*
X269000Y420500D02*
D03*
X284000Y390000D02*
D03*
X367000Y436500D02*
D03*
X309222Y480500D02*
D03*
X277000Y430000D02*
D03*
X276999Y441000D02*
D03*
X332500Y405000D02*
D03*
X330500Y396500D02*
D03*
X341000Y413000D02*
D03*
X277000Y361500D02*
D03*
X331260Y386000D02*
D03*
X348778Y480500D02*
D03*
X368555D02*
D03*
X302500Y367500D02*
D03*
X289500Y377000D02*
D03*
X363500Y415000D02*
D03*
X357000Y421500D02*
D03*
X355500Y415000D02*
D03*
X349500Y421000D02*
D03*
X347000Y415500D02*
D03*
X375000Y456500D02*
D03*
X353000D02*
D03*
X339500Y429500D02*
D03*
X346500Y456500D02*
D03*
M02*
