G04*
G04 #@! TF.GenerationSoftware,Altium Limited,Altium Designer,20.0.9 (164)*
G04*
G04 Layer_Color=128*
%FSLAX25Y25*%
%MOIN*%
G70*
G01*
G75*
%ADD48C,0.00200*%
D48*
X271228Y464500D02*
X274772D01*
X273000Y462728D02*
Y466272D01*
X271228Y474500D02*
X274772D01*
X273000Y472728D02*
Y476272D01*
X271228Y484500D02*
X274772D01*
X273000Y482728D02*
Y486272D01*
X372228Y352000D02*
X375772D01*
X374000Y350228D02*
Y353772D01*
X362228Y352000D02*
X365772D01*
X364000Y350228D02*
Y353772D01*
X352228Y352000D02*
X355772D01*
X354000Y350228D02*
Y353772D01*
X342228Y352000D02*
X345772D01*
X344000Y350228D02*
Y353772D01*
X332228Y352000D02*
X335772D01*
X334000Y350228D02*
Y353772D01*
X322228Y352000D02*
X325772D01*
X324000Y350228D02*
Y353772D01*
X312228Y352000D02*
X315772D01*
X314000Y350228D02*
Y353772D01*
X302228Y352000D02*
X305772D01*
X304000Y350228D02*
Y353772D01*
X268100Y449000D02*
X270900D01*
X269500Y447600D02*
Y450400D01*
X370080Y386000D02*
X372880D01*
X371480Y384600D02*
Y387400D01*
X292100Y417000D02*
X294900D01*
X293500Y415600D02*
Y418400D01*
X300100Y420000D02*
X302900D01*
X301500Y418600D02*
Y421400D01*
X289100Y371000D02*
X291900D01*
X290500Y369600D02*
Y372400D01*
X320600Y473000D02*
X323400D01*
X322000Y471600D02*
Y474400D01*
X365100Y421500D02*
X367900D01*
X366500Y420100D02*
Y422900D01*
X319600Y441000D02*
X322400D01*
X321000Y439600D02*
Y442400D01*
X373100Y419500D02*
X375900D01*
X374500Y418100D02*
Y420900D01*
X378100Y388000D02*
X380900D01*
X379500Y386600D02*
Y389400D01*
X286600Y435000D02*
X289400D01*
X288000Y433600D02*
Y436400D01*
X319600Y458000D02*
X322400D01*
X321000Y456600D02*
Y459400D01*
X274100Y410500D02*
X276900D01*
X275500Y409100D02*
Y411900D01*
X275600Y352000D02*
X278400D01*
X277000Y350600D02*
Y353400D01*
X275600Y381000D02*
X278400D01*
X277000Y379600D02*
Y382400D01*
X275600Y420500D02*
X278400D01*
X277000Y419100D02*
Y421900D01*
X284100Y383500D02*
X286900D01*
X285500Y382100D02*
Y384900D01*
X267600Y420500D02*
X270400D01*
X269000Y419100D02*
Y421900D01*
X282600Y390000D02*
X285400D01*
X284000Y388600D02*
Y391400D01*
X365600Y436500D02*
X368400D01*
X367000Y435100D02*
Y437900D01*
X307822Y480500D02*
X310622D01*
X309222Y479100D02*
Y481900D01*
X275600Y430000D02*
X278400D01*
X277000Y428600D02*
Y431400D01*
X275599Y441000D02*
X278399D01*
X276999Y439600D02*
Y442400D01*
X331100Y405000D02*
X333900D01*
X332500Y403600D02*
Y406400D01*
X329100Y396500D02*
X331900D01*
X330500Y395100D02*
Y397900D01*
X339600Y413000D02*
X342400D01*
X341000Y411600D02*
Y414400D01*
X275600Y361500D02*
X278400D01*
X277000Y360100D02*
Y362900D01*
X329860Y386000D02*
X332660D01*
X331260Y384600D02*
Y387400D01*
X347378Y480500D02*
X350178D01*
X348778Y479100D02*
Y481900D01*
X367155Y480500D02*
X369955D01*
X368555Y479100D02*
Y481900D01*
X301100Y367500D02*
X303900D01*
X302500Y366100D02*
Y368900D01*
X288100Y377000D02*
X290900D01*
X289500Y375600D02*
Y378400D01*
X362100Y415000D02*
X364900D01*
X363500Y413600D02*
Y416400D01*
X355600Y421500D02*
X358400D01*
X357000Y420100D02*
Y422900D01*
X354100Y415000D02*
X356900D01*
X355500Y413600D02*
Y416400D01*
X348100Y421000D02*
X350900D01*
X349500Y419600D02*
Y422400D01*
X345600Y415500D02*
X348400D01*
X347000Y414100D02*
Y416900D01*
X373600Y456500D02*
X376400D01*
X375000Y455100D02*
Y457900D01*
X351600Y456500D02*
X354400D01*
X353000Y455100D02*
Y457900D01*
X338100Y429500D02*
X340900D01*
X339500Y428100D02*
Y430900D01*
X345100Y456500D02*
X347900D01*
X346500Y455100D02*
Y457900D01*
M02*
