G04*
G04 #@! TF.GenerationSoftware,Altium Limited,Altium Designer,20.0.9 (164)*
G04*
G04 Layer_Color=65535*
%FSLAX25Y25*%
%MOIN*%
G70*
G01*
G75*
%ADD10C,0.01000*%
%ADD11C,0.00980*%
%ADD12C,0.00984*%
%ADD13C,0.01181*%
%ADD14C,0.00787*%
%ADD15C,0.00600*%
%ADD16C,0.00800*%
G36*
X263563Y492495D02*
X263613Y492491D01*
X263669Y492482D01*
X263734Y492472D01*
X263808Y492458D01*
X263881Y492445D01*
X263960Y492421D01*
X264043Y492398D01*
X264131Y492366D01*
X264219Y492329D01*
X264306Y492287D01*
X264394Y492237D01*
X264477Y492181D01*
X264482Y492177D01*
X264496Y492167D01*
X264519Y492149D01*
X264547Y492121D01*
X264584Y492093D01*
X264621Y492052D01*
X264662Y492006D01*
X264704Y491955D01*
X264745Y491899D01*
X264787Y491835D01*
X264824Y491765D01*
X264861Y491691D01*
X264889Y491613D01*
X264912Y491525D01*
X264926Y491437D01*
X264930Y491340D01*
Y491317D01*
X264926Y491294D01*
Y491262D01*
X264921Y491225D01*
X264912Y491179D01*
X264898Y491128D01*
X264884Y491072D01*
X264865Y491017D01*
X264838Y490957D01*
X264810Y490897D01*
X264773Y490841D01*
X264732Y490781D01*
X264681Y490726D01*
X264621Y490675D01*
X264556Y490629D01*
X265757Y490366D01*
Y489747D01*
X262560Y490449D01*
Y491036D01*
X262805Y490985D01*
X262796Y490994D01*
X262777Y491012D01*
X262750Y491049D01*
X262713Y491091D01*
X262676Y491142D01*
X262634Y491197D01*
X262602Y491257D01*
X262569Y491322D01*
X262565Y491331D01*
X262560Y491350D01*
X262546Y491387D01*
X262537Y491433D01*
X262523Y491488D01*
X262509Y491548D01*
X262505Y491622D01*
X262500Y491696D01*
Y491728D01*
X262505Y491756D01*
X262509Y491788D01*
X262514Y491821D01*
X262532Y491904D01*
X262560Y491996D01*
X262602Y492093D01*
X262629Y492144D01*
X262666Y492191D01*
X262703Y492237D01*
X262745Y492278D01*
X262750Y492283D01*
X262759Y492287D01*
X262773Y492297D01*
X262791Y492311D01*
X262814Y492329D01*
X262846Y492347D01*
X262883Y492366D01*
X262930Y492389D01*
X262976Y492408D01*
X263031Y492431D01*
X263091Y492449D01*
X263156Y492463D01*
X263225Y492482D01*
X263299Y492491D01*
X263382Y492495D01*
X263470Y492500D01*
X263475D01*
X263493D01*
X263526D01*
X263563Y492495D01*
D02*
G37*
G36*
X264879Y489368D02*
Y488744D01*
X262560Y489234D01*
Y489853D01*
X264879Y489368D01*
D02*
G37*
G36*
X265757Y489183D02*
Y488564D01*
X265194Y488679D01*
Y489303D01*
X265757Y489183D01*
D02*
G37*
G36*
X263299Y488088D02*
X263290Y488083D01*
X263267Y488074D01*
X263235Y488056D01*
X263193Y488032D01*
X263147Y488005D01*
X263101Y487972D01*
X263059Y487931D01*
X263027Y487889D01*
X263022Y487885D01*
X263013Y487866D01*
X263004Y487838D01*
X262990Y487802D01*
X262971Y487755D01*
X262962Y487700D01*
X262953Y487635D01*
X262948Y487561D01*
Y487524D01*
X262953Y487487D01*
X262962Y487436D01*
X262971Y487381D01*
X262985Y487321D01*
X263008Y487265D01*
X263040Y487215D01*
X263045Y487210D01*
X263054Y487201D01*
X263068Y487187D01*
X263087Y487169D01*
X263138Y487136D01*
X263165Y487127D01*
X263202Y487122D01*
X263207D01*
X263211D01*
X263239Y487127D01*
X263276Y487141D01*
X263313Y487169D01*
X263318Y487173D01*
X263322Y487178D01*
X263332Y487196D01*
X263346Y487219D01*
X263364Y487256D01*
X263387Y487302D01*
X263410Y487358D01*
X263433Y487432D01*
Y487436D01*
X263442Y487455D01*
X263452Y487487D01*
X263466Y487524D01*
X263479Y487566D01*
X263498Y487617D01*
X263540Y487732D01*
X263590Y487852D01*
X263636Y487968D01*
X263664Y488023D01*
X263687Y488069D01*
X263710Y488106D01*
X263729Y488139D01*
X263738Y488148D01*
X263761Y488171D01*
X263798Y488203D01*
X263849Y488240D01*
X263914Y488282D01*
X263992Y488314D01*
X264080Y488337D01*
X264126Y488342D01*
X264177Y488347D01*
X264182D01*
X264191D01*
X264205D01*
X264223Y488342D01*
X264274Y488337D01*
X264339Y488319D01*
X264413Y488296D01*
X264491Y488259D01*
X264570Y488208D01*
X264611Y488180D01*
X264648Y488143D01*
X264653Y488139D01*
X264662Y488130D01*
X264676Y488111D01*
X264694Y488088D01*
X264713Y488060D01*
X264736Y488023D01*
X264764Y487982D01*
X264791Y487931D01*
X264815Y487871D01*
X264842Y487811D01*
X264865Y487741D01*
X264889Y487663D01*
X264902Y487580D01*
X264916Y487492D01*
X264926Y487395D01*
X264930Y487293D01*
Y487252D01*
X264926Y487219D01*
Y487182D01*
X264921Y487141D01*
X264912Y487039D01*
X264889Y486933D01*
X264861Y486817D01*
X264819Y486711D01*
X264791Y486665D01*
X264764Y486619D01*
Y486614D01*
X264755Y486610D01*
X264736Y486582D01*
X264699Y486540D01*
X264648Y486494D01*
X264584Y486443D01*
X264510Y486397D01*
X264422Y486355D01*
X264320Y486323D01*
X264223Y486901D01*
X264228D01*
X264242Y486910D01*
X264265Y486919D01*
X264293Y486938D01*
X264325Y486956D01*
X264353Y486984D01*
X264385Y487016D01*
X264408Y487053D01*
X264413Y487058D01*
X264422Y487076D01*
X264436Y487109D01*
X264454Y487145D01*
X264468Y487196D01*
X264482Y487252D01*
X264491Y487316D01*
X264496Y487390D01*
Y487423D01*
X264491Y487460D01*
X264487Y487501D01*
X264477Y487547D01*
X264468Y487594D01*
X264450Y487640D01*
X264426Y487677D01*
X264422Y487681D01*
X264417Y487691D01*
X264403Y487704D01*
X264385Y487718D01*
X264339Y487746D01*
X264311Y487755D01*
X264279Y487760D01*
X264274D01*
X264265D01*
X264246Y487755D01*
X264228Y487751D01*
X264205Y487741D01*
X264182Y487723D01*
X264159Y487704D01*
X264136Y487677D01*
Y487672D01*
X264126Y487663D01*
X264117Y487644D01*
X264108Y487612D01*
X264089Y487566D01*
X264080Y487538D01*
X264066Y487501D01*
X264057Y487464D01*
X264043Y487423D01*
X264025Y487376D01*
X264011Y487321D01*
Y487316D01*
X264006Y487302D01*
X263997Y487279D01*
X263988Y487247D01*
X263974Y487210D01*
X263960Y487169D01*
X263928Y487072D01*
X263891Y486970D01*
X263844Y486868D01*
X263821Y486822D01*
X263798Y486776D01*
X263775Y486739D01*
X263752Y486706D01*
Y486702D01*
X263743Y486697D01*
X263720Y486670D01*
X263678Y486637D01*
X263627Y486596D01*
X263563Y486554D01*
X263489Y486517D01*
X263405Y486494D01*
X263359Y486489D01*
X263313Y486485D01*
X263309D01*
X263299D01*
X263281D01*
X263258Y486489D01*
X263230Y486494D01*
X263198Y486499D01*
X263119Y486522D01*
X263031Y486554D01*
X262981Y486577D01*
X262934Y486605D01*
X262883Y486637D01*
X262837Y486674D01*
X262786Y486716D01*
X262740Y486767D01*
X262736Y486771D01*
X262731Y486780D01*
X262717Y486794D01*
X262703Y486817D01*
X262685Y486845D01*
X262666Y486882D01*
X262643Y486924D01*
X262620Y486970D01*
X262597Y487021D01*
X262574Y487081D01*
X262555Y487141D01*
X262537Y487215D01*
X262523Y487289D01*
X262509Y487367D01*
X262505Y487455D01*
X262500Y487547D01*
Y487594D01*
X262505Y487631D01*
Y487672D01*
X262509Y487723D01*
X262514Y487774D01*
X262523Y487834D01*
X262546Y487958D01*
X262574Y488088D01*
X262620Y488213D01*
X262648Y488268D01*
X262680Y488323D01*
Y488328D01*
X262689Y488337D01*
X262699Y488351D01*
X262713Y488370D01*
X262759Y488416D01*
X262814Y488471D01*
X262888Y488531D01*
X262981Y488596D01*
X263082Y488652D01*
X263202Y488693D01*
X263299Y488088D01*
D02*
G37*
G36*
X263230Y486101D02*
X263258D01*
X263290Y486097D01*
X263364Y486078D01*
X263452Y486055D01*
X263540Y486018D01*
X263627Y485967D01*
X263669Y485940D01*
X263706Y485903D01*
X263710Y485898D01*
X263715Y485893D01*
X263724Y485880D01*
X263738Y485861D01*
X263752Y485838D01*
X263771Y485810D01*
X263789Y485773D01*
X263812Y485732D01*
X263831Y485685D01*
X263854Y485630D01*
X263872Y485570D01*
X263891Y485501D01*
X263909Y485427D01*
X263923Y485348D01*
X263937Y485260D01*
X263946Y485163D01*
Y485145D01*
X263951Y485122D01*
Y485089D01*
X263955Y485057D01*
X263960Y485016D01*
X263974Y484923D01*
X263983Y484822D01*
X264001Y484725D01*
X264011Y484678D01*
X264020Y484637D01*
X264029Y484600D01*
X264038Y484567D01*
X264043D01*
X264062Y484563D01*
X264085Y484554D01*
X264112Y484544D01*
X264182Y484530D01*
X264214Y484526D01*
X264246D01*
X264251D01*
X264265D01*
X264279Y484530D01*
X264302Y484535D01*
X264330Y484544D01*
X264357Y484563D01*
X264385Y484581D01*
X264413Y484609D01*
X264417Y484614D01*
X264422Y484623D01*
X264436Y484641D01*
X264450Y484669D01*
X264459Y484706D01*
X264473Y484743D01*
X264477Y484794D01*
X264482Y484849D01*
Y484877D01*
X264477Y484909D01*
X264473Y484946D01*
X264463Y484988D01*
X264454Y485034D01*
X264436Y485076D01*
X264413Y485117D01*
X264408Y485122D01*
X264399Y485131D01*
X264385Y485150D01*
X264362Y485168D01*
X264334Y485191D01*
X264302Y485214D01*
X264265Y485233D01*
X264223Y485247D01*
X264274Y485856D01*
X264279D01*
X264288Y485852D01*
X264302Y485847D01*
X264325Y485838D01*
X264380Y485810D01*
X264450Y485773D01*
X264524Y485722D01*
X264607Y485662D01*
X264685Y485584D01*
X264755Y485496D01*
Y485492D01*
X264764Y485482D01*
X264773Y485468D01*
X264782Y485450D01*
X264796Y485422D01*
X264810Y485390D01*
X264824Y485353D01*
X264842Y485311D01*
X264861Y485265D01*
X264875Y485210D01*
X264889Y485154D01*
X264902Y485094D01*
X264921Y484956D01*
X264930Y484803D01*
Y484761D01*
X264926Y484729D01*
Y484692D01*
X264921Y484651D01*
X264907Y484554D01*
X264889Y484443D01*
X264856Y484337D01*
X264810Y484230D01*
X264782Y484184D01*
X264750Y484142D01*
Y484138D01*
X264741Y484133D01*
X264718Y484110D01*
X264681Y484073D01*
X264625Y484031D01*
X264561Y483995D01*
X264487Y483958D01*
X264403Y483934D01*
X264357Y483925D01*
X264306D01*
X264302D01*
X264288D01*
X264269D01*
X264242Y483930D01*
X264209D01*
X264172Y483934D01*
X264085Y483948D01*
X264080D01*
X264057Y483953D01*
X264043Y483958D01*
X264020D01*
X263997Y483967D01*
X263965Y483972D01*
X263928Y483981D01*
X263881Y483990D01*
X263831Y483999D01*
X263775Y484008D01*
X263710Y484022D01*
X263636Y484041D01*
X263553Y484059D01*
X263466Y484078D01*
X263461D01*
X263447Y484082D01*
X263429Y484087D01*
X263401Y484092D01*
X263364Y484096D01*
X263327Y484105D01*
X263239Y484119D01*
X263142Y484138D01*
X263050Y484152D01*
X262962Y484161D01*
X262920Y484165D01*
X262888D01*
X262883D01*
X262860D01*
X262833Y484161D01*
X262791D01*
X262745Y484152D01*
X262689Y484142D01*
X262625Y484133D01*
X262560Y484115D01*
Y484720D01*
X262565D01*
X262583Y484725D01*
X262606Y484734D01*
X262639Y484743D01*
X262680Y484748D01*
X262722Y484757D01*
X262819Y484766D01*
X262814Y484771D01*
X262796Y484789D01*
X262768Y484822D01*
X262731Y484859D01*
X262694Y484905D01*
X262657Y484960D01*
X262615Y485020D01*
X262583Y485085D01*
X262579Y485094D01*
X262569Y485117D01*
X262555Y485150D01*
X262542Y485196D01*
X262528Y485251D01*
X262514Y485311D01*
X262505Y485376D01*
X262500Y485445D01*
Y485473D01*
X262505Y485492D01*
X262509Y485547D01*
X262523Y485612D01*
X262546Y485685D01*
X262579Y485769D01*
X262625Y485847D01*
X262685Y485921D01*
X262694Y485930D01*
X262717Y485949D01*
X262759Y485981D01*
X262819Y486014D01*
X262888Y486046D01*
X262971Y486078D01*
X263068Y486097D01*
X263175Y486106D01*
X263179D01*
X263188D01*
X263207D01*
X263230Y486101D01*
D02*
G37*
G36*
X265757Y482987D02*
Y482368D01*
X264685Y482595D01*
X264690Y482585D01*
X264708Y482567D01*
X264732Y482535D01*
X264759Y482488D01*
X264787Y482442D01*
X264819Y482387D01*
X264847Y482331D01*
X264870Y482276D01*
X264875Y482267D01*
X264879Y482248D01*
X264889Y482216D01*
X264902Y482179D01*
X264912Y482128D01*
X264921Y482073D01*
X264926Y482008D01*
X264930Y481943D01*
Y481906D01*
X264926Y481883D01*
X264921Y481851D01*
X264916Y481814D01*
X264898Y481731D01*
X264870Y481638D01*
X264824Y481537D01*
X264796Y481491D01*
X264764Y481440D01*
X264727Y481393D01*
X264681Y481352D01*
X264676Y481347D01*
X264671Y481343D01*
X264653Y481333D01*
X264634Y481315D01*
X264611Y481301D01*
X264579Y481283D01*
X264542Y481259D01*
X264500Y481241D01*
X264450Y481218D01*
X264399Y481200D01*
X264339Y481181D01*
X264274Y481163D01*
X264205Y481149D01*
X264131Y481139D01*
X264052Y481135D01*
X263965Y481130D01*
X263960D01*
X263951D01*
X263932D01*
X263909D01*
X263881Y481135D01*
X263849D01*
X263771Y481144D01*
X263678Y481158D01*
X263572Y481176D01*
X263461Y481200D01*
X263350Y481236D01*
X263346D01*
X263336Y481241D01*
X263322Y481246D01*
X263299Y481255D01*
X263248Y481278D01*
X263179Y481310D01*
X263101Y481347D01*
X263022Y481398D01*
X262939Y481449D01*
X262865Y481514D01*
X262856Y481523D01*
X262833Y481546D01*
X262800Y481578D01*
X262763Y481625D01*
X262717Y481680D01*
X262671Y481745D01*
X262625Y481809D01*
X262588Y481883D01*
X262583Y481892D01*
X262574Y481916D01*
X262560Y481952D01*
X262546Y482003D01*
X262528Y482063D01*
X262514Y482133D01*
X262505Y482202D01*
X262500Y482281D01*
Y482304D01*
X262505Y482327D01*
X262509Y482364D01*
X262514Y482405D01*
X262523Y482451D01*
X262537Y482502D01*
X262555Y482558D01*
X262579Y482618D01*
X262606Y482678D01*
X262643Y482738D01*
X262685Y482803D01*
X262731Y482858D01*
X262791Y482913D01*
X262856Y482969D01*
X262934Y483015D01*
X262560Y483094D01*
Y483657D01*
X265757Y482987D01*
D02*
G37*
G36*
Y480243D02*
Y479624D01*
X262560Y480294D01*
Y480913D01*
X265757Y480243D01*
D02*
G37*
G36*
X263655Y479583D02*
X263697Y479578D01*
X263747Y479573D01*
X263803Y479564D01*
X263863Y479555D01*
X263992Y479522D01*
X264062Y479499D01*
X264136Y479476D01*
X264209Y479444D01*
X264283Y479412D01*
X264357Y479370D01*
X264426Y479324D01*
X264431Y479319D01*
X264450Y479305D01*
X264473Y479287D01*
X264505Y479259D01*
X264542Y479217D01*
X264588Y479176D01*
X264630Y479120D01*
X264681Y479060D01*
X264727Y478991D01*
X264773Y478913D01*
X264815Y478829D01*
X264852Y478737D01*
X264884Y478640D01*
X264907Y478534D01*
X264926Y478418D01*
X264930Y478298D01*
Y478257D01*
X264926Y478229D01*
X264921Y478192D01*
X264916Y478150D01*
X264907Y478104D01*
X264898Y478053D01*
X264865Y477942D01*
X264847Y477887D01*
X264819Y477832D01*
X264787Y477776D01*
X264755Y477721D01*
X264713Y477670D01*
X264667Y477619D01*
X264662Y477614D01*
X264653Y477610D01*
X264639Y477596D01*
X264621Y477577D01*
X264593Y477559D01*
X264561Y477540D01*
X264519Y477517D01*
X264477Y477490D01*
X264426Y477466D01*
X264371Y477443D01*
X264311Y477425D01*
X264242Y477407D01*
X264172Y477388D01*
X264094Y477374D01*
X264015Y477369D01*
X263928Y477365D01*
X263923D01*
X263918D01*
X263891D01*
X263844D01*
X263794Y477369D01*
X263729Y477374D01*
X263660Y477383D01*
X263521Y477411D01*
Y478982D01*
X263516D01*
X263498D01*
X263479Y478987D01*
X263461D01*
X263456D01*
X263452D01*
X263424D01*
X263382Y478977D01*
X263327Y478968D01*
X263267Y478954D01*
X263207Y478931D01*
X263142Y478899D01*
X263087Y478857D01*
X263082Y478853D01*
X263064Y478834D01*
X263045Y478806D01*
X263017Y478765D01*
X262994Y478719D01*
X262971Y478663D01*
X262953Y478598D01*
X262948Y478529D01*
Y478497D01*
X262953Y478478D01*
X262957Y478451D01*
X262967Y478418D01*
X262990Y478349D01*
X263004Y478312D01*
X263027Y478270D01*
X263054Y478229D01*
X263087Y478192D01*
X263124Y478150D01*
X263165Y478109D01*
X263216Y478072D01*
X263271Y478039D01*
X263179Y477480D01*
X263175D01*
X263165Y477490D01*
X263147Y477499D01*
X263124Y477513D01*
X263096Y477527D01*
X263064Y477550D01*
X262985Y477596D01*
X262902Y477661D01*
X262819Y477739D01*
X262736Y477827D01*
X262666Y477924D01*
Y477928D01*
X262657Y477938D01*
X262652Y477952D01*
X262639Y477970D01*
X262629Y477998D01*
X262615Y478025D01*
X262583Y478104D01*
X262551Y478192D01*
X262528Y478298D01*
X262509Y478409D01*
X262500Y478534D01*
Y478580D01*
X262505Y478612D01*
X262509Y478654D01*
X262514Y478700D01*
X262523Y478751D01*
X262537Y478806D01*
X262574Y478926D01*
X262597Y478991D01*
X262625Y479056D01*
X262657Y479116D01*
X262699Y479180D01*
X262745Y479241D01*
X262796Y479296D01*
X262800Y479301D01*
X262809Y479310D01*
X262828Y479324D01*
X262851Y479342D01*
X262879Y479365D01*
X262916Y479388D01*
X262957Y479416D01*
X263004Y479439D01*
X263059Y479467D01*
X263115Y479495D01*
X263179Y479518D01*
X263248Y479541D01*
X263322Y479559D01*
X263405Y479573D01*
X263489Y479583D01*
X263577Y479587D01*
X263581D01*
X263600D01*
X263623D01*
X263655Y479583D01*
D02*
G37*
G36*
Y468995D02*
X263697Y468991D01*
X263747Y468986D01*
X263803Y468977D01*
X263863Y468968D01*
X263992Y468935D01*
X264062Y468912D01*
X264136Y468889D01*
X264209Y468857D01*
X264283Y468824D01*
X264357Y468783D01*
X264426Y468737D01*
X264431Y468732D01*
X264450Y468718D01*
X264473Y468700D01*
X264505Y468672D01*
X264542Y468630D01*
X264588Y468589D01*
X264630Y468533D01*
X264681Y468473D01*
X264727Y468404D01*
X264773Y468326D01*
X264815Y468242D01*
X264852Y468150D01*
X264884Y468053D01*
X264907Y467947D01*
X264926Y467831D01*
X264930Y467711D01*
Y467669D01*
X264926Y467642D01*
X264921Y467605D01*
X264916Y467563D01*
X264907Y467517D01*
X264898Y467466D01*
X264865Y467355D01*
X264847Y467300D01*
X264819Y467244D01*
X264787Y467189D01*
X264755Y467134D01*
X264713Y467083D01*
X264667Y467032D01*
X264662Y467027D01*
X264653Y467023D01*
X264639Y467009D01*
X264621Y466990D01*
X264593Y466972D01*
X264561Y466953D01*
X264519Y466930D01*
X264477Y466902D01*
X264426Y466879D01*
X264371Y466856D01*
X264311Y466838D01*
X264242Y466819D01*
X264172Y466801D01*
X264094Y466787D01*
X264015Y466782D01*
X263928Y466778D01*
X263923D01*
X263918D01*
X263891D01*
X263844D01*
X263794Y466782D01*
X263729Y466787D01*
X263660Y466796D01*
X263521Y466824D01*
Y468395D01*
X263516D01*
X263498D01*
X263479Y468399D01*
X263461D01*
X263456D01*
X263452D01*
X263424D01*
X263382Y468390D01*
X263327Y468381D01*
X263267Y468367D01*
X263207Y468344D01*
X263142Y468312D01*
X263087Y468270D01*
X263082Y468265D01*
X263064Y468247D01*
X263045Y468219D01*
X263017Y468178D01*
X262994Y468131D01*
X262971Y468076D01*
X262953Y468011D01*
X262948Y467942D01*
Y467910D01*
X262953Y467891D01*
X262957Y467864D01*
X262967Y467831D01*
X262990Y467762D01*
X263004Y467725D01*
X263027Y467683D01*
X263054Y467642D01*
X263087Y467605D01*
X263124Y467563D01*
X263165Y467522D01*
X263216Y467485D01*
X263271Y467452D01*
X263179Y466893D01*
X263175D01*
X263165Y466902D01*
X263147Y466912D01*
X263124Y466926D01*
X263096Y466939D01*
X263064Y466963D01*
X262985Y467009D01*
X262902Y467073D01*
X262819Y467152D01*
X262736Y467240D01*
X262666Y467337D01*
Y467341D01*
X262657Y467351D01*
X262652Y467365D01*
X262639Y467383D01*
X262629Y467411D01*
X262615Y467438D01*
X262583Y467517D01*
X262551Y467605D01*
X262528Y467711D01*
X262509Y467822D01*
X262500Y467947D01*
Y467993D01*
X262505Y468025D01*
X262509Y468067D01*
X262514Y468113D01*
X262523Y468164D01*
X262537Y468219D01*
X262574Y468339D01*
X262597Y468404D01*
X262625Y468469D01*
X262657Y468529D01*
X262699Y468593D01*
X262745Y468653D01*
X262796Y468709D01*
X262800Y468714D01*
X262809Y468723D01*
X262828Y468737D01*
X262851Y468755D01*
X262879Y468778D01*
X262916Y468801D01*
X262957Y468829D01*
X263004Y468852D01*
X263059Y468880D01*
X263115Y468908D01*
X263179Y468931D01*
X263248Y468954D01*
X263322Y468972D01*
X263405Y468986D01*
X263489Y468995D01*
X263577Y469000D01*
X263581D01*
X263600D01*
X263623D01*
X263655Y468995D01*
D02*
G37*
G36*
X264879Y466099D02*
Y465507D01*
X264574Y465567D01*
Y465563D01*
X264584Y465558D01*
X264607Y465530D01*
X264639Y465484D01*
X264681Y465429D01*
X264722Y465364D01*
X264768Y465295D01*
X264810Y465221D01*
X264847Y465147D01*
X264852Y465138D01*
X264861Y465115D01*
X264875Y465073D01*
X264889Y465022D01*
X264902Y464962D01*
X264916Y464893D01*
X264926Y464819D01*
X264930Y464740D01*
Y464713D01*
X264926Y464694D01*
X264921Y464639D01*
X264912Y464574D01*
X264889Y464500D01*
X264861Y464426D01*
X264819Y464352D01*
X264764Y464283D01*
X264755Y464274D01*
X264736Y464255D01*
X264699Y464232D01*
X264648Y464200D01*
X264584Y464167D01*
X264510Y464144D01*
X264426Y464126D01*
X264330Y464117D01*
X264325D01*
X264306D01*
X264274Y464121D01*
X264223Y464130D01*
X264163Y464140D01*
X264080Y464154D01*
X264034Y464163D01*
X263983Y464172D01*
X263928Y464186D01*
X263867Y464200D01*
X262560Y464482D01*
Y465101D01*
X263872Y464819D01*
X263877D01*
X263886Y464814D01*
X263900D01*
X263918Y464810D01*
X263969Y464800D01*
X264025Y464787D01*
X264085Y464777D01*
X264145Y464768D01*
X264191Y464759D01*
X264209Y464754D01*
X264223D01*
X264228D01*
X264242D01*
X264265Y464759D01*
X264293Y464763D01*
X264320Y464773D01*
X264353Y464787D01*
X264385Y464805D01*
X264413Y464828D01*
X264417Y464833D01*
X264422Y464842D01*
X264436Y464856D01*
X264450Y464879D01*
X264459Y464907D01*
X264473Y464939D01*
X264477Y464981D01*
X264482Y465027D01*
Y465050D01*
X264477Y465078D01*
X264468Y465119D01*
X264454Y465165D01*
X264431Y465216D01*
X264403Y465272D01*
X264367Y465336D01*
X264362Y465346D01*
X264343Y465364D01*
X264320Y465396D01*
X264283Y465433D01*
X264242Y465475D01*
X264191Y465521D01*
X264131Y465563D01*
X264062Y465604D01*
X264057Y465609D01*
X264034Y465618D01*
X263997Y465632D01*
X263969Y465641D01*
X263941Y465651D01*
X263905Y465660D01*
X263867Y465674D01*
X263821Y465688D01*
X263771Y465701D01*
X263715Y465715D01*
X263650Y465734D01*
X263581Y465747D01*
X263507Y465766D01*
X262560Y465965D01*
Y466584D01*
X264879Y466099D01*
D02*
G37*
G36*
X263230Y463839D02*
X263258D01*
X263290Y463835D01*
X263364Y463816D01*
X263452Y463793D01*
X263540Y463756D01*
X263627Y463705D01*
X263669Y463678D01*
X263706Y463641D01*
X263710Y463636D01*
X263715Y463632D01*
X263724Y463618D01*
X263738Y463599D01*
X263752Y463576D01*
X263771Y463548D01*
X263789Y463511D01*
X263812Y463470D01*
X263831Y463424D01*
X263854Y463368D01*
X263872Y463308D01*
X263891Y463239D01*
X263909Y463165D01*
X263923Y463086D01*
X263937Y462999D01*
X263946Y462902D01*
Y462883D01*
X263951Y462860D01*
Y462828D01*
X263955Y462795D01*
X263960Y462754D01*
X263974Y462661D01*
X263983Y462560D01*
X264001Y462463D01*
X264011Y462417D01*
X264020Y462375D01*
X264029Y462338D01*
X264038Y462306D01*
X264043D01*
X264062Y462301D01*
X264085Y462292D01*
X264112Y462283D01*
X264182Y462269D01*
X264214Y462264D01*
X264246D01*
X264251D01*
X264265D01*
X264279Y462269D01*
X264302Y462273D01*
X264330Y462283D01*
X264357Y462301D01*
X264385Y462320D01*
X264413Y462347D01*
X264417Y462352D01*
X264422Y462361D01*
X264436Y462380D01*
X264450Y462407D01*
X264459Y462444D01*
X264473Y462481D01*
X264477Y462532D01*
X264482Y462587D01*
Y462615D01*
X264477Y462647D01*
X264473Y462684D01*
X264463Y462726D01*
X264454Y462772D01*
X264436Y462814D01*
X264413Y462855D01*
X264408Y462860D01*
X264399Y462869D01*
X264385Y462888D01*
X264362Y462906D01*
X264334Y462929D01*
X264302Y462952D01*
X264265Y462971D01*
X264223Y462985D01*
X264274Y463595D01*
X264279D01*
X264288Y463590D01*
X264302Y463585D01*
X264325Y463576D01*
X264380Y463548D01*
X264450Y463511D01*
X264524Y463461D01*
X264607Y463401D01*
X264685Y463322D01*
X264755Y463234D01*
Y463230D01*
X264764Y463220D01*
X264773Y463206D01*
X264782Y463188D01*
X264796Y463160D01*
X264810Y463128D01*
X264824Y463091D01*
X264842Y463049D01*
X264861Y463003D01*
X264875Y462948D01*
X264889Y462892D01*
X264902Y462832D01*
X264921Y462694D01*
X264930Y462541D01*
Y462500D01*
X264926Y462467D01*
Y462430D01*
X264921Y462389D01*
X264907Y462292D01*
X264889Y462181D01*
X264856Y462075D01*
X264810Y461968D01*
X264782Y461922D01*
X264750Y461881D01*
Y461876D01*
X264741Y461871D01*
X264718Y461848D01*
X264681Y461811D01*
X264625Y461770D01*
X264561Y461733D01*
X264487Y461696D01*
X264403Y461673D01*
X264357Y461663D01*
X264306D01*
X264302D01*
X264288D01*
X264269D01*
X264242Y461668D01*
X264209D01*
X264172Y461673D01*
X264085Y461687D01*
X264080D01*
X264057Y461691D01*
X264043Y461696D01*
X264020D01*
X263997Y461705D01*
X263965Y461710D01*
X263928Y461719D01*
X263881Y461728D01*
X263831Y461737D01*
X263775Y461747D01*
X263710Y461761D01*
X263636Y461779D01*
X263553Y461797D01*
X263466Y461816D01*
X263461D01*
X263447Y461821D01*
X263429Y461825D01*
X263401Y461830D01*
X263364Y461834D01*
X263327Y461844D01*
X263239Y461858D01*
X263142Y461876D01*
X263050Y461890D01*
X262962Y461899D01*
X262920Y461904D01*
X262888D01*
X262883D01*
X262860D01*
X262833Y461899D01*
X262791D01*
X262745Y461890D01*
X262689Y461881D01*
X262625Y461871D01*
X262560Y461853D01*
Y462458D01*
X262565D01*
X262583Y462463D01*
X262606Y462472D01*
X262639Y462481D01*
X262680Y462486D01*
X262722Y462495D01*
X262819Y462504D01*
X262814Y462509D01*
X262796Y462527D01*
X262768Y462560D01*
X262731Y462597D01*
X262694Y462643D01*
X262657Y462698D01*
X262615Y462758D01*
X262583Y462823D01*
X262579Y462832D01*
X262569Y462855D01*
X262555Y462888D01*
X262542Y462934D01*
X262528Y462989D01*
X262514Y463049D01*
X262505Y463114D01*
X262500Y463183D01*
Y463211D01*
X262505Y463230D01*
X262509Y463285D01*
X262523Y463350D01*
X262546Y463424D01*
X262579Y463507D01*
X262625Y463585D01*
X262685Y463659D01*
X262694Y463668D01*
X262717Y463687D01*
X262759Y463719D01*
X262819Y463752D01*
X262888Y463784D01*
X262971Y463816D01*
X263068Y463835D01*
X263175Y463844D01*
X263179D01*
X263188D01*
X263207D01*
X263230Y463839D01*
D02*
G37*
G36*
X265757Y460726D02*
Y460107D01*
X264685Y460333D01*
X264690Y460324D01*
X264708Y460305D01*
X264732Y460273D01*
X264759Y460227D01*
X264787Y460180D01*
X264819Y460125D01*
X264847Y460070D01*
X264870Y460014D01*
X264875Y460005D01*
X264879Y459986D01*
X264889Y459954D01*
X264902Y459917D01*
X264912Y459866D01*
X264921Y459811D01*
X264926Y459746D01*
X264930Y459682D01*
Y459645D01*
X264926Y459621D01*
X264921Y459589D01*
X264916Y459552D01*
X264898Y459469D01*
X264870Y459376D01*
X264824Y459275D01*
X264796Y459229D01*
X264764Y459178D01*
X264727Y459132D01*
X264681Y459090D01*
X264676Y459086D01*
X264671Y459081D01*
X264653Y459072D01*
X264634Y459053D01*
X264611Y459039D01*
X264579Y459021D01*
X264542Y458998D01*
X264500Y458979D01*
X264450Y458956D01*
X264399Y458938D01*
X264339Y458919D01*
X264274Y458901D01*
X264205Y458887D01*
X264131Y458878D01*
X264052Y458873D01*
X263965Y458868D01*
X263960D01*
X263951D01*
X263932D01*
X263909D01*
X263881Y458873D01*
X263849D01*
X263771Y458882D01*
X263678Y458896D01*
X263572Y458915D01*
X263461Y458938D01*
X263350Y458975D01*
X263346D01*
X263336Y458979D01*
X263322Y458984D01*
X263299Y458993D01*
X263248Y459016D01*
X263179Y459049D01*
X263101Y459086D01*
X263022Y459136D01*
X262939Y459187D01*
X262865Y459252D01*
X262856Y459261D01*
X262833Y459284D01*
X262800Y459316D01*
X262763Y459363D01*
X262717Y459418D01*
X262671Y459483D01*
X262625Y459548D01*
X262588Y459621D01*
X262583Y459631D01*
X262574Y459654D01*
X262560Y459691D01*
X262546Y459741D01*
X262528Y459802D01*
X262514Y459871D01*
X262505Y459940D01*
X262500Y460019D01*
Y460042D01*
X262505Y460065D01*
X262509Y460102D01*
X262514Y460144D01*
X262523Y460190D01*
X262537Y460241D01*
X262555Y460296D01*
X262579Y460356D01*
X262606Y460416D01*
X262643Y460476D01*
X262685Y460541D01*
X262731Y460596D01*
X262791Y460652D01*
X262856Y460707D01*
X262934Y460753D01*
X262560Y460832D01*
Y461396D01*
X265757Y460726D01*
D02*
G37*
G36*
Y457981D02*
Y457362D01*
X262560Y458032D01*
Y458651D01*
X265757Y457981D01*
D02*
G37*
G36*
X263655Y457321D02*
X263697Y457316D01*
X263747Y457311D01*
X263803Y457302D01*
X263863Y457293D01*
X263992Y457261D01*
X264062Y457237D01*
X264136Y457214D01*
X264209Y457182D01*
X264283Y457150D01*
X264357Y457108D01*
X264426Y457062D01*
X264431Y457057D01*
X264450Y457043D01*
X264473Y457025D01*
X264505Y456997D01*
X264542Y456956D01*
X264588Y456914D01*
X264630Y456859D01*
X264681Y456799D01*
X264727Y456729D01*
X264773Y456651D01*
X264815Y456568D01*
X264852Y456475D01*
X264884Y456378D01*
X264907Y456272D01*
X264926Y456156D01*
X264930Y456036D01*
Y455995D01*
X264926Y455967D01*
X264921Y455930D01*
X264916Y455888D01*
X264907Y455842D01*
X264898Y455791D01*
X264865Y455681D01*
X264847Y455625D01*
X264819Y455570D01*
X264787Y455514D01*
X264755Y455459D01*
X264713Y455408D01*
X264667Y455357D01*
X264662Y455352D01*
X264653Y455348D01*
X264639Y455334D01*
X264621Y455316D01*
X264593Y455297D01*
X264561Y455279D01*
X264519Y455256D01*
X264477Y455228D01*
X264426Y455205D01*
X264371Y455182D01*
X264311Y455163D01*
X264242Y455145D01*
X264172Y455126D01*
X264094Y455112D01*
X264015Y455108D01*
X263928Y455103D01*
X263923D01*
X263918D01*
X263891D01*
X263844D01*
X263794Y455108D01*
X263729Y455112D01*
X263660Y455122D01*
X263521Y455149D01*
Y456720D01*
X263516D01*
X263498D01*
X263479Y456725D01*
X263461D01*
X263456D01*
X263452D01*
X263424D01*
X263382Y456715D01*
X263327Y456706D01*
X263267Y456692D01*
X263207Y456669D01*
X263142Y456637D01*
X263087Y456595D01*
X263082Y456591D01*
X263064Y456572D01*
X263045Y456544D01*
X263017Y456503D01*
X262994Y456457D01*
X262971Y456401D01*
X262953Y456337D01*
X262948Y456267D01*
Y456235D01*
X262953Y456216D01*
X262957Y456189D01*
X262967Y456156D01*
X262990Y456087D01*
X263004Y456050D01*
X263027Y456009D01*
X263054Y455967D01*
X263087Y455930D01*
X263124Y455888D01*
X263165Y455847D01*
X263216Y455810D01*
X263271Y455778D01*
X263179Y455219D01*
X263175D01*
X263165Y455228D01*
X263147Y455237D01*
X263124Y455251D01*
X263096Y455265D01*
X263064Y455288D01*
X262985Y455334D01*
X262902Y455399D01*
X262819Y455477D01*
X262736Y455565D01*
X262666Y455662D01*
Y455667D01*
X262657Y455676D01*
X262652Y455690D01*
X262639Y455708D01*
X262629Y455736D01*
X262615Y455764D01*
X262583Y455842D01*
X262551Y455930D01*
X262528Y456036D01*
X262509Y456147D01*
X262500Y456272D01*
Y456318D01*
X262505Y456350D01*
X262509Y456392D01*
X262514Y456438D01*
X262523Y456489D01*
X262537Y456544D01*
X262574Y456665D01*
X262597Y456729D01*
X262625Y456794D01*
X262657Y456854D01*
X262699Y456919D01*
X262745Y456979D01*
X262796Y457034D01*
X262800Y457039D01*
X262809Y457048D01*
X262828Y457062D01*
X262851Y457080D01*
X262879Y457103D01*
X262916Y457127D01*
X262957Y457154D01*
X263004Y457177D01*
X263059Y457205D01*
X263115Y457233D01*
X263179Y457256D01*
X263248Y457279D01*
X263322Y457298D01*
X263405Y457311D01*
X263489Y457321D01*
X263577Y457325D01*
X263581D01*
X263600D01*
X263623D01*
X263655Y457321D01*
D02*
G37*
G36*
X385766Y411849D02*
X383350Y411447D01*
X385766Y410121D01*
Y409469D01*
X382569Y411234D01*
Y411932D01*
X385766Y412500D01*
Y411849D01*
D02*
G37*
G36*
X383664Y409770D02*
X383706Y409765D01*
X383757Y409760D01*
X383812Y409751D01*
X383872Y409742D01*
X384001Y409710D01*
X384071Y409686D01*
X384145Y409663D01*
X384219Y409631D01*
X384293Y409599D01*
X384366Y409557D01*
X384436Y409511D01*
X384440Y409506D01*
X384459Y409492D01*
X384482Y409474D01*
X384514Y409446D01*
X384551Y409405D01*
X384597Y409363D01*
X384639Y409308D01*
X384690Y409247D01*
X384736Y409178D01*
X384782Y409100D01*
X384824Y409017D01*
X384861Y408924D01*
X384893Y408827D01*
X384916Y408721D01*
X384935Y408605D01*
X384939Y408485D01*
Y408444D01*
X384935Y408416D01*
X384930Y408379D01*
X384926Y408337D01*
X384916Y408291D01*
X384907Y408240D01*
X384875Y408130D01*
X384856Y408074D01*
X384828Y408019D01*
X384796Y407963D01*
X384764Y407908D01*
X384722Y407857D01*
X384676Y407806D01*
X384671Y407801D01*
X384662Y407797D01*
X384648Y407783D01*
X384630Y407764D01*
X384602Y407746D01*
X384570Y407727D01*
X384528Y407704D01*
X384487Y407677D01*
X384436Y407654D01*
X384380Y407630D01*
X384320Y407612D01*
X384251Y407594D01*
X384182Y407575D01*
X384103Y407561D01*
X384025Y407557D01*
X383937Y407552D01*
X383932D01*
X383928D01*
X383900D01*
X383854D01*
X383803Y407557D01*
X383738Y407561D01*
X383669Y407571D01*
X383530Y407598D01*
Y409169D01*
X383526D01*
X383507D01*
X383489Y409174D01*
X383470D01*
X383466D01*
X383461D01*
X383433D01*
X383392Y409164D01*
X383336Y409155D01*
X383276Y409141D01*
X383216Y409118D01*
X383151Y409086D01*
X383096Y409044D01*
X383091Y409040D01*
X383073Y409021D01*
X383054Y408993D01*
X383027Y408952D01*
X383004Y408906D01*
X382980Y408850D01*
X382962Y408785D01*
X382957Y408716D01*
Y408684D01*
X382962Y408665D01*
X382967Y408638D01*
X382976Y408605D01*
X382999Y408536D01*
X383013Y408499D01*
X383036Y408458D01*
X383064Y408416D01*
X383096Y408379D01*
X383133Y408337D01*
X383174Y408296D01*
X383225Y408259D01*
X383281Y408226D01*
X383188Y407667D01*
X383184D01*
X383174Y407677D01*
X383156Y407686D01*
X383133Y407700D01*
X383105Y407714D01*
X383073Y407737D01*
X382994Y407783D01*
X382911Y407848D01*
X382828Y407926D01*
X382745Y408014D01*
X382676Y408111D01*
Y408116D01*
X382666Y408125D01*
X382662Y408139D01*
X382648Y408157D01*
X382639Y408185D01*
X382625Y408213D01*
X382592Y408291D01*
X382560Y408379D01*
X382537Y408485D01*
X382519Y408596D01*
X382509Y408721D01*
Y408767D01*
X382514Y408799D01*
X382519Y408841D01*
X382523Y408887D01*
X382532Y408938D01*
X382546Y408993D01*
X382583Y409114D01*
X382606Y409178D01*
X382634Y409243D01*
X382666Y409303D01*
X382708Y409368D01*
X382754Y409428D01*
X382805Y409483D01*
X382809Y409488D01*
X382819Y409497D01*
X382837Y409511D01*
X382860Y409529D01*
X382888Y409552D01*
X382925Y409576D01*
X382967Y409603D01*
X383013Y409626D01*
X383068Y409654D01*
X383124Y409682D01*
X383188Y409705D01*
X383258Y409728D01*
X383332Y409747D01*
X383415Y409760D01*
X383498Y409770D01*
X383586Y409774D01*
X383590D01*
X383609D01*
X383632D01*
X383664Y409770D01*
D02*
G37*
G36*
X384889Y406919D02*
Y406337D01*
X384440Y406429D01*
X384445Y406425D01*
X384464Y406416D01*
X384487Y406397D01*
X384519Y406374D01*
X384556Y406342D01*
X384597Y406305D01*
X384644Y406263D01*
X384690Y406217D01*
X384782Y406110D01*
X384824Y406055D01*
X384861Y405990D01*
X384893Y405930D01*
X384916Y405861D01*
X384935Y405792D01*
X384939Y405723D01*
Y405699D01*
X384935Y405672D01*
X384930Y405635D01*
X384921Y405593D01*
X384912Y405542D01*
X384893Y405487D01*
X384870Y405431D01*
X384357Y405672D01*
Y405676D01*
X384362Y405686D01*
X384366Y405704D01*
X384376Y405727D01*
X384385Y405787D01*
X384390Y405856D01*
Y405884D01*
X384385Y405917D01*
X384376Y405958D01*
X384357Y406009D01*
X384339Y406064D01*
X384306Y406124D01*
X384265Y406189D01*
X384260Y406198D01*
X384242Y406217D01*
X384214Y406245D01*
X384182Y406282D01*
X384136Y406323D01*
X384080Y406369D01*
X384015Y406411D01*
X383941Y406448D01*
X383932Y406452D01*
X383918Y406457D01*
X383905Y406462D01*
X383881Y406471D01*
X383854Y406480D01*
X383821Y406494D01*
X383784Y406503D01*
X383743Y406517D01*
X383697Y406536D01*
X383641Y406549D01*
X383581Y406563D01*
X383521Y406582D01*
X383452Y406600D01*
X383373Y406614D01*
X383295Y406633D01*
X382569Y406785D01*
Y407404D01*
X384889Y406919D01*
D02*
G37*
G36*
X383309Y405108D02*
X383299Y405103D01*
X383276Y405094D01*
X383244Y405076D01*
X383202Y405053D01*
X383156Y405025D01*
X383110Y404992D01*
X383068Y404951D01*
X383036Y404909D01*
X383031Y404905D01*
X383022Y404886D01*
X383013Y404858D01*
X382999Y404822D01*
X382980Y404775D01*
X382971Y404720D01*
X382962Y404655D01*
X382957Y404581D01*
Y404544D01*
X382962Y404507D01*
X382971Y404457D01*
X382980Y404401D01*
X382994Y404341D01*
X383017Y404286D01*
X383050Y404235D01*
X383054Y404230D01*
X383064Y404221D01*
X383078Y404207D01*
X383096Y404189D01*
X383147Y404156D01*
X383174Y404147D01*
X383211Y404142D01*
X383216D01*
X383221D01*
X383248Y404147D01*
X383285Y404161D01*
X383322Y404189D01*
X383327Y404193D01*
X383332Y404198D01*
X383341Y404216D01*
X383355Y404239D01*
X383373Y404276D01*
X383396Y404323D01*
X383419Y404378D01*
X383442Y404452D01*
Y404457D01*
X383452Y404475D01*
X383461Y404507D01*
X383475Y404544D01*
X383489Y404586D01*
X383507Y404637D01*
X383549Y404752D01*
X383600Y404872D01*
X383646Y404988D01*
X383674Y405043D01*
X383697Y405090D01*
X383720Y405126D01*
X383738Y405159D01*
X383747Y405168D01*
X383770Y405191D01*
X383807Y405224D01*
X383858Y405261D01*
X383923Y405302D01*
X384001Y405334D01*
X384089Y405358D01*
X384136Y405362D01*
X384186Y405367D01*
X384191D01*
X384200D01*
X384214D01*
X384232Y405362D01*
X384283Y405358D01*
X384348Y405339D01*
X384422Y405316D01*
X384501Y405279D01*
X384579Y405228D01*
X384621Y405200D01*
X384658Y405163D01*
X384662Y405159D01*
X384671Y405150D01*
X384685Y405131D01*
X384704Y405108D01*
X384722Y405080D01*
X384745Y405043D01*
X384773Y405002D01*
X384801Y404951D01*
X384824Y404891D01*
X384852Y404831D01*
X384875Y404762D01*
X384898Y404683D01*
X384912Y404600D01*
X384926Y404512D01*
X384935Y404415D01*
X384939Y404313D01*
Y404272D01*
X384935Y404239D01*
Y404203D01*
X384930Y404161D01*
X384921Y404059D01*
X384898Y403953D01*
X384870Y403837D01*
X384828Y403731D01*
X384801Y403685D01*
X384773Y403639D01*
Y403634D01*
X384764Y403630D01*
X384745Y403602D01*
X384708Y403560D01*
X384658Y403514D01*
X384593Y403463D01*
X384519Y403417D01*
X384431Y403375D01*
X384330Y403343D01*
X384232Y403921D01*
X384237D01*
X384251Y403930D01*
X384274Y403939D01*
X384302Y403958D01*
X384334Y403976D01*
X384362Y404004D01*
X384394Y404036D01*
X384417Y404073D01*
X384422Y404078D01*
X384431Y404096D01*
X384445Y404129D01*
X384464Y404166D01*
X384477Y404216D01*
X384491Y404272D01*
X384501Y404337D01*
X384505Y404410D01*
Y404443D01*
X384501Y404480D01*
X384496Y404521D01*
X384487Y404567D01*
X384477Y404614D01*
X384459Y404660D01*
X384436Y404697D01*
X384431Y404701D01*
X384426Y404711D01*
X384413Y404725D01*
X384394Y404738D01*
X384348Y404766D01*
X384320Y404775D01*
X384288Y404780D01*
X384283D01*
X384274D01*
X384256Y404775D01*
X384237Y404771D01*
X384214Y404762D01*
X384191Y404743D01*
X384168Y404725D01*
X384145Y404697D01*
Y404692D01*
X384136Y404683D01*
X384126Y404665D01*
X384117Y404632D01*
X384099Y404586D01*
X384089Y404558D01*
X384075Y404521D01*
X384066Y404484D01*
X384052Y404443D01*
X384034Y404396D01*
X384020Y404341D01*
Y404337D01*
X384015Y404323D01*
X384006Y404299D01*
X383997Y404267D01*
X383983Y404230D01*
X383969Y404189D01*
X383937Y404092D01*
X383900Y403990D01*
X383854Y403888D01*
X383831Y403842D01*
X383807Y403796D01*
X383784Y403759D01*
X383761Y403727D01*
Y403722D01*
X383752Y403717D01*
X383729Y403690D01*
X383687Y403657D01*
X383636Y403616D01*
X383572Y403574D01*
X383498Y403537D01*
X383415Y403514D01*
X383369Y403510D01*
X383322Y403505D01*
X383318D01*
X383309D01*
X383290D01*
X383267Y403510D01*
X383239Y403514D01*
X383207Y403519D01*
X383128Y403542D01*
X383040Y403574D01*
X382990Y403597D01*
X382944Y403625D01*
X382893Y403657D01*
X382846Y403694D01*
X382796Y403736D01*
X382750Y403787D01*
X382745Y403791D01*
X382740Y403800D01*
X382726Y403814D01*
X382713Y403837D01*
X382694Y403865D01*
X382676Y403902D01*
X382652Y403944D01*
X382629Y403990D01*
X382606Y404041D01*
X382583Y404101D01*
X382565Y404161D01*
X382546Y404235D01*
X382532Y404309D01*
X382519Y404387D01*
X382514Y404475D01*
X382509Y404567D01*
Y404614D01*
X382514Y404651D01*
Y404692D01*
X382519Y404743D01*
X382523Y404794D01*
X382532Y404854D01*
X382555Y404979D01*
X382583Y405108D01*
X382629Y405233D01*
X382657Y405288D01*
X382689Y405344D01*
Y405348D01*
X382699Y405358D01*
X382708Y405371D01*
X382722Y405390D01*
X382768Y405436D01*
X382823Y405491D01*
X382897Y405551D01*
X382990Y405616D01*
X383091Y405672D01*
X383211Y405713D01*
X383309Y405108D01*
D02*
G37*
G36*
X384889Y402659D02*
Y402036D01*
X382569Y402525D01*
Y403145D01*
X384889Y402659D01*
D02*
G37*
G36*
X385766Y402475D02*
Y401856D01*
X385203Y401971D01*
Y402595D01*
X385766Y402475D01*
D02*
G37*
G36*
X383586Y401805D02*
X383632D01*
X383687Y401800D01*
X383747Y401791D01*
X383821Y401777D01*
X383895Y401763D01*
X383974Y401745D01*
X384057Y401721D01*
X384145Y401694D01*
X384228Y401657D01*
X384316Y401615D01*
X384399Y401569D01*
X384477Y401514D01*
X384551Y401449D01*
X384556Y401444D01*
X384570Y401431D01*
X384588Y401412D01*
X384611Y401384D01*
X384644Y401347D01*
X384676Y401301D01*
X384708Y401250D01*
X384745Y401190D01*
X384782Y401126D01*
X384815Y401056D01*
X384852Y400978D01*
X384879Y400890D01*
X384902Y400802D01*
X384921Y400705D01*
X384935Y400599D01*
X384939Y400493D01*
Y400442D01*
X384935Y400410D01*
X384930Y400363D01*
X384926Y400317D01*
X384916Y400262D01*
X384902Y400202D01*
X384870Y400072D01*
X384847Y400007D01*
X384819Y399938D01*
X384787Y399873D01*
X384745Y399809D01*
X384704Y399749D01*
X384653Y399693D01*
X384648Y399689D01*
X384639Y399679D01*
X384625Y399666D01*
X384602Y399647D01*
X384574Y399624D01*
X384537Y399601D01*
X384501Y399573D01*
X384454Y399546D01*
X384399Y399522D01*
X384343Y399495D01*
X384279Y399472D01*
X384214Y399448D01*
X384140Y399430D01*
X384062Y399416D01*
X383978Y399407D01*
X383891Y399402D01*
X383886D01*
X383868D01*
X383835D01*
X383798Y399407D01*
X383747Y399412D01*
X383692Y399421D01*
X383627Y399435D01*
X383558Y399448D01*
X383484Y399467D01*
X383405Y399490D01*
X383322Y399518D01*
X383244Y399555D01*
X383161Y399596D01*
X383078Y399642D01*
X382994Y399698D01*
X382916Y399763D01*
X382911Y399767D01*
X382897Y399781D01*
X382879Y399800D01*
X382851Y399827D01*
X382823Y399864D01*
X382786Y399910D01*
X382750Y399961D01*
X382713Y400017D01*
X382676Y400086D01*
X382639Y400155D01*
X382602Y400234D01*
X382574Y400322D01*
X382546Y400414D01*
X382528Y400511D01*
X382514Y400617D01*
X382509Y400728D01*
Y400784D01*
X382514Y400811D01*
X382519Y400844D01*
X382528Y400922D01*
X382542Y401015D01*
X382565Y401112D01*
X382597Y401213D01*
X382639Y401310D01*
Y401315D01*
X382643Y401320D01*
X382652Y401334D01*
X382662Y401352D01*
X382694Y401398D01*
X382736Y401454D01*
X382786Y401514D01*
X382851Y401578D01*
X382925Y401638D01*
X383008Y401689D01*
X383013D01*
X383017Y401694D01*
X383031Y401698D01*
X383050Y401708D01*
X383101Y401726D01*
X383165Y401749D01*
X383239Y401772D01*
X383327Y401791D01*
X383424Y401805D01*
X383526Y401809D01*
X383535D01*
X383553D01*
X383586Y401805D01*
D02*
G37*
G36*
X384889Y398677D02*
Y398086D01*
X384584Y398146D01*
Y398141D01*
X384593Y398136D01*
X384616Y398109D01*
X384648Y398062D01*
X384690Y398007D01*
X384732Y397942D01*
X384778Y397873D01*
X384819Y397799D01*
X384856Y397725D01*
X384861Y397716D01*
X384870Y397693D01*
X384884Y397651D01*
X384898Y397601D01*
X384912Y397540D01*
X384926Y397471D01*
X384935Y397397D01*
X384939Y397319D01*
Y397291D01*
X384935Y397272D01*
X384930Y397217D01*
X384921Y397152D01*
X384898Y397078D01*
X384870Y397005D01*
X384828Y396931D01*
X384773Y396861D01*
X384764Y396852D01*
X384745Y396834D01*
X384708Y396811D01*
X384658Y396778D01*
X384593Y396746D01*
X384519Y396723D01*
X384436Y396704D01*
X384339Y396695D01*
X384334D01*
X384316D01*
X384283Y396700D01*
X384232Y396709D01*
X384172Y396718D01*
X384089Y396732D01*
X384043Y396741D01*
X383992Y396750D01*
X383937Y396764D01*
X383877Y396778D01*
X382569Y397060D01*
Y397679D01*
X383881Y397397D01*
X383886D01*
X383895Y397393D01*
X383909D01*
X383928Y397388D01*
X383978Y397379D01*
X384034Y397365D01*
X384094Y397356D01*
X384154Y397346D01*
X384200Y397337D01*
X384219Y397333D01*
X384232D01*
X384237D01*
X384251D01*
X384274Y397337D01*
X384302Y397342D01*
X384330Y397351D01*
X384362Y397365D01*
X384394Y397383D01*
X384422Y397407D01*
X384426Y397411D01*
X384431Y397420D01*
X384445Y397434D01*
X384459Y397457D01*
X384468Y397485D01*
X384482Y397517D01*
X384487Y397559D01*
X384491Y397605D01*
Y397628D01*
X384487Y397656D01*
X384477Y397697D01*
X384464Y397744D01*
X384440Y397795D01*
X384413Y397850D01*
X384376Y397915D01*
X384371Y397924D01*
X384353Y397942D01*
X384330Y397975D01*
X384293Y398012D01*
X384251Y398053D01*
X384200Y398099D01*
X384140Y398141D01*
X384071Y398183D01*
X384066Y398187D01*
X384043Y398197D01*
X384006Y398210D01*
X383978Y398220D01*
X383951Y398229D01*
X383914Y398238D01*
X383877Y398252D01*
X383831Y398266D01*
X383780Y398280D01*
X383724Y398293D01*
X383660Y398312D01*
X383590Y398326D01*
X383516Y398344D01*
X382569Y398543D01*
Y399162D01*
X384889Y398677D01*
D02*
G37*
G36*
X382846Y395970D02*
X382851D01*
X382856Y395965D01*
X382879Y395956D01*
X382911Y395942D01*
X382953Y395919D01*
X382999Y395891D01*
X383045Y395854D01*
X383082Y395808D01*
X383115Y395757D01*
X383119Y395753D01*
X383128Y395729D01*
X383138Y395702D01*
X383151Y395669D01*
X383179Y395586D01*
X383184Y395545D01*
X383188Y395508D01*
Y395489D01*
X383184Y395466D01*
X383179Y395438D01*
X383170Y395406D01*
X383151Y395369D01*
X383133Y395337D01*
X383105Y395300D01*
X383101Y395295D01*
X383091Y395286D01*
X383068Y395272D01*
X383040Y395263D01*
X383004Y395253D01*
X382957D01*
X382902Y395263D01*
X382837Y395281D01*
X382828Y395286D01*
X382809Y395295D01*
X382773Y395314D01*
X382736Y395337D01*
X382694Y395369D01*
X382648Y395411D01*
X382606Y395461D01*
X382574Y395517D01*
X382569Y395521D01*
X382565Y395545D01*
X382551Y395572D01*
X382537Y395605D01*
X382514Y395679D01*
X382505Y395715D01*
X382500Y395743D01*
Y395757D01*
X382505Y395771D01*
X382509Y395790D01*
X382519Y395813D01*
X382532Y395845D01*
X382551Y395877D01*
X382574Y395919D01*
X382578Y395923D01*
X382588Y395933D01*
X382611Y395951D01*
X382639Y395965D01*
X382676Y395979D01*
X382722Y395984D01*
X382777D01*
X382846Y395970D01*
D02*
G37*
G36*
X383821Y395632D02*
X383886Y395614D01*
X383895Y395609D01*
X383918Y395600D01*
X383951Y395582D01*
X383988Y395559D01*
X384034Y395526D01*
X384075Y395484D01*
X384112Y395438D01*
X384145Y395383D01*
X384149Y395374D01*
X384154Y395355D01*
X384168Y395327D01*
X384182Y395290D01*
X384205Y395212D01*
X384209Y395175D01*
X384214Y395143D01*
Y395129D01*
X384209Y395110D01*
X384205Y395087D01*
X384195Y395059D01*
X384186Y395027D01*
X384168Y394990D01*
X384145Y394949D01*
X384140Y394944D01*
X384131Y394930D01*
X384112Y394916D01*
X384085Y394898D01*
X384048Y394889D01*
X383997Y394884D01*
X383941Y394889D01*
X383868Y394907D01*
X383858Y394912D01*
X383835Y394921D01*
X383798Y394939D01*
X383757Y394963D01*
X383710Y394999D01*
X383664Y395041D01*
X383623Y395092D01*
X383590Y395157D01*
X383586Y395166D01*
X383581Y395184D01*
X383572Y395217D01*
X383558Y395253D01*
X383535Y395332D01*
X383530Y395364D01*
X383526Y395392D01*
Y395411D01*
X383530Y395429D01*
X383535Y395457D01*
X383549Y395484D01*
X383563Y395517D01*
X383586Y395554D01*
X383613Y395591D01*
X383618Y395595D01*
X383632Y395605D01*
X383650Y395619D01*
X383683Y395628D01*
X383720Y395637D01*
X383766Y395642D01*
X383821Y395632D01*
D02*
G37*
G36*
X383687Y391858D02*
X383734D01*
X383784Y391853D01*
X383844Y391849D01*
X383909Y391844D01*
X383978Y391835D01*
X384057Y391821D01*
X384223Y391793D01*
X384399Y391756D01*
X384584Y391701D01*
X384593Y391696D01*
X384611Y391691D01*
X384644Y391678D01*
X384685Y391664D01*
X384736Y391645D01*
X384791Y391618D01*
X384856Y391590D01*
X384926Y391558D01*
X385073Y391484D01*
X385221Y391396D01*
X385295Y391350D01*
X385364Y391294D01*
X385429Y391239D01*
X385489Y391183D01*
X385494Y391179D01*
X385503Y391170D01*
X385517Y391151D01*
X385535Y391128D01*
X385558Y391100D01*
X385581Y391063D01*
X385609Y391022D01*
X385637Y390975D01*
X385692Y390874D01*
X385739Y390754D01*
X385757Y390689D01*
X385771Y390624D01*
X385780Y390555D01*
X385785Y390481D01*
Y390444D01*
X385780Y390416D01*
X385776Y390384D01*
X385771Y390347D01*
X385748Y390255D01*
X385716Y390153D01*
X385692Y390102D01*
X385665Y390047D01*
X385632Y389996D01*
X385591Y389941D01*
X385549Y389890D01*
X385498Y389844D01*
X385494Y389839D01*
X385485Y389834D01*
X385471Y389820D01*
X385448Y389802D01*
X385415Y389784D01*
X385383Y389765D01*
X385341Y389742D01*
X385291Y389714D01*
X385235Y389691D01*
X385175Y389668D01*
X385106Y389650D01*
X385036Y389631D01*
X384953Y389613D01*
X384870Y389599D01*
X384778Y389594D01*
X384681Y389589D01*
X384676D01*
X384658D01*
X384630D01*
X384593Y389594D01*
X384551D01*
X384496Y389599D01*
X384436Y389603D01*
X384366Y389613D01*
X384288Y389622D01*
X384209Y389636D01*
X384122Y389650D01*
X384034Y389668D01*
X383840Y389714D01*
X383636Y389774D01*
X383632D01*
X383613Y389784D01*
X383586Y389793D01*
X383549Y389807D01*
X383503Y389825D01*
X383447Y389848D01*
X383392Y389876D01*
X383327Y389904D01*
X383193Y389978D01*
X383054Y390061D01*
X382920Y390158D01*
X382856Y390213D01*
X382800Y390269D01*
X382796Y390273D01*
X382786Y390282D01*
X382773Y390301D01*
X382754Y390324D01*
X382731Y390352D01*
X382708Y390389D01*
X382680Y390426D01*
X382657Y390472D01*
X382602Y390578D01*
X382555Y390694D01*
X382537Y390758D01*
X382523Y390828D01*
X382514Y390897D01*
X382509Y390971D01*
Y391008D01*
X382514Y391036D01*
X382519Y391068D01*
X382523Y391105D01*
X382546Y391197D01*
X382578Y391299D01*
X382602Y391350D01*
X382629Y391405D01*
X382662Y391460D01*
X382699Y391511D01*
X382740Y391562D01*
X382791Y391613D01*
X382796Y391618D01*
X382805Y391622D01*
X382819Y391636D01*
X382842Y391650D01*
X382874Y391668D01*
X382907Y391691D01*
X382948Y391715D01*
X382999Y391738D01*
X383054Y391761D01*
X383115Y391784D01*
X383179Y391802D01*
X383253Y391826D01*
X383332Y391839D01*
X383415Y391853D01*
X383507Y391858D01*
X383604Y391863D01*
X383609D01*
X383627D01*
X383650D01*
X383687Y391858D01*
D02*
G37*
G36*
X383174Y389335D02*
Y388716D01*
X382569Y388836D01*
Y389455D01*
X383174Y389335D01*
D02*
G37*
G36*
X384963Y387765D02*
Y387760D01*
X384967Y387755D01*
X384976Y387728D01*
X384999Y387686D01*
X385027Y387631D01*
X385059Y387566D01*
X385096Y387487D01*
X385143Y387400D01*
X385198Y387307D01*
X385254Y387210D01*
X385318Y387108D01*
X385387Y387002D01*
X385457Y386901D01*
X385535Y386799D01*
X385614Y386697D01*
X385697Y386605D01*
X385785Y386517D01*
Y386138D01*
X382569Y386813D01*
Y387441D01*
X384782Y386979D01*
X384778Y386988D01*
X384759Y387012D01*
X384736Y387053D01*
X384704Y387108D01*
X384667Y387173D01*
X384630Y387252D01*
X384588Y387339D01*
X384547Y387432D01*
Y387437D01*
X384542Y387441D01*
X384537Y387455D01*
X384528Y387474D01*
X384514Y387524D01*
X384491Y387584D01*
X384468Y387654D01*
X384445Y387732D01*
X384422Y387806D01*
X384403Y387885D01*
X384963Y387765D01*
D02*
G37*
G36*
X383174Y385607D02*
Y384988D01*
X382569Y385108D01*
Y385727D01*
X383174Y385607D01*
D02*
G37*
G36*
X383687Y384401D02*
X383734D01*
X383784Y384397D01*
X383844Y384392D01*
X383909Y384387D01*
X383978Y384378D01*
X384057Y384364D01*
X384223Y384336D01*
X384399Y384299D01*
X384584Y384244D01*
X384593Y384240D01*
X384611Y384235D01*
X384644Y384221D01*
X384685Y384207D01*
X384736Y384189D01*
X384791Y384161D01*
X384856Y384133D01*
X384926Y384101D01*
X385073Y384027D01*
X385221Y383939D01*
X385295Y383893D01*
X385364Y383838D01*
X385429Y383782D01*
X385489Y383727D01*
X385494Y383722D01*
X385503Y383713D01*
X385517Y383694D01*
X385535Y383671D01*
X385558Y383644D01*
X385581Y383607D01*
X385609Y383565D01*
X385637Y383519D01*
X385692Y383417D01*
X385739Y383297D01*
X385757Y383232D01*
X385771Y383168D01*
X385780Y383098D01*
X385785Y383024D01*
Y382987D01*
X385780Y382960D01*
X385776Y382927D01*
X385771Y382890D01*
X385748Y382798D01*
X385716Y382696D01*
X385692Y382646D01*
X385665Y382590D01*
X385632Y382539D01*
X385591Y382484D01*
X385549Y382433D01*
X385498Y382387D01*
X385494Y382382D01*
X385485Y382378D01*
X385471Y382364D01*
X385448Y382345D01*
X385415Y382327D01*
X385383Y382308D01*
X385341Y382285D01*
X385291Y382258D01*
X385235Y382234D01*
X385175Y382211D01*
X385106Y382193D01*
X385036Y382174D01*
X384953Y382156D01*
X384870Y382142D01*
X384778Y382137D01*
X384681Y382133D01*
X384676D01*
X384658D01*
X384630D01*
X384593Y382137D01*
X384551D01*
X384496Y382142D01*
X384436Y382147D01*
X384366Y382156D01*
X384288Y382165D01*
X384209Y382179D01*
X384122Y382193D01*
X384034Y382211D01*
X383840Y382258D01*
X383636Y382317D01*
X383632D01*
X383613Y382327D01*
X383586Y382336D01*
X383549Y382350D01*
X383503Y382368D01*
X383447Y382392D01*
X383392Y382419D01*
X383327Y382447D01*
X383193Y382521D01*
X383054Y382604D01*
X382920Y382701D01*
X382856Y382756D01*
X382800Y382812D01*
X382796Y382817D01*
X382786Y382826D01*
X382773Y382844D01*
X382754Y382867D01*
X382731Y382895D01*
X382708Y382932D01*
X382680Y382969D01*
X382657Y383015D01*
X382602Y383121D01*
X382555Y383237D01*
X382537Y383302D01*
X382523Y383371D01*
X382514Y383440D01*
X382509Y383514D01*
Y383551D01*
X382514Y383579D01*
X382519Y383611D01*
X382523Y383648D01*
X382546Y383740D01*
X382578Y383842D01*
X382602Y383893D01*
X382629Y383948D01*
X382662Y384004D01*
X382699Y384055D01*
X382740Y384105D01*
X382791Y384156D01*
X382796Y384161D01*
X382805Y384166D01*
X382819Y384179D01*
X382842Y384193D01*
X382874Y384212D01*
X382907Y384235D01*
X382948Y384258D01*
X382999Y384281D01*
X383054Y384304D01*
X383115Y384327D01*
X383179Y384346D01*
X383253Y384369D01*
X383332Y384383D01*
X383415Y384397D01*
X383507Y384401D01*
X383604Y384406D01*
X383609D01*
X383627D01*
X383650D01*
X383687Y384401D01*
D02*
G37*
G36*
X388141Y455987D02*
X388132Y456153D01*
X388114Y456301D01*
X388086Y456440D01*
X388058Y456551D01*
X388031Y456634D01*
X388003Y456699D01*
X387984Y456736D01*
X387975Y456754D01*
X387910Y456856D01*
X387836Y456949D01*
X387762Y457023D01*
X387688Y457088D01*
X387624Y457134D01*
X387577Y457171D01*
X387540Y457189D01*
X387531Y457198D01*
X387439Y457235D01*
X387318Y457282D01*
X387189Y457319D01*
X387050Y457356D01*
X386930Y457383D01*
X386828Y457411D01*
X386791Y457420D01*
X386763D01*
X386745Y457430D01*
X386736D01*
X386264Y457522D01*
Y458225D01*
X385348Y458420D01*
Y457717D01*
X381620Y458494D01*
X388141D01*
Y455987D01*
D02*
G37*
G36*
Y458494D02*
X381620D01*
Y457254D01*
X385348Y456468D01*
Y455571D01*
X386264Y455376D01*
Y455709D01*
Y456283D01*
X386578Y456209D01*
X386708Y456181D01*
X386819Y456153D01*
X386902Y456125D01*
X386958Y456107D01*
X387004Y456088D01*
X387032Y456070D01*
X387050Y456061D01*
X387096Y456014D01*
X387133Y455968D01*
X387161Y455913D01*
X387179Y455866D01*
X387189Y455820D01*
X387198Y455783D01*
Y455746D01*
X387189Y455635D01*
X387170Y455515D01*
X387152Y455385D01*
X387124Y455274D01*
X387087Y455173D01*
X387069Y455090D01*
X387050Y455034D01*
X387041Y455025D01*
Y455016D01*
X387929Y454766D01*
X388003Y454997D01*
X388049Y455228D01*
X388086Y455432D01*
X388114Y455617D01*
X388132Y455765D01*
Y455829D01*
X388141Y455885D01*
Y454766D01*
D01*
Y415407D01*
X388021D01*
Y420337D01*
D01*
Y418996D01*
X381620Y420337D01*
Y420198D01*
X381500D01*
X381620D01*
Y419098D01*
X383452Y418709D01*
X383609Y418672D01*
X383748Y418645D01*
X383868Y418617D01*
X383988Y418589D01*
X384090Y418561D01*
X384173Y418543D01*
X384257Y418515D01*
X384321Y418497D01*
X384377Y418478D01*
X384423Y418469D01*
X384497Y418441D01*
X384534Y418432D01*
X384543Y418423D01*
X384691Y418339D01*
X384830Y418247D01*
X384950Y418145D01*
X385052Y418052D01*
X385135Y417969D01*
X385191Y417905D01*
X385237Y417858D01*
X385246Y417840D01*
X385320Y417729D01*
X385376Y417618D01*
X385413Y417516D01*
X385440Y417414D01*
X385459Y417340D01*
X385468Y417275D01*
Y417220D01*
X385459Y417128D01*
X385450Y417054D01*
X385422Y416980D01*
X385394Y416924D01*
X385367Y416878D01*
X385348Y416850D01*
X385330Y416831D01*
X385320Y416822D01*
X385265Y416776D01*
X385200Y416739D01*
X385144Y416711D01*
X385080Y416693D01*
X385033Y416683D01*
X384987Y416674D01*
X384960D01*
X384950D01*
X384886Y416683D01*
X384802Y416693D01*
X384710Y416711D01*
X384617Y416730D01*
X384525Y416748D01*
X384451Y416757D01*
X384395Y416776D01*
X384386D01*
X384377D01*
X381620Y417368D01*
Y417729D01*
Y416128D01*
X384321Y415546D01*
X384525Y415499D01*
X384710Y415472D01*
X384858Y415444D01*
X384978Y415425D01*
X385070Y415416D01*
X385135Y415407D01*
X381620D01*
Y415407D01*
X381500D01*
Y470500D01*
X388141D01*
Y458494D01*
D02*
G37*
G36*
X388021Y417757D02*
Y415407D01*
X385191D01*
X385376Y415425D01*
X385542Y415462D01*
X385681Y415509D01*
X385810Y415574D01*
X385903Y415638D01*
X385977Y415685D01*
X386014Y415722D01*
X386033Y415740D01*
X386143Y415870D01*
X386227Y416017D01*
X386282Y416165D01*
X386329Y416314D01*
X386347Y416443D01*
X386356Y416545D01*
X386366Y416582D01*
Y416637D01*
X386356Y416794D01*
X386347Y416943D01*
X386319Y417072D01*
X386292Y417192D01*
X386264Y417294D01*
X386245Y417368D01*
X386227Y417414D01*
X386217Y417433D01*
X386153Y417571D01*
X386079Y417710D01*
X386005Y417849D01*
X385922Y417969D01*
X385847Y418071D01*
X385792Y418154D01*
X385755Y418210D01*
X385736Y418219D01*
Y418228D01*
X388021Y417757D01*
D02*
G37*
%LPC*%
G36*
X263498Y491890D02*
X263493D01*
X263489D01*
X263475D01*
X263456D01*
X263410Y491886D01*
X263355Y491876D01*
X263295Y491858D01*
X263230Y491839D01*
X263165Y491807D01*
X263110Y491765D01*
X263105Y491761D01*
X263087Y491742D01*
X263068Y491715D01*
X263040Y491678D01*
X263017Y491631D01*
X262994Y491576D01*
X262976Y491516D01*
X262971Y491451D01*
Y491424D01*
X262976Y491391D01*
X262985Y491345D01*
X262999Y491299D01*
X263022Y491243D01*
X263050Y491188D01*
X263087Y491132D01*
X263091Y491128D01*
X263110Y491109D01*
X263138Y491082D01*
X263175Y491045D01*
X263225Y491008D01*
X263285Y490966D01*
X263359Y490929D01*
X263442Y490892D01*
X263447D01*
X263452Y490888D01*
X263466Y490883D01*
X263484Y490878D01*
X263530Y490865D01*
X263590Y490846D01*
X263660Y490832D01*
X263738Y490818D01*
X263821Y490809D01*
X263905Y490804D01*
X263909D01*
X263914D01*
X263928D01*
X263946D01*
X263992Y490814D01*
X264048Y490823D01*
X264112Y490837D01*
X264182Y490865D01*
X264246Y490897D01*
X264311Y490943D01*
X264316Y490948D01*
X264334Y490966D01*
X264362Y490994D01*
X264390Y491031D01*
X264417Y491077D01*
X264445Y491132D01*
X264463Y491192D01*
X264468Y491257D01*
Y491285D01*
X264463Y491303D01*
X264450Y491354D01*
X264431Y491419D01*
X264394Y491493D01*
X264367Y491530D01*
X264339Y491567D01*
X264302Y491604D01*
X264260Y491645D01*
X264214Y491678D01*
X264159Y491715D01*
X264154D01*
X264145Y491724D01*
X264126Y491728D01*
X264108Y491742D01*
X264075Y491756D01*
X264043Y491770D01*
X264006Y491784D01*
X263960Y491802D01*
X263863Y491835D01*
X263752Y491862D01*
X263627Y491881D01*
X263498Y491890D01*
D02*
G37*
G36*
X263230Y485519D02*
X263225D01*
X263211D01*
X263193Y485515D01*
X263165Y485510D01*
X263138Y485501D01*
X263105Y485487D01*
X263073Y485468D01*
X263045Y485441D01*
X263040Y485436D01*
X263036Y485427D01*
X263022Y485408D01*
X263008Y485385D01*
X262994Y485358D01*
X262985Y485321D01*
X262976Y485279D01*
X262971Y485233D01*
Y485210D01*
X262976Y485182D01*
X262981Y485150D01*
X262985Y485108D01*
X262999Y485062D01*
X263013Y485016D01*
X263036Y484969D01*
X263040Y484965D01*
X263050Y484946D01*
X263064Y484923D01*
X263087Y484896D01*
X263110Y484868D01*
X263142Y484835D01*
X263175Y484803D01*
X263216Y484780D01*
X263221Y484775D01*
X263239Y484771D01*
X263262Y484757D01*
X263299Y484743D01*
X263346Y484725D01*
X263405Y484706D01*
X263475Y484688D01*
X263553Y484669D01*
X263641Y484651D01*
Y484655D01*
X263636Y484660D01*
Y484674D01*
X263632Y484692D01*
X263618Y484738D01*
X263609Y484803D01*
Y484808D01*
X263604Y484822D01*
Y484849D01*
X263600Y484877D01*
X263595Y484919D01*
X263586Y484960D01*
X263567Y485057D01*
X263544Y485159D01*
X263516Y485260D01*
X263498Y485307D01*
X263479Y485348D01*
X263461Y485385D01*
X263442Y485418D01*
X263438Y485422D01*
X263429Y485431D01*
X263410Y485450D01*
X263387Y485468D01*
X263355Y485487D01*
X263318Y485505D01*
X263276Y485515D01*
X263230Y485519D01*
D02*
G37*
G36*
X263498Y482817D02*
X263493D01*
X263489D01*
X263461D01*
X263415Y482807D01*
X263364Y482798D01*
X263299Y482784D01*
X263239Y482761D01*
X263175Y482729D01*
X263115Y482687D01*
X263110Y482683D01*
X263091Y482664D01*
X263068Y482636D01*
X263045Y482599D01*
X263017Y482553D01*
X262994Y482498D01*
X262976Y482438D01*
X262971Y482373D01*
Y482345D01*
X262976Y482317D01*
X262985Y482276D01*
X262999Y482230D01*
X263017Y482179D01*
X263045Y482128D01*
X263082Y482073D01*
X263087Y482068D01*
X263105Y482050D01*
X263133Y482022D01*
X263170Y481989D01*
X263221Y481952D01*
X263285Y481911D01*
X263359Y481869D01*
X263447Y481832D01*
X263452D01*
X263456Y481828D01*
X263470Y481823D01*
X263489Y481819D01*
X263540Y481800D01*
X263604Y481782D01*
X263678Y481768D01*
X263766Y481749D01*
X263858Y481740D01*
X263951Y481735D01*
X263955D01*
X263960D01*
X263974D01*
X263992D01*
X264034Y481740D01*
X264089Y481749D01*
X264154Y481768D01*
X264219Y481791D01*
X264283Y481823D01*
X264339Y481865D01*
X264343Y481869D01*
X264362Y481888D01*
X264385Y481916D01*
X264413Y481952D01*
X264436Y481999D01*
X264459Y482050D01*
X264477Y482110D01*
X264482Y482174D01*
Y482197D01*
X264477Y482216D01*
X264473Y482258D01*
X264454Y482317D01*
X264426Y482382D01*
X264390Y482447D01*
X264334Y482521D01*
X264297Y482553D01*
X264260Y482585D01*
X264256Y482590D01*
X264246Y482595D01*
X264228Y482609D01*
X264205Y482622D01*
X264177Y482641D01*
X264140Y482659D01*
X264099Y482678D01*
X264052Y482701D01*
X264001Y482724D01*
X263941Y482743D01*
X263881Y482761D01*
X263812Y482780D01*
X263664Y482807D01*
X263581Y482812D01*
X263498Y482817D01*
D02*
G37*
G36*
X263905Y478922D02*
Y477938D01*
X263909D01*
X263928D01*
X263946D01*
X263965D01*
X263969D01*
X263974D01*
X263988D01*
X264006D01*
X264052Y477942D01*
X264112Y477952D01*
X264172Y477965D01*
X264237Y477989D01*
X264297Y478016D01*
X264353Y478053D01*
X264357Y478058D01*
X264371Y478076D01*
X264394Y478099D01*
X264417Y478136D01*
X264440Y478178D01*
X264463Y478233D01*
X264477Y478294D01*
X264482Y478363D01*
Y478395D01*
X264473Y478432D01*
X264463Y478478D01*
X264445Y478534D01*
X264422Y478594D01*
X264385Y478654D01*
X264334Y478714D01*
X264330Y478719D01*
X264306Y478737D01*
X264274Y478765D01*
X264223Y478797D01*
X264163Y478829D01*
X264089Y478866D01*
X264006Y478899D01*
X263905Y478922D01*
D02*
G37*
G36*
Y468335D02*
Y467351D01*
X263909D01*
X263928D01*
X263946D01*
X263965D01*
X263969D01*
X263974D01*
X263988D01*
X264006D01*
X264052Y467355D01*
X264112Y467365D01*
X264172Y467378D01*
X264237Y467402D01*
X264297Y467429D01*
X264353Y467466D01*
X264357Y467471D01*
X264371Y467489D01*
X264394Y467512D01*
X264417Y467549D01*
X264440Y467591D01*
X264463Y467646D01*
X264477Y467706D01*
X264482Y467776D01*
Y467808D01*
X264473Y467845D01*
X264463Y467891D01*
X264445Y467947D01*
X264422Y468007D01*
X264385Y468067D01*
X264334Y468127D01*
X264330Y468131D01*
X264306Y468150D01*
X264274Y468178D01*
X264223Y468210D01*
X264163Y468242D01*
X264089Y468279D01*
X264006Y468312D01*
X263905Y468335D01*
D02*
G37*
G36*
X263230Y463257D02*
X263225D01*
X263211D01*
X263193Y463253D01*
X263165Y463248D01*
X263138Y463239D01*
X263105Y463225D01*
X263073Y463206D01*
X263045Y463179D01*
X263040Y463174D01*
X263036Y463165D01*
X263022Y463146D01*
X263008Y463123D01*
X262994Y463096D01*
X262985Y463059D01*
X262976Y463017D01*
X262971Y462971D01*
Y462948D01*
X262976Y462920D01*
X262981Y462888D01*
X262985Y462846D01*
X262999Y462800D01*
X263013Y462754D01*
X263036Y462708D01*
X263040Y462703D01*
X263050Y462684D01*
X263064Y462661D01*
X263087Y462634D01*
X263110Y462606D01*
X263142Y462574D01*
X263175Y462541D01*
X263216Y462518D01*
X263221Y462513D01*
X263239Y462509D01*
X263262Y462495D01*
X263299Y462481D01*
X263346Y462463D01*
X263405Y462444D01*
X263475Y462426D01*
X263553Y462407D01*
X263641Y462389D01*
Y462393D01*
X263636Y462398D01*
Y462412D01*
X263632Y462430D01*
X263618Y462477D01*
X263609Y462541D01*
Y462546D01*
X263604Y462560D01*
Y462587D01*
X263600Y462615D01*
X263595Y462657D01*
X263586Y462698D01*
X263567Y462795D01*
X263544Y462897D01*
X263516Y462999D01*
X263498Y463045D01*
X263479Y463086D01*
X263461Y463123D01*
X263442Y463156D01*
X263438Y463160D01*
X263429Y463170D01*
X263410Y463188D01*
X263387Y463206D01*
X263355Y463225D01*
X263318Y463243D01*
X263276Y463253D01*
X263230Y463257D01*
D02*
G37*
G36*
X263498Y460555D02*
X263493D01*
X263489D01*
X263461D01*
X263415Y460545D01*
X263364Y460536D01*
X263299Y460522D01*
X263239Y460499D01*
X263175Y460467D01*
X263115Y460425D01*
X263110Y460421D01*
X263091Y460402D01*
X263068Y460374D01*
X263045Y460337D01*
X263017Y460291D01*
X262994Y460236D01*
X262976Y460176D01*
X262971Y460111D01*
Y460083D01*
X262976Y460056D01*
X262985Y460014D01*
X262999Y459968D01*
X263017Y459917D01*
X263045Y459866D01*
X263082Y459811D01*
X263087Y459806D01*
X263105Y459788D01*
X263133Y459760D01*
X263170Y459728D01*
X263221Y459691D01*
X263285Y459649D01*
X263359Y459608D01*
X263447Y459571D01*
X263452D01*
X263456Y459566D01*
X263470Y459561D01*
X263489Y459557D01*
X263540Y459538D01*
X263604Y459520D01*
X263678Y459506D01*
X263766Y459487D01*
X263858Y459478D01*
X263951Y459474D01*
X263955D01*
X263960D01*
X263974D01*
X263992D01*
X264034Y459478D01*
X264089Y459487D01*
X264154Y459506D01*
X264219Y459529D01*
X264283Y459561D01*
X264339Y459603D01*
X264343Y459608D01*
X264362Y459626D01*
X264385Y459654D01*
X264413Y459691D01*
X264436Y459737D01*
X264459Y459788D01*
X264477Y459848D01*
X264482Y459912D01*
Y459936D01*
X264477Y459954D01*
X264473Y459996D01*
X264454Y460056D01*
X264426Y460120D01*
X264390Y460185D01*
X264334Y460259D01*
X264297Y460291D01*
X264260Y460324D01*
X264256Y460328D01*
X264246Y460333D01*
X264228Y460347D01*
X264205Y460361D01*
X264177Y460379D01*
X264140Y460398D01*
X264099Y460416D01*
X264052Y460439D01*
X264001Y460462D01*
X263941Y460481D01*
X263881Y460499D01*
X263812Y460518D01*
X263664Y460545D01*
X263581Y460550D01*
X263498Y460555D01*
D02*
G37*
G36*
X263905Y456660D02*
Y455676D01*
X263909D01*
X263928D01*
X263946D01*
X263965D01*
X263969D01*
X263974D01*
X263988D01*
X264006D01*
X264052Y455681D01*
X264112Y455690D01*
X264172Y455704D01*
X264237Y455727D01*
X264297Y455755D01*
X264353Y455791D01*
X264357Y455796D01*
X264371Y455815D01*
X264394Y455838D01*
X264417Y455875D01*
X264440Y455916D01*
X264463Y455972D01*
X264477Y456032D01*
X264482Y456101D01*
Y456133D01*
X264473Y456170D01*
X264463Y456216D01*
X264445Y456272D01*
X264422Y456332D01*
X264385Y456392D01*
X264334Y456452D01*
X264330Y456457D01*
X264306Y456475D01*
X264274Y456503D01*
X264223Y456535D01*
X264163Y456568D01*
X264089Y456604D01*
X264006Y456637D01*
X263905Y456660D01*
D02*
G37*
G36*
X383914Y409109D02*
Y408125D01*
X383918D01*
X383937D01*
X383955D01*
X383974D01*
X383978D01*
X383983D01*
X383997D01*
X384015D01*
X384062Y408130D01*
X384122Y408139D01*
X384182Y408153D01*
X384246Y408176D01*
X384306Y408203D01*
X384362Y408240D01*
X384366Y408245D01*
X384380Y408263D01*
X384403Y408287D01*
X384426Y408323D01*
X384450Y408365D01*
X384473Y408421D01*
X384487Y408481D01*
X384491Y408550D01*
Y408582D01*
X384482Y408619D01*
X384473Y408665D01*
X384454Y408721D01*
X384431Y408781D01*
X384394Y408841D01*
X384343Y408901D01*
X384339Y408906D01*
X384316Y408924D01*
X384283Y408952D01*
X384232Y408984D01*
X384172Y409017D01*
X384099Y409054D01*
X384015Y409086D01*
X383914Y409109D01*
D02*
G37*
G36*
X383535Y401181D02*
X383530D01*
X383526D01*
X383512D01*
X383493D01*
X383447Y401172D01*
X383392Y401162D01*
X383327Y401149D01*
X383262Y401126D01*
X383198Y401093D01*
X383138Y401047D01*
X383133Y401042D01*
X383115Y401024D01*
X383091Y400992D01*
X383068Y400955D01*
X383040Y400904D01*
X383017Y400848D01*
X382999Y400784D01*
X382994Y400710D01*
Y400687D01*
X382999Y400668D01*
X383008Y400617D01*
X383022Y400557D01*
X383050Y400488D01*
X383087Y400419D01*
X383142Y400345D01*
X383174Y400308D01*
X383211Y400276D01*
X383216Y400271D01*
X383225Y400266D01*
X383244Y400252D01*
X383267Y400239D01*
X383299Y400215D01*
X383336Y400197D01*
X383378Y400174D01*
X383424Y400151D01*
X383479Y400128D01*
X383535Y400105D01*
X383600Y400081D01*
X383664Y400063D01*
X383812Y400035D01*
X383891Y400031D01*
X383974Y400026D01*
X383978D01*
X383983D01*
X384011D01*
X384052Y400031D01*
X384103Y400044D01*
X384159Y400058D01*
X384219Y400081D01*
X384274Y400114D01*
X384330Y400160D01*
X384334Y400165D01*
X384353Y400183D01*
X384376Y400211D01*
X384399Y400248D01*
X384426Y400299D01*
X384445Y400354D01*
X384464Y400419D01*
X384468Y400493D01*
Y400525D01*
X384464Y400566D01*
X384454Y400613D01*
X384436Y400668D01*
X384413Y400728D01*
X384380Y400793D01*
X384339Y400853D01*
X384334Y400858D01*
X384316Y400881D01*
X384288Y400908D01*
X384246Y400941D01*
X384195Y400982D01*
X384131Y401024D01*
X384057Y401061D01*
X383974Y401098D01*
X383969D01*
X383964Y401102D01*
X383951Y401107D01*
X383932Y401112D01*
X383886Y401126D01*
X383831Y401139D01*
X383761Y401153D01*
X383687Y401167D01*
X383609Y401176D01*
X383535Y401181D01*
D02*
G37*
G36*
X383475Y391253D02*
X383470D01*
X383466D01*
X383452D01*
X383433D01*
X383387Y391248D01*
X383332Y391243D01*
X383272Y391234D01*
X383211Y391216D01*
X383156Y391197D01*
X383110Y391170D01*
X383105Y391165D01*
X383096Y391156D01*
X383078Y391137D01*
X383059Y391109D01*
X383040Y391082D01*
X383022Y391045D01*
X383013Y390999D01*
X383008Y390952D01*
Y390943D01*
X383013Y390925D01*
X383017Y390888D01*
X383027Y390846D01*
X383050Y390800D01*
X383078Y390744D01*
X383115Y390694D01*
X383170Y390638D01*
X383174D01*
X383179Y390629D01*
X383193Y390620D01*
X383216Y390606D01*
X383239Y390592D01*
X383272Y390574D01*
X383313Y390555D01*
X383359Y390532D01*
X383410Y390504D01*
X383475Y390481D01*
X383544Y390453D01*
X383623Y390426D01*
X383710Y390398D01*
X383803Y390370D01*
X383909Y390342D01*
X384025Y390315D01*
X384029D01*
X384048Y390310D01*
X384075Y390305D01*
X384108Y390296D01*
X384149Y390287D01*
X384200Y390278D01*
X384256Y390269D01*
X384316Y390255D01*
X384445Y390236D01*
X384579Y390218D01*
X384708Y390204D01*
X384773Y390199D01*
X384828D01*
X384833D01*
X384838D01*
X384870D01*
X384912Y390204D01*
X384963Y390209D01*
X385018Y390222D01*
X385078Y390236D01*
X385129Y390259D01*
X385175Y390287D01*
X385180Y390292D01*
X385193Y390301D01*
X385212Y390319D01*
X385230Y390347D01*
X385249Y390375D01*
X385267Y390412D01*
X385281Y390458D01*
X385286Y390504D01*
Y390513D01*
X385281Y390532D01*
X385277Y390564D01*
X385267Y390606D01*
X385244Y390652D01*
X385217Y390703D01*
X385180Y390754D01*
X385124Y390805D01*
X385120D01*
X385115Y390814D01*
X385096Y390823D01*
X385078Y390837D01*
X385050Y390851D01*
X385018Y390874D01*
X384981Y390892D01*
X384935Y390915D01*
X384879Y390943D01*
X384819Y390971D01*
X384755Y390999D01*
X384676Y391026D01*
X384597Y391054D01*
X384505Y391082D01*
X384408Y391109D01*
X384302Y391137D01*
X384297D01*
X384279Y391142D01*
X384256Y391146D01*
X384219Y391156D01*
X384177Y391165D01*
X384126Y391174D01*
X384071Y391183D01*
X384011Y391193D01*
X383877Y391216D01*
X383743Y391234D01*
X383604Y391248D01*
X383475Y391253D01*
D02*
G37*
G36*
Y383796D02*
X383470D01*
X383466D01*
X383452D01*
X383433D01*
X383387Y383791D01*
X383332Y383787D01*
X383272Y383777D01*
X383211Y383759D01*
X383156Y383740D01*
X383110Y383713D01*
X383105Y383708D01*
X383096Y383699D01*
X383078Y383680D01*
X383059Y383653D01*
X383040Y383625D01*
X383022Y383588D01*
X383013Y383542D01*
X383008Y383496D01*
Y383486D01*
X383013Y383468D01*
X383017Y383431D01*
X383027Y383389D01*
X383050Y383343D01*
X383078Y383288D01*
X383115Y383237D01*
X383170Y383182D01*
X383174D01*
X383179Y383172D01*
X383193Y383163D01*
X383216Y383149D01*
X383239Y383135D01*
X383272Y383117D01*
X383313Y383098D01*
X383359Y383075D01*
X383410Y383048D01*
X383475Y383024D01*
X383544Y382997D01*
X383623Y382969D01*
X383710Y382941D01*
X383803Y382913D01*
X383909Y382886D01*
X384025Y382858D01*
X384029D01*
X384048Y382854D01*
X384075Y382849D01*
X384108Y382840D01*
X384149Y382830D01*
X384200Y382821D01*
X384256Y382812D01*
X384316Y382798D01*
X384445Y382780D01*
X384579Y382761D01*
X384708Y382747D01*
X384773Y382743D01*
X384828D01*
X384833D01*
X384838D01*
X384870D01*
X384912Y382747D01*
X384963Y382752D01*
X385018Y382766D01*
X385078Y382780D01*
X385129Y382803D01*
X385175Y382830D01*
X385180Y382835D01*
X385193Y382844D01*
X385212Y382863D01*
X385230Y382890D01*
X385249Y382918D01*
X385267Y382955D01*
X385281Y383001D01*
X385286Y383048D01*
Y383057D01*
X385281Y383075D01*
X385277Y383108D01*
X385267Y383149D01*
X385244Y383195D01*
X385217Y383246D01*
X385180Y383297D01*
X385124Y383348D01*
X385120D01*
X385115Y383357D01*
X385096Y383366D01*
X385078Y383380D01*
X385050Y383394D01*
X385018Y383417D01*
X384981Y383436D01*
X384935Y383459D01*
X384879Y383486D01*
X384819Y383514D01*
X384755Y383542D01*
X384676Y383570D01*
X384597Y383597D01*
X384505Y383625D01*
X384408Y383653D01*
X384302Y383680D01*
X384297D01*
X384279Y383685D01*
X384256Y383690D01*
X384219Y383699D01*
X384177Y383708D01*
X384126Y383717D01*
X384071Y383727D01*
X384011Y383736D01*
X383877Y383759D01*
X383743Y383777D01*
X383604Y383791D01*
X383475Y383796D01*
D02*
G37*
G36*
X388021Y470500D02*
X381620D01*
Y465912D01*
X382693Y465690D01*
Y468964D01*
X388021Y467845D01*
Y469159D01*
X381620Y470500D01*
X388021D01*
D01*
D02*
G37*
G36*
Y465033D02*
D01*
Y463692D01*
X381620Y465033D01*
Y463822D01*
X385922Y462915D01*
X381620Y461176D01*
Y459964D01*
X388021Y458623D01*
X381620D01*
X388021D01*
Y465033D01*
D02*
G37*
G36*
X381620Y455709D02*
Y454470D01*
X383072Y454165D01*
X383230Y454128D01*
X383387Y454100D01*
X383526Y454063D01*
X383646Y454026D01*
X383766Y453998D01*
X383877Y453970D01*
X383970Y453933D01*
X384053Y453905D01*
X384127Y453887D01*
X384192Y453859D01*
X384247Y453841D01*
X384294Y453822D01*
X384321Y453813D01*
X384349Y453804D01*
X384367Y453794D01*
X384516Y453721D01*
X384645Y453637D01*
X384756Y453545D01*
X384848Y453462D01*
X384913Y453387D01*
X384969Y453332D01*
X385006Y453295D01*
X385015Y453276D01*
X385098Y453147D01*
X385163Y453027D01*
X385200Y452916D01*
X385237Y452814D01*
X385256Y452731D01*
X385265Y452666D01*
Y452610D01*
X385256Y452472D01*
X385237Y452352D01*
X385219Y452305D01*
X385209Y452268D01*
X385200Y452250D01*
Y452241D01*
X386227Y451759D01*
D01*
D01*
D01*
X386273Y451870D01*
X386307Y451972D01*
D01*
X386310Y451981D01*
X386329Y452083D01*
X386347Y452167D01*
X386356Y452241D01*
X386366Y452296D01*
Y452167D01*
Y454766D01*
D01*
Y452342D01*
X386356Y452481D01*
X386319Y452620D01*
X386273Y452759D01*
X386208Y452879D01*
X386134Y453008D01*
X386051Y453119D01*
X385866Y453332D01*
X385773Y453425D01*
X385681Y453508D01*
X385598Y453582D01*
X385524Y453647D01*
X385459Y453693D01*
X385413Y453730D01*
X385376Y453748D01*
X385367Y453757D01*
X386264Y453573D01*
Y454738D01*
X381620Y455709D01*
D02*
G37*
G36*
X383591Y451972D02*
X383554D01*
X383535D01*
X383331Y451963D01*
X383137Y451935D01*
X382962Y451898D01*
X382814Y451852D01*
X382684Y451806D01*
X382582Y451769D01*
X382564Y451759D01*
X382545Y451750D01*
X382518Y451741D01*
X382508Y451732D01*
X382499D01*
X382332Y451630D01*
X382185Y451510D01*
X382055Y451380D01*
X381953Y451260D01*
X381870Y451149D01*
X381805Y451056D01*
X381787Y451019D01*
X381768Y450992D01*
X381759Y450983D01*
Y450973D01*
X381676Y450779D01*
X381611Y450575D01*
X381565Y450381D01*
X381537Y450196D01*
X381519Y450039D01*
X381509Y449974D01*
X381500Y449919D01*
Y449808D01*
X381509Y449586D01*
X381537Y449373D01*
X381574Y449179D01*
X381629Y448994D01*
X381685Y448818D01*
X381759Y448661D01*
X381833Y448522D01*
X381907Y448383D01*
X381981Y448272D01*
X382055Y448171D01*
X382129Y448078D01*
X382185Y448004D01*
X382240Y447949D01*
X382277Y447912D01*
X382305Y447884D01*
X382314Y447874D01*
X382471Y447745D01*
X382638Y447634D01*
X382804Y447542D01*
X382971Y447458D01*
X383128Y447384D01*
X383295Y447329D01*
X383452Y447283D01*
X383600Y447246D01*
X383738Y447218D01*
X383868Y447190D01*
X383979Y447171D01*
X384081Y447162D01*
X384155Y447153D01*
X384266D01*
X384441Y447162D01*
X384608Y447181D01*
X384765Y447208D01*
X384913Y447246D01*
X385043Y447292D01*
X385172Y447338D01*
X385283Y447394D01*
X385394Y447440D01*
X385487Y447495D01*
X385561Y447551D01*
X385635Y447597D01*
X385690Y447643D01*
X385736Y447680D01*
X385764Y447708D01*
X385783Y447726D01*
X385792Y447736D01*
X385894Y447847D01*
X385977Y447967D01*
X386060Y448097D01*
X386125Y448226D01*
X386180Y448365D01*
X386227Y448494D01*
X386292Y448753D01*
X386319Y448874D01*
X386338Y448984D01*
X386347Y449077D01*
X386356Y449169D01*
X386366Y449234D01*
Y447597D01*
Y451759D01*
D01*
D01*
Y449336D01*
X386356Y449549D01*
X386329Y449761D01*
X386292Y449956D01*
X386245Y450132D01*
X386190Y450307D01*
X386116Y450464D01*
X386051Y450603D01*
X385977Y450733D01*
X385903Y450853D01*
X385838Y450955D01*
X385773Y451047D01*
X385709Y451121D01*
X385663Y451177D01*
X385626Y451214D01*
X385598Y451241D01*
X385589Y451251D01*
X385440Y451380D01*
X385283Y451491D01*
X385117Y451584D01*
X384941Y451667D01*
X384774Y451741D01*
X384599Y451796D01*
X384432Y451843D01*
X384275Y451880D01*
X384127Y451907D01*
X383979Y451935D01*
X383859Y451954D01*
X383748Y451963D01*
X383655D01*
D01*
X383591Y451972D01*
D01*
D01*
D02*
G37*
G36*
X386366Y446728D02*
D01*
Y443231D01*
X386356Y443370D01*
X386338Y443518D01*
X386301Y443647D01*
X386264Y443786D01*
X386153Y444027D01*
X386033Y444248D01*
X385968Y444350D01*
X385912Y444433D01*
X385857Y444508D01*
X385801Y444572D01*
X385764Y444628D01*
X385727Y444665D01*
X385709Y444683D01*
X385700Y444693D01*
X386264Y444582D01*
Y445756D01*
X381620Y446728D01*
Y445488D01*
X383748Y445044D01*
X383850Y445016D01*
X383942Y444998D01*
X384090Y444961D01*
X384220Y444924D01*
X384312Y444905D01*
X384377Y444887D01*
X384423Y444868D01*
X384451Y444859D01*
X384460D01*
X384580Y444813D01*
X384682Y444767D01*
X384784Y444720D01*
X384858Y444674D01*
X384923Y444637D01*
X384969Y444609D01*
X384997Y444591D01*
X385006Y444582D01*
X385080Y444517D01*
X385144Y444452D01*
X385209Y444387D01*
X385256Y444322D01*
X385293Y444276D01*
X385320Y444230D01*
X385330Y444202D01*
X385339Y444193D01*
X385385Y444110D01*
X385413Y444036D01*
X385440Y443962D01*
X385450Y443897D01*
X385459Y443842D01*
X385468Y443805D01*
Y443767D01*
X385459Y443684D01*
X385450Y443619D01*
X385431Y443564D01*
X385413Y443508D01*
X385385Y443471D01*
X385367Y443444D01*
X385357Y443434D01*
X385348Y443425D01*
X385302Y443379D01*
X385246Y443351D01*
X385154Y443314D01*
X385107Y443305D01*
X385070Y443296D01*
X385052D01*
X385043D01*
X384978D01*
X384886Y443314D01*
X384784Y443324D01*
X384673Y443342D01*
X384580Y443361D01*
X384497Y443379D01*
X384432Y443388D01*
X384423Y443398D01*
X384414D01*
X381620Y443980D01*
Y442741D01*
X383720Y442297D01*
X383887Y442260D01*
X384034Y442223D01*
X384173Y442186D01*
X384294Y442139D01*
X384404Y442102D01*
X384506Y442065D01*
X384599Y442029D01*
X384682Y441992D01*
X384747Y441964D01*
X384811Y441927D01*
X384858Y441899D01*
X384904Y441881D01*
X384932Y441862D01*
X384950Y441844D01*
X384969Y441834D01*
X385061Y441760D01*
X385135Y441695D01*
X385200Y441621D01*
X385256Y441547D01*
X385348Y441399D01*
X385403Y441270D01*
X385440Y441159D01*
X385459Y441067D01*
X385468Y441030D01*
Y440983D01*
X385459Y440900D01*
X385450Y440835D01*
X385431Y440770D01*
X385413Y440724D01*
X385385Y440687D01*
X385367Y440660D01*
X385357Y440650D01*
X385348Y440641D01*
X385302Y440604D01*
X385256Y440567D01*
X385154Y440539D01*
X385107Y440530D01*
X385080Y440521D01*
X385052D01*
X385043D01*
X385024D01*
X384997D01*
X384923Y440539D01*
X384821Y440558D01*
X384719Y440576D01*
X384617Y440595D01*
X384525Y440613D01*
X384488Y440623D01*
X384469D01*
X384451Y440632D01*
X384441D01*
X381620Y441233D01*
Y441547D01*
Y439993D01*
X384441Y439383D01*
X384645Y439337D01*
X384821Y439309D01*
X384969Y439281D01*
X385080Y439272D01*
X385163Y439263D01*
X385228Y439254D01*
X385274D01*
X385450Y439263D01*
X385607Y439300D01*
X385736Y439355D01*
X385847Y439411D01*
X385940Y439466D01*
X386005Y439522D01*
X386051Y439559D01*
X386060Y439568D01*
X386162Y439688D01*
X386236Y439827D01*
X386292Y439975D01*
X386329Y440114D01*
X386347Y440234D01*
X386366Y440336D01*
Y439688D01*
Y446728D01*
D02*
G37*
G36*
X388021Y438698D02*
D01*
Y437357D01*
X381620Y438698D01*
Y437487D01*
X385922Y436580D01*
X381620Y434841D01*
Y433630D01*
X388021Y432288D01*
X381620D01*
X388021D01*
Y438698D01*
D02*
G37*
G36*
X386366Y432094D02*
X383535D01*
X383331Y432085D01*
X383137Y432057D01*
X382962Y432020D01*
X382814Y431974D01*
X382684Y431927D01*
X382582Y431890D01*
X382545Y431872D01*
X382518Y431863D01*
X382508Y431853D01*
X382499D01*
X382332Y431752D01*
X382185Y431632D01*
X382055Y431502D01*
X381953Y431382D01*
X381870Y431271D01*
X381805Y431178D01*
X381787Y431141D01*
X381768Y431113D01*
X381759Y431104D01*
Y431095D01*
X381676Y430901D01*
X381611Y430697D01*
X381565Y430503D01*
X381537Y430318D01*
X381519Y430161D01*
X381509Y430096D01*
X381500Y430041D01*
Y430457D01*
Y429929D01*
X381509Y429707D01*
X381537Y429495D01*
X381574Y429300D01*
X381629Y429115D01*
X381685Y428940D01*
X381759Y428783D01*
X381833Y428644D01*
X381907Y428505D01*
X381981Y428394D01*
X382055Y428292D01*
X382129Y428200D01*
X382185Y428126D01*
X382240Y428070D01*
X382277Y428033D01*
X382305Y428006D01*
X382314Y427996D01*
X382471Y427867D01*
X382638Y427756D01*
X382804Y427663D01*
X382971Y427580D01*
X383128Y427506D01*
X383295Y427451D01*
X383452Y427404D01*
X383600Y427367D01*
X383738Y427340D01*
X383868Y427312D01*
X383979Y427293D01*
X384081Y427284D01*
X384155Y427275D01*
X384266D01*
X384441Y427284D01*
X384608Y427303D01*
X384765Y427330D01*
X384913Y427367D01*
X385043Y427414D01*
X385172Y427460D01*
X385283Y427515D01*
X385394Y427562D01*
X385487Y427617D01*
X385561Y427672D01*
X385635Y427719D01*
X385690Y427765D01*
X385736Y427802D01*
X385764Y427830D01*
X385783Y427848D01*
X385792Y427857D01*
X385894Y427969D01*
X385977Y428089D01*
X386060Y428218D01*
X386125Y428348D01*
X386180Y428486D01*
X386227Y428616D01*
X386292Y428875D01*
X386319Y428995D01*
X386338Y429106D01*
X386347Y429199D01*
X386356Y429291D01*
X386366Y429356D01*
Y427802D01*
Y429458D01*
X386356Y429670D01*
X386329Y429883D01*
X386292Y430078D01*
X386245Y430253D01*
X386190Y430429D01*
X386116Y430586D01*
X386051Y430725D01*
X385977Y430855D01*
X385903Y430975D01*
X385838Y431076D01*
X385773Y431169D01*
X385709Y431243D01*
X385663Y431298D01*
X385626Y431335D01*
X385598Y431363D01*
X385589Y431372D01*
X385440Y431502D01*
X385283Y431613D01*
X385117Y431706D01*
X384941Y431789D01*
X384774Y431863D01*
X384599Y431918D01*
X384432Y431964D01*
X384275Y432001D01*
X384127Y432029D01*
X383979Y432057D01*
X383859Y432076D01*
X383748Y432085D01*
X383655D01*
X383591Y432094D01*
X386366D01*
D02*
G37*
G36*
X381620Y426886D02*
Y423020D01*
X381500D01*
X381620D01*
Y425647D01*
X383072Y425342D01*
X383230Y425305D01*
X383387Y425277D01*
X383526Y425240D01*
X383646Y425203D01*
X383766Y425175D01*
X383877Y425147D01*
X383970Y425110D01*
X384053Y425082D01*
X384127Y425064D01*
X384192Y425036D01*
X384247Y425018D01*
X384294Y424999D01*
X384321Y424990D01*
X384349Y424981D01*
X384367Y424971D01*
X384516Y424897D01*
X384645Y424814D01*
X384756Y424722D01*
X384848Y424639D01*
X384913Y424565D01*
X384969Y424509D01*
X385006Y424472D01*
X385015Y424453D01*
X385098Y424324D01*
X385163Y424204D01*
X385200Y424093D01*
X385237Y423991D01*
X385256Y423908D01*
X385265Y423843D01*
Y423787D01*
X385256Y423649D01*
X385237Y423528D01*
X385219Y423482D01*
X385209Y423445D01*
X385200Y423427D01*
Y423418D01*
X386227Y422936D01*
D01*
D01*
D01*
X386261Y423020D01*
X386273Y423047D01*
X386310Y423159D01*
X386329Y423260D01*
X386347Y423344D01*
X386356Y423418D01*
X386366Y423473D01*
Y423519D01*
X386356Y423658D01*
X386319Y423797D01*
X386273Y423936D01*
X386208Y424056D01*
X386134Y424185D01*
X386051Y424296D01*
X385866Y424509D01*
X385773Y424602D01*
X385681Y424685D01*
X385598Y424759D01*
X385524Y424824D01*
X385459Y424870D01*
X385413Y424907D01*
X385376Y424925D01*
X385367Y424934D01*
X386264Y424750D01*
Y425915D01*
X381620Y426886D01*
D02*
G37*
G36*
X387864Y423020D02*
Y420643D01*
X387004Y422067D01*
X386264Y422215D01*
Y422825D01*
X385330Y423020D01*
Y422936D01*
D01*
Y422400D01*
X383461Y422798D01*
X383322Y422825D01*
X383193Y422853D01*
X383082Y422872D01*
X382980Y422890D01*
X382888Y422909D01*
X382804Y422927D01*
X382739Y422936D01*
X382675Y422946D01*
X382582Y422955D01*
X382518Y422964D01*
X382481D01*
X382471D01*
X382305Y422955D01*
X382270Y422946D01*
X382166Y422918D01*
X382036Y422872D01*
X381935Y422816D01*
X381861Y422761D01*
X381796Y422715D01*
X381759Y422678D01*
X381750Y422668D01*
X381666Y422539D01*
X381602Y422391D01*
X381565Y422224D01*
X381528Y422067D01*
X381509Y421919D01*
Y421864D01*
X381500Y421808D01*
Y421697D01*
X381509Y421447D01*
X381528Y421336D01*
X381537Y421235D01*
X381556Y421151D01*
X381565Y421087D01*
X381574Y421049D01*
Y421031D01*
X382499Y420837D01*
X382490Y420948D01*
X382481Y421040D01*
X382471Y421114D01*
Y421170D01*
X382462Y421207D01*
Y421336D01*
X382471Y421410D01*
X382490Y421475D01*
X382508Y421521D01*
X382518Y421549D01*
X382536Y421577D01*
X382545Y421586D01*
Y421595D01*
X382619Y421641D01*
X382684Y421669D01*
X382749Y421678D01*
X382758D01*
X382767D01*
X382786D01*
X382814Y421669D01*
X382897Y421660D01*
X382989Y421641D01*
X383100Y421623D01*
X383202Y421604D01*
X383285Y421586D01*
X383322Y421577D01*
X383350Y421567D01*
X383359D01*
X383368D01*
X385330Y421161D01*
Y420393D01*
X386264Y420198D01*
D01*
Y420966D01*
X387864Y420643D01*
Y420337D01*
D01*
Y423020D01*
D02*
G37*
%LPD*%
G36*
X388021Y459835D02*
X383738Y460741D01*
X388021Y462480D01*
Y459835D01*
D02*
G37*
G36*
X383701Y450705D02*
X383859Y450687D01*
X384007Y450659D01*
X384145Y450631D01*
X384257Y450603D01*
X384349Y450575D01*
X384386Y450566D01*
X384414Y450557D01*
X384423Y450548D01*
X384432D01*
X384599Y450474D01*
X384747Y450400D01*
X384876Y450316D01*
X384978Y450233D01*
X385061Y450169D01*
X385117Y450113D01*
X385154Y450067D01*
X385163Y450058D01*
X385246Y449937D01*
X385311Y449808D01*
X385357Y449687D01*
X385394Y449577D01*
X385413Y449484D01*
X385422Y449401D01*
Y449336D01*
X385413Y449188D01*
X385376Y449058D01*
X385339Y448947D01*
X385283Y448846D01*
X385237Y448772D01*
X385191Y448716D01*
X385154Y448679D01*
X385144Y448670D01*
X385033Y448577D01*
X384923Y448513D01*
X384802Y448466D01*
X384691Y448439D01*
X384590Y448411D01*
X384506Y448402D01*
X384451D01*
X384441D01*
X384432D01*
X384266Y448411D01*
X384108Y448420D01*
X383812Y448476D01*
X383683Y448513D01*
X383554Y448559D01*
X383442Y448605D01*
X383331Y448652D01*
X383239Y448698D01*
X383156Y448744D01*
X383082Y448781D01*
X383017Y448827D01*
X382971Y448855D01*
X382934Y448883D01*
X382915Y448892D01*
X382906Y448901D01*
X382832Y448966D01*
X382767Y449040D01*
X382656Y449188D01*
X382582Y449327D01*
X382527Y449466D01*
X382499Y449586D01*
X382481Y449687D01*
X382471Y449724D01*
Y449771D01*
X382481Y449919D01*
X382518Y450048D01*
X382564Y450159D01*
X382619Y450261D01*
X382665Y450335D01*
X382712Y450400D01*
X382749Y450437D01*
X382758Y450446D01*
X382878Y450538D01*
X383008Y450603D01*
X383137Y450649D01*
X383267Y450677D01*
X383378Y450696D01*
X383470Y450714D01*
X383507D01*
X383535D01*
X383544D01*
X383554D01*
X383701Y450705D01*
D02*
G37*
G36*
X386366Y440428D02*
X386356Y440613D01*
X386329Y440780D01*
X386292Y440946D01*
X386245Y441085D01*
X386199Y441205D01*
X386162Y441289D01*
X386143Y441326D01*
X386134Y441353D01*
X386125Y441362D01*
Y441372D01*
X386033Y441529D01*
X385931Y441668D01*
X385838Y441779D01*
X385746Y441881D01*
X385663Y441955D01*
X385598Y442010D01*
X385561Y442047D01*
X385542Y442056D01*
X385681Y442093D01*
X385792Y442149D01*
X385903Y442213D01*
X385986Y442269D01*
X386051Y442334D01*
X386106Y442380D01*
X386134Y442417D01*
X386143Y442426D01*
X386217Y442537D01*
X386273Y442667D01*
X386310Y442805D01*
X386338Y442935D01*
X386356Y443046D01*
X386366Y443148D01*
Y440428D01*
D02*
G37*
G36*
X388021Y433500D02*
X383738Y434407D01*
X388021Y436145D01*
Y433500D01*
D02*
G37*
G36*
X383701Y430827D02*
X383859Y430808D01*
X384007Y430781D01*
X384145Y430753D01*
X384257Y430725D01*
X384349Y430697D01*
X384386Y430688D01*
X384414Y430679D01*
X384423Y430669D01*
X384432D01*
X384599Y430595D01*
X384747Y430521D01*
X384876Y430438D01*
X384978Y430355D01*
X385061Y430290D01*
X385117Y430235D01*
X385154Y430189D01*
X385163Y430179D01*
X385246Y430059D01*
X385311Y429929D01*
X385357Y429809D01*
X385394Y429698D01*
X385413Y429606D01*
X385422Y429523D01*
Y429458D01*
X385413Y429310D01*
X385376Y429180D01*
X385339Y429069D01*
X385283Y428968D01*
X385237Y428894D01*
X385191Y428838D01*
X385154Y428801D01*
X385144Y428792D01*
X385033Y428699D01*
X384923Y428635D01*
X384802Y428588D01*
X384691Y428560D01*
X384590Y428533D01*
X384506Y428523D01*
X384451D01*
X384441D01*
X384432D01*
X384266Y428533D01*
X384108Y428542D01*
X383812Y428597D01*
X383683Y428635D01*
X383554Y428681D01*
X383442Y428727D01*
X383331Y428773D01*
X383239Y428820D01*
X383156Y428866D01*
X383082Y428903D01*
X383017Y428949D01*
X382971Y428977D01*
X382934Y429004D01*
X382915Y429014D01*
X382906Y429023D01*
X382832Y429088D01*
X382767Y429162D01*
X382656Y429310D01*
X382582Y429449D01*
X382527Y429587D01*
X382499Y429707D01*
X382481Y429809D01*
X382471Y429846D01*
Y429892D01*
X382481Y430041D01*
X382518Y430170D01*
X382564Y430281D01*
X382619Y430383D01*
X382665Y430457D01*
X382712Y430521D01*
X382749Y430558D01*
X382758Y430568D01*
X382878Y430660D01*
X383008Y430725D01*
X383137Y430771D01*
X383267Y430799D01*
X383378Y430818D01*
X383470Y430836D01*
X383507D01*
X383535D01*
X383544D01*
X383554D01*
X383701Y430827D01*
D02*
G37*
D10*
X306275Y470653D02*
G03*
X306275Y470653I-638J0D01*
G01*
X294118Y435000D02*
G03*
X294118Y435000I-500J0D01*
G01*
X300519Y446141D02*
Y449778D01*
X300716Y459227D02*
Y468684D01*
X306622D01*
X300519Y446141D02*
X365874D01*
X365874Y446141D02*
Y449778D01*
X359205Y468290D02*
X365874D01*
Y459227D02*
Y468290D01*
X295595Y409926D02*
Y411772D01*
Y403110D02*
X298744D01*
X295595Y411772D02*
X298744D01*
X295595Y403110D02*
Y404956D01*
X296075Y434603D02*
X303161D01*
Y426925D02*
Y430075D01*
X296075Y422398D02*
X303161D01*
X373500Y361843D02*
X383725D01*
X373500Y358890D02*
Y361843D01*
X366000Y358890D02*
X373500D01*
X366000D02*
Y361843D01*
X314000D02*
X366000D01*
X314000Y358890D02*
Y361843D01*
X306500Y358890D02*
X314000D01*
X306500D02*
Y361842D01*
X294000Y361843D02*
X306500Y361842D01*
X294000Y338221D02*
Y361843D01*
Y338221D02*
X383725D01*
Y361843D01*
X317200Y371300D02*
X320800D01*
X322500Y373000D01*
Y378250D01*
X315500Y373000D02*
Y378250D01*
Y373000D02*
X317200Y371300D01*
X315690Y380940D02*
X322170D01*
X315500Y393250D02*
X322500D01*
X315500Y386750D02*
Y393250D01*
X322500Y386750D02*
Y393250D01*
X318850Y380940D02*
X322050Y384140D01*
X315880D02*
X322050D01*
X315880D02*
X318920Y381100D01*
X306200Y393950D02*
X309800D01*
X304500Y392250D02*
X306200Y393950D01*
X304500Y387000D02*
Y392250D01*
X311500Y387000D02*
Y392250D01*
X309800Y393950D02*
X311500Y392250D01*
X304830Y384310D02*
X311310D01*
X304500Y372000D02*
X311500D01*
Y378500D01*
X304500Y372000D02*
Y378500D01*
X304950Y381110D02*
X308150Y384310D01*
X304950Y381110D02*
X311120D01*
X308080Y384150D02*
X311120Y381110D01*
X295700Y371800D02*
X299300D01*
X301000Y373500D01*
Y378750D01*
X294000Y373500D02*
Y378750D01*
Y373500D02*
X295700Y371800D01*
X294190Y381440D02*
X300670D01*
X294000Y393750D02*
X301000D01*
X294000Y387250D02*
Y393750D01*
X301000Y387250D02*
Y393750D01*
X297350Y381440D02*
X300550Y384640D01*
X294380D02*
X300550D01*
X294380D02*
X297420Y381600D01*
X355796Y439000D02*
Y436500D01*
X356296Y436000D01*
X357295D01*
X357795Y436500D01*
Y439000D01*
X360794Y436000D02*
X358795D01*
X360794Y438000D01*
Y438500D01*
X360295Y439000D01*
X359295D01*
X358795Y438500D01*
X306001Y439000D02*
Y436500D01*
X306501Y436000D01*
X307500D01*
X308000Y436500D01*
Y439000D01*
X309000Y436000D02*
X309999D01*
X309500D01*
Y439000D01*
X309000Y438500D01*
X282001Y389500D02*
Y392499D01*
X283500D01*
X284000Y392000D01*
Y391000D01*
X283500Y390500D01*
X282001D01*
X283000D02*
X284000Y389500D01*
X285000Y392000D02*
X285500Y392499D01*
X286499D01*
X286999Y392000D01*
Y391500D01*
X286499Y391000D01*
X286999Y390500D01*
Y390000D01*
X286499Y389500D01*
X285500D01*
X285000Y390000D01*
Y390500D01*
X285500Y391000D01*
X285000Y391500D01*
Y392000D01*
X285500Y391000D02*
X286499D01*
X333241Y366501D02*
Y369500D01*
X334741D01*
X335241Y369000D01*
Y368000D01*
X334741Y367500D01*
X333241D01*
X334241D02*
X335241Y366501D01*
X336240Y369500D02*
X338240D01*
Y369000D01*
X336240Y367001D01*
Y366501D01*
X282001Y379501D02*
Y382500D01*
X283500D01*
X284000Y382000D01*
Y381000D01*
X283500Y380500D01*
X282001D01*
X283000D02*
X284000Y379501D01*
X286999Y382500D02*
X285999Y382000D01*
X285000Y381000D01*
Y380000D01*
X285500Y379501D01*
X286499D01*
X286999Y380000D01*
Y380500D01*
X286499Y381000D01*
X285000D01*
X282501Y350500D02*
Y353500D01*
X284000D01*
X284500Y353000D01*
Y352000D01*
X284000Y351500D01*
X282501D01*
X283501D02*
X284500Y350500D01*
X287499Y353500D02*
X285500D01*
Y352000D01*
X286500Y352500D01*
X286999D01*
X287499Y352000D01*
Y351000D01*
X286999Y350500D01*
X286000D01*
X285500Y351000D01*
X283001Y360000D02*
Y363000D01*
X284500D01*
X285000Y362500D01*
Y361500D01*
X284500Y361000D01*
X283001D01*
X284000D02*
X285000Y360000D01*
X287499D02*
Y363000D01*
X286000Y361500D01*
X287999D01*
X365241Y392000D02*
Y394999D01*
X366740D01*
X367240Y394499D01*
Y393500D01*
X366740Y393000D01*
X365241D01*
X366240D02*
X367240Y392000D01*
X368240Y394499D02*
X368740Y394999D01*
X369739D01*
X370239Y394499D01*
Y394000D01*
X369739Y393500D01*
X369239D01*
X369739D01*
X370239Y393000D01*
Y392500D01*
X369739Y392000D01*
X368740D01*
X368240Y392500D01*
X282501Y370001D02*
Y373000D01*
X284000D01*
X284500Y372500D01*
Y371500D01*
X284000Y371000D01*
X282501D01*
X283501D02*
X284500Y370001D01*
X287499D02*
X285500D01*
X287499Y372000D01*
Y372500D01*
X286999Y373000D01*
X286000D01*
X285500Y372500D01*
X282260Y409626D02*
Y412625D01*
X283760D01*
X284260Y412125D01*
Y411125D01*
X283760Y410626D01*
X282260D01*
X283260D02*
X284260Y409626D01*
X285259D02*
X286259D01*
X285759D01*
Y412625D01*
X285259Y412125D01*
X307000Y398000D02*
Y400000D01*
X306500Y400499D01*
X305501D01*
X305001Y400000D01*
Y398000D01*
X305501Y397500D01*
X306500D01*
X306000Y398500D02*
X307000Y397500D01*
X306500D02*
X307000Y398000D01*
X308000Y397500D02*
X308999D01*
X308500D01*
Y400499D01*
X308000Y400000D01*
X330260Y415839D02*
Y417838D01*
X329760Y418338D01*
X328760D01*
X328261Y417838D01*
Y415839D01*
X328760Y415339D01*
X329760D01*
X329260Y416339D02*
X330260Y415339D01*
X329760D02*
X330260Y415839D01*
X331260Y417838D02*
X331760Y418338D01*
X332759D01*
X333259Y417838D01*
Y417338D01*
X332759Y416839D01*
X332259D01*
X332759D01*
X333259Y416339D01*
Y415839D01*
X332759Y415339D01*
X331760D01*
X331260Y415839D01*
X331000Y433000D02*
Y435000D01*
X330500Y435499D01*
X329501D01*
X329001Y435000D01*
Y433000D01*
X329501Y432501D01*
X330500D01*
X330000Y433500D02*
X331000Y432501D01*
X330500D02*
X331000Y433000D01*
X333999Y432501D02*
X332000D01*
X333999Y434500D01*
Y435000D01*
X333499Y435499D01*
X332500D01*
X332000Y435000D01*
X282708Y431175D02*
Y428176D01*
X284707D01*
X285707D02*
X286706D01*
X286207D01*
Y431175D01*
X285707Y430675D01*
X275501Y456999D02*
X274501D01*
X275001D01*
Y454500D01*
X274501Y454001D01*
X274001D01*
X273501Y454500D01*
X276500Y454001D02*
Y456999D01*
X278000D01*
X278500Y456500D01*
Y455500D01*
X278000Y455000D01*
X276500D01*
X279499Y456500D02*
X279999Y456999D01*
X280999D01*
X281499Y456500D01*
Y456000D01*
X280999Y455500D01*
X280499D01*
X280999D01*
X281499Y455000D01*
Y454500D01*
X280999Y454001D01*
X279999D01*
X279499Y454500D01*
X283001Y343499D02*
X282001D01*
X282501D01*
Y341000D01*
X282001Y340500D01*
X281501D01*
X281001Y341000D01*
X284000Y340500D02*
Y343499D01*
X285500D01*
X286000Y343000D01*
Y342000D01*
X285500Y341500D01*
X284000D01*
X288999Y340500D02*
X286999D01*
X288999Y342500D01*
Y343000D01*
X288499Y343499D01*
X287499D01*
X286999Y343000D01*
X296039Y446993D02*
X295039D01*
X295539D01*
Y444494D01*
X295039Y443995D01*
X294539D01*
X294040Y444494D01*
X297039Y443995D02*
X298038D01*
X297538D01*
Y446993D01*
X297039Y446494D01*
X295501Y369000D02*
Y366001D01*
X297000D01*
X297500Y366500D01*
Y368500D01*
X297000Y369000D01*
X295501D01*
X298500Y368500D02*
X299000Y369000D01*
X299999D01*
X300499Y368500D01*
Y368000D01*
X299999Y367500D01*
X299500D01*
X299999D01*
X300499Y367000D01*
Y366500D01*
X299999Y366001D01*
X299000D01*
X298500Y366500D01*
X305001Y369000D02*
Y366001D01*
X306500D01*
X307000Y366500D01*
Y368500D01*
X306500Y369000D01*
X305001D01*
X309999Y366001D02*
X308000D01*
X309999Y368000D01*
Y368500D01*
X309499Y369000D01*
X308500D01*
X308000Y368500D01*
X317001Y369000D02*
Y366001D01*
X318500D01*
X319000Y366500D01*
Y368500D01*
X318500Y369000D01*
X317001D01*
X320000Y366001D02*
X320999D01*
X320499D01*
Y369000D01*
X320000Y368500D01*
X334251Y394000D02*
X333751Y394499D01*
X332751D01*
X332251Y394000D01*
Y392000D01*
X332751Y391500D01*
X333751D01*
X334251Y392000D01*
X335250Y391500D02*
X336250D01*
X335750D01*
Y394499D01*
X335250Y394000D01*
X337749Y394499D02*
X339749D01*
Y394000D01*
X337749Y392000D01*
Y391500D01*
X350251Y370000D02*
X349751Y370499D01*
X348751D01*
X348251Y370000D01*
Y368000D01*
X348751Y367500D01*
X349751D01*
X350251Y368000D01*
X351250Y367500D02*
X352250D01*
X351750D01*
Y370499D01*
X351250Y370000D01*
X355749Y370499D02*
X354749Y370000D01*
X353749Y369000D01*
Y368000D01*
X354249Y367500D01*
X355249D01*
X355749Y368000D01*
Y368500D01*
X355249Y369000D01*
X353749D01*
X284251Y402000D02*
X283751Y402499D01*
X282751D01*
X282251Y402000D01*
Y400000D01*
X282751Y399500D01*
X283751D01*
X284251Y400000D01*
X285250Y399500D02*
X286250D01*
X285750D01*
Y402499D01*
X285250Y402000D01*
X289749Y402499D02*
X287749D01*
Y401000D01*
X288749Y401500D01*
X289249D01*
X289749Y401000D01*
Y400000D01*
X289249Y399500D01*
X288249D01*
X287749Y400000D01*
X350010Y393999D02*
X349510Y394499D01*
X348511D01*
X348011Y393999D01*
Y392000D01*
X348511Y391500D01*
X349510D01*
X350010Y392000D01*
X351010Y391500D02*
X352010D01*
X351510D01*
Y394499D01*
X351010Y393999D01*
X355009Y391500D02*
Y394499D01*
X353509Y393000D01*
X355508D01*
X365491Y370000D02*
X364991Y370500D01*
X363991D01*
X363492Y370000D01*
Y368001D01*
X363991Y367501D01*
X364991D01*
X365491Y368001D01*
X366491Y367501D02*
X367490D01*
X366990D01*
Y370500D01*
X366491Y370000D01*
X368990D02*
X369490Y370500D01*
X370489D01*
X370989Y370000D01*
Y369500D01*
X370489Y369000D01*
X369989D01*
X370489D01*
X370989Y368501D01*
Y368001D01*
X370489Y367501D01*
X369490D01*
X368990Y368001D01*
X379500Y497749D02*
X379999Y498249D01*
Y499249D01*
X379500Y499749D01*
X377500D01*
X377000Y499249D01*
Y498249D01*
X377500Y497749D01*
X377000Y496750D02*
Y495750D01*
Y496250D01*
X379999D01*
X379500Y496750D01*
X377000Y492251D02*
Y494251D01*
X379000Y492251D01*
X379500D01*
X379999Y492751D01*
Y493751D01*
X379500Y494251D01*
X370000Y497250D02*
X370499Y497749D01*
Y498749D01*
X370000Y499249D01*
X368000D01*
X367500Y498749D01*
Y497749D01*
X368000Y497250D01*
X367500Y496250D02*
Y495250D01*
Y495750D01*
X370499D01*
X370000Y496250D01*
X367500Y493751D02*
Y492751D01*
Y493251D01*
X370499D01*
X370000Y493751D01*
X359000Y497249D02*
X359500Y497749D01*
Y498749D01*
X359000Y499249D01*
X357000D01*
X356501Y498749D01*
Y497749D01*
X357000Y497249D01*
X356501Y496250D02*
Y495250D01*
Y495750D01*
X359500D01*
X359000Y496250D01*
Y493751D02*
X359500Y493251D01*
Y492251D01*
X359000Y491751D01*
X357000D01*
X356501Y492251D01*
Y493251D01*
X357000Y493751D01*
X359000D01*
X349944Y496000D02*
X350444Y496500D01*
Y497499D01*
X349944Y497999D01*
X347945D01*
X347445Y497499D01*
Y496500D01*
X347945Y496000D01*
Y495000D02*
X347445Y494500D01*
Y493501D01*
X347945Y493001D01*
X349944D01*
X350444Y493501D01*
Y494500D01*
X349944Y495000D01*
X349444D01*
X348944Y494500D01*
Y493001D01*
X339944Y495500D02*
X340444Y496000D01*
Y496999D01*
X339944Y497499D01*
X337945D01*
X337445Y496999D01*
Y496000D01*
X337945Y495500D01*
X339944Y494500D02*
X340444Y494000D01*
Y493001D01*
X339944Y492501D01*
X339444D01*
X338944Y493001D01*
X338445Y492501D01*
X337945D01*
X337445Y493001D01*
Y494000D01*
X337945Y494500D01*
X338445D01*
X338944Y494000D01*
X339444Y494500D01*
X339944D01*
X338944Y494000D02*
Y493001D01*
X284500Y422000D02*
X284000Y422500D01*
X283001D01*
X282501Y422000D01*
Y420000D01*
X283001Y419500D01*
X284000D01*
X284500Y420000D01*
X285500Y422500D02*
X287499D01*
Y422000D01*
X285500Y420000D01*
Y419500D01*
X330444Y495500D02*
X330944Y496000D01*
Y496999D01*
X330444Y497499D01*
X328445D01*
X327945Y496999D01*
Y496000D01*
X328445Y495500D01*
X330944Y492501D02*
X330444Y493501D01*
X329444Y494500D01*
X328445D01*
X327945Y494000D01*
Y493001D01*
X328445Y492501D01*
X328945D01*
X329444Y493001D01*
Y494500D01*
X319944Y495500D02*
X320444Y496000D01*
Y496999D01*
X319944Y497499D01*
X317945D01*
X317445Y496999D01*
Y496000D01*
X317945Y495500D01*
X320444Y492501D02*
Y494500D01*
X318944D01*
X319444Y493501D01*
Y493001D01*
X318944Y492501D01*
X317945D01*
X317445Y493001D01*
Y494000D01*
X317945Y494500D01*
X284500Y440750D02*
X284000Y441250D01*
X283000D01*
X282500Y440750D01*
Y438750D01*
X283000Y438250D01*
X284000D01*
X284500Y438750D01*
X286999Y438250D02*
Y441250D01*
X285499Y439750D01*
X287498D01*
X310444Y496000D02*
X310944Y496500D01*
Y497499D01*
X310444Y497999D01*
X308445D01*
X307945Y497499D01*
Y496500D01*
X308445Y496000D01*
X310444Y495000D02*
X310944Y494500D01*
Y493501D01*
X310444Y493001D01*
X309944D01*
X309444Y493501D01*
Y494000D01*
Y493501D01*
X308945Y493001D01*
X308445D01*
X307945Y493501D01*
Y494500D01*
X308445Y495000D01*
X300444Y495000D02*
X300944Y495500D01*
Y496499D01*
X300444Y496999D01*
X298445D01*
X297945Y496499D01*
Y495500D01*
X298445Y495000D01*
X297945Y492001D02*
Y494000D01*
X299944Y492001D01*
X300444D01*
X300944Y492501D01*
Y493500D01*
X300444Y494000D01*
X290944Y495000D02*
X291444Y495500D01*
Y496499D01*
X290944Y496999D01*
X288945D01*
X288445Y496499D01*
Y495500D01*
X288945Y495000D01*
X288445Y494000D02*
Y493001D01*
Y493501D01*
X291444D01*
X290944Y494000D01*
D11*
X301500Y402323D02*
G03*
X301510Y402323I5J-490D01*
G01*
D12*
X312906Y424866D02*
G03*
X312906Y424866I-492J0D01*
G01*
X313405Y402839D02*
G03*
X313405Y402839I-492J0D01*
G01*
D13*
X373061Y429000D02*
G03*
X373061Y429000I-591J0D01*
G01*
X370564Y421709D02*
G03*
X370564Y421709I-591J0D01*
G01*
D14*
X278000Y459500D02*
Y489500D01*
X268000D02*
X278000D01*
X268000Y459500D02*
Y489500D01*
Y459500D02*
X278000D01*
X322256Y431756D02*
X325406D01*
Y429000D02*
Y431756D01*
X313594D02*
X316744D01*
X313594Y429000D02*
Y431756D01*
X314094Y407563D02*
Y409925D01*
X317244D01*
X325906Y407563D02*
Y409925D01*
X322756D02*
X325906D01*
D15*
X335500Y384500D02*
Y387500D01*
X334500Y384500D02*
Y387500D01*
X334000Y386000D02*
X334500D01*
X335500D02*
X336000D01*
X345361Y424671D02*
X371552D01*
X345361Y410723D02*
Y424671D01*
Y410723D02*
X371552D01*
Y424671D01*
X272760Y438750D02*
Y441750D01*
X273760Y438750D02*
Y441750D01*
Y440250D02*
X274260D01*
X272260D02*
X272760D01*
X273760Y419000D02*
Y422000D01*
X272760Y419000D02*
Y422000D01*
X272260Y420500D02*
X272760D01*
X273760D02*
X274260D01*
X272760Y399250D02*
Y402250D01*
X273760Y399250D02*
Y402250D01*
Y400750D02*
X274260D01*
X272260D02*
X272760D01*
X352260Y374000D02*
Y377000D01*
X351260Y374000D02*
Y377000D01*
X350760Y375500D02*
X351260D01*
X352260D02*
X352760D01*
X352260Y384500D02*
Y387500D01*
X351260Y384500D02*
Y387500D01*
X350760Y386000D02*
X351260D01*
X352260D02*
X352760D01*
X287945Y484740D02*
X290945D01*
X287945Y483740D02*
X290945D01*
X289445Y483240D02*
Y483740D01*
Y484740D02*
Y485240D01*
X297834Y484740D02*
X300834D01*
X297834Y483740D02*
X300834D01*
X299334Y483240D02*
Y483740D01*
Y484740D02*
Y485240D01*
X307722Y484740D02*
X310722D01*
X307722Y483740D02*
X310722D01*
X309222Y483240D02*
Y483740D01*
Y484740D02*
Y485240D01*
X317611Y484740D02*
X320611D01*
X317611Y483740D02*
X320611D01*
X319111Y483240D02*
Y483740D01*
Y484740D02*
Y485240D01*
X327500Y484740D02*
X330500D01*
X327500Y483740D02*
X330500D01*
X329000Y483240D02*
Y483740D01*
Y484740D02*
Y485240D01*
X337389Y484740D02*
X340389D01*
X337389Y483740D02*
X340389D01*
X338889Y483240D02*
Y483740D01*
Y484740D02*
Y485240D01*
X347278Y484740D02*
X350278D01*
X347278Y483740D02*
X350278D01*
X348778Y483240D02*
Y483740D01*
Y484740D02*
Y485240D01*
X357167Y484740D02*
X360167D01*
X357167Y483740D02*
X360167D01*
X358667Y483240D02*
Y483740D01*
Y484740D02*
Y485240D01*
X367056Y484740D02*
X370056D01*
X367056Y483740D02*
X370056D01*
X368556Y483240D02*
Y483740D01*
Y484740D02*
Y485240D01*
X376945Y484740D02*
X379945D01*
X376945Y483740D02*
X379945D01*
X378445Y483240D02*
Y483740D01*
Y484740D02*
Y485240D01*
X367240Y374000D02*
Y377000D01*
X368240Y374000D02*
Y377000D01*
Y375500D02*
X368740D01*
X366740D02*
X367240D01*
D16*
X328307Y382400D02*
Y389600D01*
X341693Y382400D02*
Y389600D01*
X336500Y382400D02*
X341693D01*
X328307D02*
X333500D01*
X328307Y389600D02*
X333500D01*
X336500D02*
X341693D01*
X328307Y379100D02*
X341693D01*
X328307Y371900D02*
Y379100D01*
Y371900D02*
X341693D01*
Y379100D01*
X279952Y436650D02*
Y443850D01*
X266567Y436650D02*
Y443850D01*
X271760D01*
X274760D02*
X279952D01*
X274760Y436651D02*
X279952D01*
X266567D02*
X271760D01*
X266567Y416900D02*
Y424100D01*
X279952Y416900D02*
Y424100D01*
X274760Y416900D02*
X279952D01*
X266567D02*
X271760D01*
X266567Y424099D02*
X271760D01*
X274760D02*
X279952D01*
X266567Y407025D02*
X279952D01*
Y414225D01*
X266567D02*
X279952D01*
X266567Y407025D02*
Y414225D01*
X279952Y397150D02*
Y404350D01*
X266567Y397150D02*
Y404350D01*
X271760D01*
X274760D02*
X279952D01*
X274760Y397151D02*
X279952D01*
X266567D02*
X271760D01*
X266567Y387275D02*
X279952D01*
Y394475D01*
X266567D02*
X279952D01*
X266567Y387275D02*
Y394475D01*
Y384600D02*
X279952D01*
X266567Y377400D02*
Y384600D01*
Y377400D02*
X279952D01*
Y384600D01*
X266567Y367525D02*
X279952D01*
Y374725D01*
X266567D02*
X279952D01*
X266567Y367525D02*
Y374725D01*
Y364850D02*
X279952D01*
X266567Y357650D02*
Y364850D01*
Y357650D02*
X279952D01*
Y364850D01*
X266567Y355600D02*
X279953D01*
X266567Y348400D02*
Y355600D01*
Y348400D02*
X279953D01*
Y355600D01*
X345067Y371900D02*
Y379100D01*
X358452Y371900D02*
Y379100D01*
X353260Y371900D02*
X358452D01*
X345067D02*
X350260D01*
X345067Y379099D02*
X350260D01*
X353260D02*
X358452D01*
X345067Y382400D02*
Y389600D01*
X358452Y382400D02*
Y389600D01*
X353260Y382400D02*
X358452D01*
X345067D02*
X350260D01*
X345067Y389599D02*
X350260D01*
X353260D02*
X358452D01*
X361047Y389600D02*
X374433D01*
X361047Y382400D02*
Y389600D01*
Y382400D02*
X374433D01*
Y389600D01*
X276467Y433575D02*
X279367D01*
X266567D02*
X269467D01*
X279367Y426775D02*
Y433575D01*
X276466Y426775D02*
X279367D01*
X266567D02*
X269466D01*
X266567D02*
Y433575D01*
X285844Y477547D02*
X293044D01*
X285844Y490933D02*
X293044D01*
Y485740D02*
Y490933D01*
Y477547D02*
Y482740D01*
X285845Y477547D02*
Y482740D01*
Y485740D02*
Y490933D01*
X295733Y477547D02*
X302933D01*
X295733Y490933D02*
X302933D01*
Y485740D02*
Y490933D01*
Y477547D02*
Y482740D01*
X295734Y477547D02*
Y482740D01*
Y485740D02*
Y490933D01*
X305622Y477547D02*
X312822D01*
X305622Y490933D02*
X312822D01*
Y485740D02*
Y490933D01*
Y477547D02*
Y482740D01*
X305623Y477547D02*
Y482740D01*
Y485740D02*
Y490933D01*
X315511Y477547D02*
X322711D01*
X315511Y490933D02*
X322711D01*
Y485740D02*
Y490933D01*
Y477547D02*
Y482740D01*
X315512Y477547D02*
Y482740D01*
Y485740D02*
Y490933D01*
X325400Y477547D02*
X332600D01*
X325400Y490933D02*
X332600D01*
Y485740D02*
Y490933D01*
Y477547D02*
Y482740D01*
X325401Y477547D02*
Y482740D01*
Y485740D02*
Y490933D01*
X335289Y477547D02*
X342489D01*
X335289Y490933D02*
X342489D01*
Y485740D02*
Y490933D01*
Y477547D02*
Y482740D01*
X335289Y477547D02*
Y482740D01*
Y485740D02*
Y490933D01*
X345178Y477547D02*
X352378D01*
X345178Y490933D02*
X352378D01*
Y485740D02*
Y490933D01*
Y477547D02*
Y482740D01*
X345178Y477547D02*
Y482740D01*
Y485740D02*
Y490933D01*
X355067Y477547D02*
X362267D01*
X355067Y490933D02*
X362267D01*
Y485740D02*
Y490933D01*
Y477547D02*
Y482740D01*
X355067Y477547D02*
Y482740D01*
Y485740D02*
Y490933D01*
X364955Y477547D02*
X372155D01*
X364955Y490933D02*
X372155D01*
Y485740D02*
Y490933D01*
Y477547D02*
Y482740D01*
X364956Y477547D02*
Y482740D01*
Y485740D02*
Y490933D01*
X374844Y477547D02*
X382044D01*
X374844Y490933D02*
X382044D01*
Y485740D02*
Y490933D01*
Y477547D02*
Y482740D01*
X374845Y477547D02*
Y482740D01*
Y485740D02*
Y490933D01*
X374433Y371900D02*
Y379100D01*
X361047Y371900D02*
Y379100D01*
X366240D01*
X369240D02*
X374433D01*
X369240Y371901D02*
X374433D01*
X361047D02*
X366240D01*
M02*
