G04*
G04 #@! TF.GenerationSoftware,Altium Limited,Altium Designer,20.0.9 (164)*
G04*
G04 Layer_Physical_Order=2*
G04 Layer_Color=16711680*
%FSLAX25Y25*%
%MOIN*%
G70*
G01*
G75*
%ADD10C,0.01000*%
%ADD43C,0.02000*%
%ADD44R,0.06693X0.06693*%
%ADD45C,0.06693*%
%ADD46R,0.06693X0.06693*%
%ADD47C,0.05000*%
G36*
X391480Y492578D02*
Y342500D01*
Y342422D01*
X383578Y334520D01*
X267422D01*
X259520Y342422D01*
Y492078D01*
X266922Y499480D01*
X384578D01*
X391480Y492578D01*
D02*
G37*
%LPC*%
G36*
X273500Y488818D02*
Y485000D01*
X277318D01*
X277235Y485635D01*
X276797Y486692D01*
X276100Y487600D01*
X275192Y488297D01*
X274135Y488735D01*
X273500Y488818D01*
D02*
G37*
G36*
X272500D02*
X271865Y488735D01*
X270808Y488297D01*
X269900Y487600D01*
X269203Y486692D01*
X268765Y485635D01*
X268682Y485000D01*
X272500D01*
Y488818D01*
D02*
G37*
G36*
X277318Y484000D02*
X273500D01*
Y480182D01*
X274135Y480265D01*
X275192Y480703D01*
X276100Y481400D01*
X276797Y482308D01*
X277235Y483365D01*
X277318Y484000D01*
D02*
G37*
G36*
X272500D02*
X268682D01*
X268765Y483365D01*
X269040Y482703D01*
X263919Y477581D01*
X263587Y477085D01*
X263471Y476500D01*
Y418843D01*
X263587Y418258D01*
X263919Y417762D01*
X271688Y409993D01*
X272070Y409737D01*
X272090Y409586D01*
X272443Y408735D01*
X273004Y408004D01*
X273735Y407443D01*
X274586Y407090D01*
X275000Y407036D01*
Y410500D01*
X276000D01*
Y407036D01*
X276414Y407090D01*
X277265Y407443D01*
X277996Y408004D01*
X278557Y408735D01*
X278910Y409586D01*
X278951Y409900D01*
X279479Y410079D01*
X282980Y406578D01*
Y392825D01*
X282487Y392620D01*
X281860Y392140D01*
X281380Y391513D01*
X281077Y390783D01*
X280974Y390000D01*
X281077Y389217D01*
X281380Y388487D01*
X281860Y387860D01*
X282487Y387380D01*
X283217Y387077D01*
X284000Y386974D01*
X284528Y387044D01*
X284884Y386718D01*
X284935Y386589D01*
X284902Y386447D01*
X284717Y386423D01*
X283987Y386121D01*
X283360Y385640D01*
X282879Y385013D01*
X282577Y384283D01*
X282474Y383500D01*
X282577Y382717D01*
X282879Y381987D01*
X283360Y381360D01*
X283987Y380879D01*
X284717Y380577D01*
X285500Y380474D01*
X286283Y380577D01*
X287013Y380879D01*
X287640Y381360D01*
X287980Y381804D01*
X288480Y381635D01*
Y379825D01*
X287987Y379621D01*
X287360Y379140D01*
X286879Y378513D01*
X286577Y377783D01*
X286474Y377000D01*
X286577Y376217D01*
X286879Y375487D01*
X287360Y374860D01*
X287987Y374379D01*
X288717Y374077D01*
X288782Y374069D01*
X288860Y373898D01*
X288895Y373550D01*
X288360Y373140D01*
X287879Y372513D01*
X287577Y371783D01*
X287474Y371000D01*
X287577Y370217D01*
X287879Y369487D01*
X288360Y368860D01*
X288987Y368379D01*
X289717Y368077D01*
X290500Y367974D01*
X291283Y368077D01*
X292013Y368379D01*
X292640Y368860D01*
X293121Y369487D01*
X293423Y370217D01*
X293526Y371000D01*
X293423Y371783D01*
X293121Y372513D01*
X292981Y372695D01*
X294221Y373936D01*
X294442Y374267D01*
X294520Y374657D01*
Y414175D01*
X295013Y414380D01*
X295640Y414860D01*
X295980Y415305D01*
X296480Y415135D01*
Y372500D01*
X296558Y372110D01*
X296779Y371779D01*
X299782Y368776D01*
X299577Y368283D01*
X299474Y367500D01*
X299577Y366717D01*
X299880Y365987D01*
X300360Y365360D01*
X300987Y364879D01*
X301717Y364577D01*
X302500Y364474D01*
X303283Y364577D01*
X304013Y364879D01*
X304640Y365360D01*
X305120Y365987D01*
X305423Y366717D01*
X305526Y367500D01*
X305423Y368283D01*
X305120Y369013D01*
X304640Y369640D01*
X304013Y370121D01*
X303283Y370423D01*
X302500Y370526D01*
X301717Y370423D01*
X301223Y370218D01*
X298520Y372922D01*
Y418135D01*
X299020Y418304D01*
X299360Y417860D01*
X299987Y417380D01*
X300717Y417077D01*
X301500Y416974D01*
X302283Y417077D01*
X303013Y417380D01*
X303640Y417860D01*
X304120Y418487D01*
X304325Y418980D01*
X315078D01*
X329537Y404521D01*
X329577Y404217D01*
X329879Y403487D01*
X330360Y402860D01*
X330987Y402380D01*
X331717Y402077D01*
X332500Y401974D01*
X333283Y402077D01*
X334013Y402380D01*
X334640Y402860D01*
X335121Y403487D01*
X335423Y404217D01*
X335526Y405000D01*
X335423Y405783D01*
X335121Y406513D01*
X334640Y407140D01*
X334013Y407620D01*
X333283Y407923D01*
X332500Y408026D01*
X331717Y407923D01*
X330987Y407620D01*
X330360Y407140D01*
X330349Y407125D01*
X329850Y407092D01*
X316221Y420721D01*
X315890Y420942D01*
X315500Y421020D01*
X304325D01*
X304120Y421513D01*
X303640Y422140D01*
X303013Y422620D01*
X302283Y422923D01*
X301500Y423026D01*
X300717Y422923D01*
X299987Y422620D01*
X299360Y422140D01*
X299020Y421696D01*
X298520Y421865D01*
Y423850D01*
X354150Y479480D01*
X365731D01*
X365935Y478987D01*
X366416Y478360D01*
X367042Y477879D01*
X367772Y477577D01*
X368555Y477474D01*
X369339Y477577D01*
X370068Y477879D01*
X370695Y478360D01*
X371176Y478987D01*
X371478Y479717D01*
X371581Y480500D01*
X371478Y481283D01*
X371176Y482013D01*
X370695Y482640D01*
X370068Y483120D01*
X369339Y483423D01*
X368555Y483526D01*
X367772Y483423D01*
X367042Y483120D01*
X366416Y482640D01*
X365935Y482013D01*
X365731Y481520D01*
X353727D01*
X353337Y481442D01*
X353006Y481221D01*
X352280Y480495D01*
X351777Y480699D01*
X351700Y481283D01*
X351398Y482013D01*
X350917Y482640D01*
X350290Y483120D01*
X349561Y483423D01*
X348778Y483526D01*
X347994Y483423D01*
X347265Y483120D01*
X346638Y482640D01*
X346157Y482013D01*
X345855Y481283D01*
X345752Y480500D01*
X345855Y479717D01*
X346059Y479223D01*
X324484Y457648D01*
X324010Y457882D01*
X324026Y458000D01*
X323923Y458783D01*
X323621Y459513D01*
X323140Y460140D01*
X322513Y460620D01*
X321783Y460923D01*
X321000Y461026D01*
X320217Y460923D01*
X319487Y460620D01*
X318860Y460140D01*
X318392Y459529D01*
X311500D01*
X310915Y459413D01*
X310419Y459081D01*
X298500Y447163D01*
X295581Y450081D01*
X295085Y450413D01*
X294500Y450529D01*
X272108D01*
X271640Y451140D01*
X271013Y451620D01*
X270283Y451923D01*
X269500Y452026D01*
X268717Y451923D01*
X267987Y451620D01*
X267360Y451140D01*
X267029Y450708D01*
X266529Y450878D01*
Y475867D01*
X271203Y480540D01*
X271865Y480265D01*
X272500Y480182D01*
Y484000D01*
D02*
G37*
G36*
X309222Y483526D02*
X308439Y483423D01*
X307709Y483120D01*
X307083Y482640D01*
X306614Y482029D01*
X289000D01*
X288415Y481913D01*
X287919Y481581D01*
X274684Y468347D01*
X269673D01*
Y469731D01*
X271076Y471134D01*
X271996Y470753D01*
X273000Y470620D01*
X274004Y470753D01*
X274940Y471140D01*
X275743Y471757D01*
X276360Y472560D01*
X276747Y473496D01*
X276880Y474500D01*
X276747Y475504D01*
X276360Y476440D01*
X275743Y477243D01*
X274940Y477860D01*
X274004Y478247D01*
X273000Y478380D01*
X271996Y478247D01*
X271060Y477860D01*
X270257Y477243D01*
X269640Y476440D01*
X269253Y475504D01*
X269120Y474500D01*
X269253Y473496D01*
X269634Y472576D01*
X267933Y470875D01*
X267712Y470544D01*
X267634Y470154D01*
Y460739D01*
X267712Y460349D01*
X267933Y460018D01*
X268518Y459433D01*
X268849Y459212D01*
X269239Y459134D01*
X309154D01*
X309544Y459212D01*
X309875Y459433D01*
X320724Y470282D01*
X321217Y470077D01*
X322000Y469974D01*
X322783Y470077D01*
X323513Y470379D01*
X324140Y470860D01*
X324621Y471487D01*
X324923Y472217D01*
X325026Y473000D01*
X324923Y473783D01*
X324621Y474513D01*
X324140Y475140D01*
X323513Y475621D01*
X322783Y475923D01*
X322000Y476026D01*
X321217Y475923D01*
X320487Y475621D01*
X319860Y475140D01*
X319379Y474513D01*
X319077Y473783D01*
X318974Y473000D01*
X319077Y472217D01*
X319282Y471724D01*
X308731Y461173D01*
X276847D01*
Y466184D01*
X289633Y478971D01*
X306614D01*
X307083Y478360D01*
X307709Y477879D01*
X308439Y477577D01*
X309222Y477474D01*
X310005Y477577D01*
X310735Y477879D01*
X311362Y478360D01*
X311843Y478987D01*
X312145Y479717D01*
X312248Y480500D01*
X312145Y481283D01*
X311843Y482013D01*
X311362Y482640D01*
X310735Y483120D01*
X310005Y483423D01*
X309222Y483526D01*
D02*
G37*
G36*
X374500Y459964D02*
X374086Y459910D01*
X373235Y459557D01*
X372504Y458996D01*
X371943Y458265D01*
X371634Y457520D01*
X356366D01*
X356057Y458265D01*
X355496Y458996D01*
X354765Y459557D01*
X353914Y459910D01*
X353500Y459964D01*
Y456500D01*
X352500D01*
Y459964D01*
X352086Y459910D01*
X351235Y459557D01*
X350504Y458996D01*
X349943Y458265D01*
X349750Y457800D01*
X349209Y457800D01*
X349120Y458013D01*
X348640Y458640D01*
X348013Y459121D01*
X347283Y459423D01*
X346500Y459526D01*
X345717Y459423D01*
X344987Y459121D01*
X344360Y458640D01*
X343880Y458013D01*
X343577Y457283D01*
X343474Y456500D01*
X343577Y455717D01*
X343880Y454987D01*
X344360Y454360D01*
X344987Y453879D01*
X345480Y453675D01*
Y436922D01*
X340776Y432218D01*
X340283Y432423D01*
X339500Y432526D01*
X338717Y432423D01*
X337987Y432121D01*
X337360Y431640D01*
X336879Y431013D01*
X336577Y430283D01*
X336474Y429500D01*
X336577Y428717D01*
X336879Y427987D01*
X337238Y427520D01*
X337027Y427020D01*
X336422D01*
X323718Y439723D01*
X323923Y440217D01*
X324026Y441000D01*
X323923Y441783D01*
X323621Y442513D01*
X323140Y443140D01*
X322513Y443620D01*
X321783Y443923D01*
X321000Y444026D01*
X320217Y443923D01*
X319487Y443620D01*
X318860Y443140D01*
X318379Y442513D01*
X318077Y441783D01*
X317974Y441000D01*
X318077Y440217D01*
X318379Y439487D01*
X318860Y438860D01*
X319487Y438379D01*
X320217Y438077D01*
X321000Y437974D01*
X321783Y438077D01*
X322276Y438282D01*
X335279Y425279D01*
X335610Y425058D01*
X336000Y424980D01*
X356622D01*
X356655Y424480D01*
X356217Y424423D01*
X355487Y424121D01*
X354860Y423640D01*
X354380Y423013D01*
X354077Y422283D01*
X353974Y421500D01*
X354077Y420717D01*
X354380Y419987D01*
X354860Y419360D01*
X355487Y418880D01*
X356217Y418577D01*
X357000Y418474D01*
X357783Y418577D01*
X358277Y418782D01*
X358980Y418078D01*
Y415378D01*
X358480Y415345D01*
X358423Y415783D01*
X358120Y416513D01*
X357640Y417140D01*
X357013Y417621D01*
X356283Y417923D01*
X355500Y418026D01*
X354717Y417923D01*
X353987Y417621D01*
X353360Y417140D01*
X353020Y416695D01*
X352520Y416865D01*
Y418414D01*
X352442Y418804D01*
X352221Y419135D01*
X352011Y419345D01*
X352120Y419487D01*
X352423Y420217D01*
X352526Y421000D01*
X352423Y421783D01*
X352120Y422513D01*
X351640Y423140D01*
X351013Y423621D01*
X350283Y423923D01*
X349500Y424026D01*
X348717Y423923D01*
X347987Y423621D01*
X347360Y423140D01*
X346880Y422513D01*
X346577Y421783D01*
X346474Y421000D01*
X346577Y420217D01*
X346880Y419487D01*
X347256Y418996D01*
X347021Y418523D01*
X347000Y418526D01*
X346217Y418423D01*
X345487Y418120D01*
X344860Y417640D01*
X344379Y417013D01*
X344077Y416283D01*
X343996Y415666D01*
X343504Y415497D01*
X343495Y415497D01*
X342765Y416057D01*
X341914Y416410D01*
X341500Y416464D01*
Y413000D01*
X341000D01*
Y412500D01*
X337536D01*
X337590Y412086D01*
X337943Y411235D01*
X338504Y410504D01*
X339235Y409943D01*
X339980Y409634D01*
Y394973D01*
X333614Y388606D01*
X333025Y389058D01*
X332529Y389263D01*
Y393646D01*
X332996Y394004D01*
X333557Y394735D01*
X333910Y395586D01*
X333964Y396000D01*
X327036D01*
X327090Y395586D01*
X327443Y394735D01*
X328004Y394004D01*
X328735Y393443D01*
X329471Y393138D01*
Y389039D01*
X328764Y388496D01*
X328203Y387765D01*
X327850Y386914D01*
X327796Y386500D01*
X334724D01*
X334686Y386794D01*
X341721Y393829D01*
X341942Y394160D01*
X342020Y394550D01*
Y409634D01*
X342765Y409943D01*
X343496Y410504D01*
X344057Y411235D01*
X344410Y412086D01*
X344530Y413000D01*
X344529Y413011D01*
X345001Y413252D01*
X345487Y412880D01*
X345980Y412675D01*
Y395422D01*
X334905Y384347D01*
X334481Y384630D01*
X334670Y385087D01*
X334724Y385500D01*
X331760D01*
Y382536D01*
X332174Y382590D01*
X332631Y382780D01*
X332914Y382356D01*
X306404Y355847D01*
X300153D01*
Y348683D01*
X291980D01*
X280312Y360351D01*
X280410Y360586D01*
X280464Y361000D01*
X277500D01*
Y358036D01*
X277914Y358090D01*
X278149Y358188D01*
X290265Y346072D01*
X290761Y345741D01*
X291347Y345624D01*
X359154D01*
X359739Y345741D01*
X360235Y346072D01*
X362203Y348040D01*
X362865Y347765D01*
X363500Y347682D01*
Y351500D01*
X359682D01*
X359765Y350865D01*
X360040Y350203D01*
X358520Y348683D01*
X356773D01*
X356613Y349156D01*
X356743Y349257D01*
X357360Y350060D01*
X357747Y350996D01*
X357880Y352000D01*
X357747Y353004D01*
X357366Y353924D01*
X367721Y364279D01*
X367942Y364610D01*
X368020Y365000D01*
Y385473D01*
X368520Y385506D01*
X368558Y385217D01*
X368860Y384487D01*
X369341Y383860D01*
X369968Y383380D01*
X370697Y383077D01*
X371480Y382974D01*
X371697Y383003D01*
X372471Y382229D01*
Y355530D01*
X372060Y355360D01*
X371257Y354743D01*
X370640Y353940D01*
X370253Y353004D01*
X370120Y352000D01*
X370253Y350996D01*
X370640Y350060D01*
X371257Y349257D01*
X372060Y348640D01*
X372996Y348253D01*
X374000Y348120D01*
X375004Y348253D01*
X375940Y348640D01*
X376743Y349257D01*
X377360Y350060D01*
X377747Y350996D01*
X377880Y352000D01*
X377747Y353004D01*
X377360Y353940D01*
X376743Y354743D01*
X375940Y355360D01*
X375529Y355530D01*
Y382863D01*
X375413Y383448D01*
X375081Y383944D01*
X374229Y384797D01*
X374403Y385217D01*
X374506Y386000D01*
X374403Y386783D01*
X374101Y387513D01*
X373620Y388140D01*
X372993Y388620D01*
X372264Y388923D01*
X371480Y389026D01*
X370697Y388923D01*
X369968Y388620D01*
X369341Y388140D01*
X368860Y387513D01*
X368558Y386783D01*
X368520Y386494D01*
X368020Y386527D01*
Y418885D01*
X368640Y419360D01*
X369121Y419987D01*
X369423Y420717D01*
X369526Y421500D01*
X369423Y422283D01*
X369320Y422531D01*
X369744Y422814D01*
X371782Y420777D01*
X371577Y420283D01*
X371474Y419500D01*
X371577Y418717D01*
X371880Y417987D01*
X372360Y417360D01*
X372987Y416880D01*
X373717Y416577D01*
X374500Y416474D01*
X375283Y416577D01*
X376013Y416880D01*
X376640Y417360D01*
X377120Y417987D01*
X377423Y418717D01*
X377471Y419080D01*
X377971Y419047D01*
Y390608D01*
X377360Y390140D01*
X376880Y389513D01*
X376577Y388783D01*
X376474Y388000D01*
X376577Y387217D01*
X376880Y386487D01*
X377360Y385860D01*
X377987Y385380D01*
X378717Y385077D01*
X379500Y384974D01*
X380283Y385077D01*
X381013Y385380D01*
X381640Y385860D01*
X382120Y386487D01*
X382423Y387217D01*
X382526Y388000D01*
X382423Y388783D01*
X382120Y389513D01*
X381640Y390140D01*
X381029Y390608D01*
Y423500D01*
X380913Y424085D01*
X380581Y424581D01*
X369783Y435380D01*
X369923Y435717D01*
X370026Y436500D01*
X369923Y437283D01*
X369620Y438013D01*
X369140Y438640D01*
X368513Y439120D01*
X367783Y439423D01*
X367000Y439526D01*
X366217Y439423D01*
X365880Y439283D01*
X352652Y452511D01*
X352885Y452985D01*
X353000Y452970D01*
X353914Y453090D01*
X354765Y453443D01*
X355496Y454004D01*
X356057Y454735D01*
X356366Y455480D01*
X371634D01*
X371943Y454735D01*
X372504Y454004D01*
X373235Y453443D01*
X374086Y453090D01*
X374500Y453036D01*
Y456500D01*
Y459964D01*
D02*
G37*
G36*
X375500D02*
Y457000D01*
X378464D01*
X378410Y457414D01*
X378057Y458265D01*
X377496Y458996D01*
X376765Y459557D01*
X375914Y459910D01*
X375500Y459964D01*
D02*
G37*
G36*
X378464Y456000D02*
X375500D01*
Y453036D01*
X375914Y453090D01*
X376765Y453443D01*
X377496Y454004D01*
X378057Y454735D01*
X378410Y455586D01*
X378464Y456000D01*
D02*
G37*
G36*
X340500Y416464D02*
X340086Y416410D01*
X339235Y416057D01*
X338504Y415496D01*
X337943Y414765D01*
X337590Y413914D01*
X337536Y413500D01*
X340500D01*
Y416464D01*
D02*
G37*
G36*
X331000Y399964D02*
Y397000D01*
X333964D01*
X333910Y397414D01*
X333557Y398265D01*
X332996Y398996D01*
X332265Y399557D01*
X331414Y399910D01*
X331000Y399964D01*
D02*
G37*
G36*
X330000D02*
X329586Y399910D01*
X328735Y399557D01*
X328004Y398996D01*
X327443Y398265D01*
X327090Y397414D01*
X327036Y397000D01*
X330000D01*
Y399964D01*
D02*
G37*
G36*
X330760Y385500D02*
X327796D01*
X327850Y385087D01*
X328203Y384235D01*
X328764Y383504D01*
X329495Y382943D01*
X330346Y382590D01*
X330760Y382536D01*
Y385500D01*
D02*
G37*
G36*
X277500Y364964D02*
Y362000D01*
X280464D01*
X280410Y362414D01*
X280057Y363265D01*
X279496Y363996D01*
X278765Y364557D01*
X277914Y364910D01*
X277500Y364964D01*
D02*
G37*
G36*
X277000Y384026D02*
X276217Y383923D01*
X275487Y383621D01*
X274860Y383140D01*
X274379Y382513D01*
X274077Y381783D01*
X273974Y381000D01*
X274077Y380217D01*
X274379Y379487D01*
X274860Y378860D01*
X275487Y378380D01*
X275980Y378175D01*
Y372156D01*
X272779Y368955D01*
X272558Y368624D01*
X272480Y368234D01*
Y355500D01*
X272558Y355110D01*
X272779Y354779D01*
X274282Y353276D01*
X274077Y352783D01*
X273974Y352000D01*
X274077Y351217D01*
X274379Y350487D01*
X274860Y349860D01*
X275487Y349379D01*
X276217Y349077D01*
X277000Y348974D01*
X277783Y349077D01*
X278513Y349379D01*
X279140Y349860D01*
X279621Y350487D01*
X279923Y351217D01*
X280026Y352000D01*
X279923Y352783D01*
X279621Y353513D01*
X279140Y354140D01*
X278513Y354621D01*
X277783Y354923D01*
X277000Y355026D01*
X276217Y354923D01*
X275724Y354718D01*
X274520Y355922D01*
Y358426D01*
X274968Y358647D01*
X275235Y358443D01*
X276086Y358090D01*
X276500Y358036D01*
Y361500D01*
Y364964D01*
X276086Y364910D01*
X275235Y364557D01*
X274968Y364352D01*
X274520Y364574D01*
Y367812D01*
X277721Y371013D01*
X277942Y371344D01*
X278020Y371734D01*
Y378175D01*
X278513Y378380D01*
X279140Y378860D01*
X279621Y379487D01*
X279923Y380217D01*
X280026Y381000D01*
X279923Y381783D01*
X279621Y382513D01*
X279140Y383140D01*
X278513Y383621D01*
X277783Y383923D01*
X277000Y384026D01*
D02*
G37*
G36*
X364500Y356318D02*
Y352500D01*
X368318D01*
X368235Y353135D01*
X367797Y354192D01*
X367100Y355100D01*
X366192Y355797D01*
X365135Y356235D01*
X364500Y356318D01*
D02*
G37*
G36*
X363500D02*
X362865Y356235D01*
X361808Y355797D01*
X360900Y355100D01*
X360203Y354192D01*
X359765Y353135D01*
X359682Y352500D01*
X363500D01*
Y356318D01*
D02*
G37*
G36*
X368318Y351500D02*
X364500D01*
Y347682D01*
X365135Y347765D01*
X366192Y348203D01*
X367100Y348900D01*
X367797Y349808D01*
X368235Y350865D01*
X368318Y351500D01*
D02*
G37*
%LPD*%
D10*
X371480Y385382D02*
Y386000D01*
X293500Y374657D02*
Y417000D01*
X290500Y371657D02*
X293500Y374657D01*
X315500Y420000D02*
X330500Y405000D01*
X301500Y420000D02*
X315500D01*
X297500Y372500D02*
Y424273D01*
X290500Y371000D02*
Y371657D01*
X297500Y372500D02*
X302500Y367500D01*
X297500Y424273D02*
X353727Y480500D01*
X289500Y377000D02*
Y421222D01*
X348778Y480500D01*
X268653Y460739D02*
Y470154D01*
X269239Y460153D02*
X309154D01*
X268653Y470154D02*
X273000Y474500D01*
X268653Y460739D02*
X269239Y460153D01*
X309154D02*
X322000Y473000D01*
X366500Y421500D02*
X367000Y421000D01*
X336000Y426000D02*
X368000D01*
X374500Y419500D01*
X321000Y441000D02*
X336000Y426000D01*
X271578Y419422D02*
X284000Y407000D01*
Y390000D02*
Y407000D01*
X269000Y420500D02*
X270082D01*
X271161Y419422D01*
X271578D01*
X277000Y371734D02*
Y381000D01*
X273500Y368234D02*
X277000Y371734D01*
X273500Y355500D02*
Y368234D01*
Y355500D02*
X277000Y352000D01*
X285500Y383500D02*
X286265Y384265D01*
Y387316D01*
X287500Y388550D01*
Y410000D01*
X277000Y420500D02*
X287500Y410000D01*
X353727Y480500D02*
X368555D01*
X330500Y405000D02*
X332500D01*
X341000Y394550D02*
Y413000D01*
X333215Y386766D02*
X341000Y394550D01*
X354000Y352000D02*
X367000Y365000D01*
Y421000D01*
X344000Y352000D02*
X363500Y371500D01*
Y415000D01*
X360000Y378000D02*
Y418500D01*
X334000Y352000D02*
X360000Y378000D01*
X357000Y421500D02*
X360000Y418500D01*
X355500Y383500D02*
Y415000D01*
X324000Y352000D02*
X355500Y383500D01*
X314000Y352000D02*
X351500Y389500D01*
Y418414D01*
X349500Y420414D02*
Y421000D01*
Y420414D02*
X351500Y418414D01*
X347000Y395000D02*
Y415500D01*
X304000Y352000D02*
X347000Y395000D01*
X353000Y456500D02*
X375000D01*
X346500Y436500D02*
Y456500D01*
X339500Y429500D02*
X346500Y436500D01*
D43*
X298500Y445000D02*
X311500Y458000D01*
X288500Y435000D02*
X298500Y445000D01*
X269500Y449000D02*
X294500D01*
X298500Y445000D01*
X374000Y352000D02*
Y382863D01*
X371480Y385382D02*
X374000Y382863D01*
X379500Y388000D02*
Y423500D01*
X346500Y456500D02*
X379500Y423500D01*
X288000Y435000D02*
X288500D01*
X311500Y458000D02*
X321000D01*
X272769Y411074D02*
X274926D01*
X265000Y418843D02*
X272769Y411074D01*
X265000Y418843D02*
Y476500D01*
X273000Y484500D01*
X274926Y411074D02*
X275500Y410500D01*
X273000Y464500D02*
X289000Y480500D01*
X309222D01*
X276999Y441000D02*
X277000Y441000D01*
Y430000D02*
Y441000D01*
Y430000D02*
X277000Y430000D01*
X331000Y386260D02*
X331260Y386000D01*
X331000Y386260D02*
Y396000D01*
X330500Y396500D02*
X331000Y396000D01*
X277000Y361500D02*
X291347Y347153D01*
X359154D02*
X364000Y352000D01*
X291347Y347153D02*
X359154D01*
D44*
X273000Y464500D02*
D03*
D45*
Y474500D02*
D03*
Y484500D02*
D03*
X374000Y352000D02*
D03*
X364000D02*
D03*
X354000D02*
D03*
X344000D02*
D03*
X334000D02*
D03*
X324000D02*
D03*
X314000D02*
D03*
D46*
X304000D02*
D03*
D47*
X269500Y449000D02*
D03*
X371480Y386000D02*
D03*
X293500Y417000D02*
D03*
X301500Y420000D02*
D03*
X290500Y371000D02*
D03*
X322000Y473000D02*
D03*
X366500Y421500D02*
D03*
X321000Y441000D02*
D03*
X374500Y419500D02*
D03*
X379500Y388000D02*
D03*
X288000Y435000D02*
D03*
X321000Y458000D02*
D03*
X275500Y410500D02*
D03*
X277000Y352000D02*
D03*
Y381000D02*
D03*
Y420500D02*
D03*
X285500Y383500D02*
D03*
X269000Y420500D02*
D03*
X284000Y390000D02*
D03*
X367000Y436500D02*
D03*
X309222Y480500D02*
D03*
X277000Y430000D02*
D03*
X276999Y441000D02*
D03*
X332500Y405000D02*
D03*
X330500Y396500D02*
D03*
X341000Y413000D02*
D03*
X277000Y361500D02*
D03*
X331260Y386000D02*
D03*
X348778Y480500D02*
D03*
X368555D02*
D03*
X302500Y367500D02*
D03*
X289500Y377000D02*
D03*
X363500Y415000D02*
D03*
X357000Y421500D02*
D03*
X355500Y415000D02*
D03*
X349500Y421000D02*
D03*
X347000Y415500D02*
D03*
X375000Y456500D02*
D03*
X353000D02*
D03*
X339500Y429500D02*
D03*
X346500Y456500D02*
D03*
M02*
